<svg width="24" height="24" viewBox="0 0 24 24" fill="none" xmlns="http://www.w3.org/2000/svg">
<path fill-rule="evenodd" clip-rule="evenodd" d="M13.5 17.75H10.5C10.086 17.75 9.75 17.414 9.75 17C9.75 16.586 10.086 16.25 10.5 16.25H11.25V11.75H10.5C10.086 11.75 9.75 11.414 9.75 11C9.75 10.586 10.086 10.25 10.5 10.25H12C12.414 10.25 12.75 10.586 12.75 11V16.25H13.5C13.914 16.25 14.25 16.586 14.25 17C14.25 17.414 13.914 17.75 13.5 17.75M12 6C12.829 6 13.5 6.671 13.5 7.5C13.5 8.329 12.829 9 12 9C11.171 9 10.5 8.329 10.5 7.5C10.5 6.671 11.171 6 12 6M12 0C5.373 0 0 5.373 0 12C0 18.627 5.373 24 12 24C18.627 24 24 18.627 24 12C24 5.373 18.627 0 12 0" fill="white"/>
</svg>
