<svg width="24" height="24" viewBox="0 0 24 24" fill="none" xmlns="http://www.w3.org/2000/svg">
<path fill-rule="evenodd" clip-rule="evenodd" d="M14.474 13.658C14.214 13.916 14 14.4 14 14.732C14 15.065 13.701 15.338 13.334 15.338H10.666C10.299 15.338 9.999 15.065 9.999 14.732C9.999 14.4 9.786 13.916 9.526 13.658C9.526 13.658 8 12.147 8 10.668C8 8.459 9.79 6.668 12 6.668C14.209 6.668 16 8.459 16 10.668C16 12.147 14.474 13.658 14.474 13.658ZM14 17.333C14 17.7 13.7 18 13.333 18H10.665C10.299 18 9.998 17.7 9.998 17.333V17.331C9.998 16.964 10.299 16.664 10.665 16.664H13.333C13.7 16.664 14 16.964 14 17.331V17.333ZM21.267 19.624C22.974 17.551 24 14.895 24 12C24 5.373 18.627 0 12 0C5.372 0 0 5.373 0 12C0 18.627 5.372 24 12 24C14.381 24 16.6 23.306 18.467 22.11L21.282 23.284C21.471 23.362 21.683 23.364 21.873 23.289C22.277 23.129 22.474 22.673 22.314 22.269L21.267 19.624Z" fill="#006AC0"/>
</svg>
