<?xml version="1.0" encoding="UTF-8"?>
<svg width="36px" height="49px" viewBox="0 0 36 49" version="1.1" xmlns="http://www.w3.org/2000/svg" xmlns:xlink="http://www.w3.org/1999/xlink">
    <title>Log out button icon</title>
    <g id="S&amp;R-user-testing-Mobile-view" stroke="none" stroke-width="1" fill="none" fill-rule="evenodd">
        <g id="Mortgage-dashboard-mobile" transform="translate(-272.000000, -10.000000)">
            <g id="Log-out-button-icon" transform="translate(272.000000, 10.000000)">
                <path d="M4.98632812,46 C5.10742188,46 5.20117188,45.9697266 5.26757812,45.9091797 C5.33398438,45.8486328 5.3671875,45.7558594 5.3671875,45.6308594 L5.3671875,45.6308594 L5.3671875,44.8867188 C5.3671875,44.7617188 5.33398438,44.6679688 5.26757812,44.6054688 C5.20117188,44.5429688 5.10742188,44.5117188 4.98632812,44.5117188 L4.98632812,44.5117188 L2.46679688,44.5117188 L2.46679688,38.3652344 C2.46679688,38.2402344 2.43261719,38.1474609 2.36425781,38.0869141 C2.29589844,38.0263672 2.20117188,37.9960938 2.08007812,37.9960938 L2.08007812,37.9960938 L1.20703125,37.9960938 C1.08203125,37.9960938 0.98828125,38.0302734 0.92578125,38.0986328 C0.86328125,38.1669922 0.83203125,38.2617188 0.83203125,38.3828125 L0.83203125,38.3828125 L0.83203125,45.6132812 C0.83203125,45.734375 0.86328125,45.8291016 0.92578125,45.8974609 C0.98828125,45.9658203 1.08203125,46 1.20703125,46 L1.20703125,46 L4.98632812,46 Z M8.38476562,46.09375 C8.83789062,46.09375 9.22460938,46.0068359 9.54492188,45.8330078 C9.86523438,45.6591797 10.1279297,45.4296875 10.3330078,45.1445312 C10.5380859,44.859375 10.6884766,44.5361328 10.7841797,44.1748047 C10.8798828,43.8134766 10.9277344,43.4453125 10.9277344,43.0703125 C10.9277344,42.8242188 10.9072266,42.5791016 10.8662109,42.3349609 C10.8251953,42.0908203 10.7607422,41.8574219 10.6728516,41.6347656 C10.5849609,41.4121094 10.4726562,41.2060547 10.3359375,41.0166016 C10.1992188,40.8271484 10.0371094,40.6621094 9.84960938,40.5214844 C9.66210938,40.3808594 9.44628906,40.2705078 9.20214844,40.1904297 C8.95800781,40.1103516 8.68554688,40.0703125 8.38476562,40.0703125 C7.93945312,40.0703125 7.55664062,40.1572266 7.23632812,40.3310547 C6.91601562,40.5048828 6.65332031,40.7324219 6.44824219,41.0136719 C6.24316406,41.2949219 6.09277344,41.6152344 5.99707031,41.9746094 C5.90136719,42.3339844 5.85351562,42.6992188 5.85351562,43.0703125 C5.85351562,43.4492188 5.90136719,43.8193359 5.99707031,44.1806641 C6.09277344,44.5419922 6.24316406,44.8642578 6.44824219,45.1474609 C6.65332031,45.4306641 6.91601562,45.6591797 7.23632812,45.8330078 C7.55664062,46.0068359 7.93945312,46.09375 8.38476562,46.09375 Z M8.38476562,44.7519531 C8.20117188,44.7519531 8.05078125,44.7050781 7.93359375,44.6113281 C7.81640625,44.5175781 7.72460938,44.3925781 7.65820312,44.2363281 C7.59179688,44.0800781 7.54589844,43.9023438 7.52050781,43.703125 C7.49511719,43.5039062 7.48242188,43.3007812 7.48242188,43.09375 C7.48242188,42.8789062 7.49511719,42.6708984 7.52050781,42.4697266 C7.54589844,42.2685547 7.59179688,42.0898438 7.65820312,41.9335938 C7.72460938,41.7773438 7.81640625,41.6523438 7.93359375,41.5585938 C8.05078125,41.4648438 8.20117188,41.4179688 8.38476562,41.4179688 C8.57226562,41.4179688 8.72558594,41.4648438 8.84472656,41.5585938 C8.96386719,41.6523438 9.05664062,41.7773438 9.12304688,41.9335938 C9.18945312,42.0898438 9.234375,42.2685547 9.2578125,42.4697266 C9.28125,42.6708984 9.29296875,42.8789062 9.29296875,43.09375 C9.29296875,43.3007812 9.28125,43.5039062 9.2578125,43.703125 C9.234375,43.9023438 9.18945312,44.0800781 9.12304688,44.2363281 C9.05664062,44.3925781 8.96386719,44.5175781 8.84472656,44.6113281 C8.72558594,44.7050781 8.57226562,44.7519531 8.38476562,44.7519531 Z M14.2617188,48.1855469 C14.7226562,48.1855469 15.1054688,48.1328125 15.4101562,48.0273438 C15.7148438,47.921875 15.9580078,47.7714844 16.1396484,47.5761719 C16.3212891,47.3808594 16.4492188,47.1464844 16.5234375,46.8730469 C16.5976562,46.5996094 16.6347656,46.2929688 16.6347656,45.953125 L16.6347656,45.953125 L16.6347656,40.5859375 C16.6347656,40.4492188 16.6064453,40.3457031 16.5498047,40.2753906 C16.4931641,40.2050781 16.3984375,40.1699219 16.265625,40.1699219 L16.265625,40.1699219 L15.5917969,40.1699219 C15.4277344,40.1699219 15.3173828,40.2070312 15.2607422,40.28125 C15.2041016,40.3554688 15.1757812,40.4609375 15.1757812,40.5976562 L15.1757812,40.5976562 L15.1757812,40.7558594 C15.0546875,40.5488281 14.8798828,40.3828125 14.6513672,40.2578125 C14.4228516,40.1328125 14.1601562,40.0703125 13.8632812,40.0703125 C13.6054688,40.0703125 13.3730469,40.1103516 13.1660156,40.1904297 C12.9589844,40.2705078 12.7744141,40.3798828 12.6123047,40.5185547 C12.4501953,40.6572266 12.3105469,40.8203125 12.1933594,41.0078125 C12.0761719,41.1953125 11.9794922,41.3955078 11.9033203,41.6083984 C11.8271484,41.8212891 11.7714844,42.0429688 11.7363281,42.2734375 C11.7011719,42.5039062 11.6835938,42.7304688 11.6835938,42.953125 C11.6835938,43.359375 11.7275391,43.7412109 11.8154297,44.0986328 C11.9033203,44.4560547 12.0371094,44.7685547 12.2167969,45.0361328 C12.3964844,45.3037109 12.6240234,45.515625 12.8994141,45.671875 C13.1748047,45.828125 13.5,45.90625 13.875,45.90625 C13.9804688,45.90625 14.0898438,45.890625 14.203125,45.859375 C14.3164062,45.828125 14.4267578,45.7851562 14.5341797,45.7304688 C14.6416016,45.6757812 14.7421875,45.6113281 14.8359375,45.5371094 C14.9296875,45.4628906 15.0097656,45.3808594 15.0761719,45.2910156 L15.0761719,45.2910156 L15.0761719,45.9882812 C15.0761719,46.1171875 15.0605469,46.2363281 15.0292969,46.3457031 C14.9980469,46.4550781 14.9472656,46.5507812 14.8769531,46.6328125 C14.8066406,46.7148438 14.7158203,46.7783203 14.6044922,46.8232422 C14.4931641,46.8681641 14.359375,46.890625 14.203125,46.890625 C13.8984375,46.890625 13.6259766,46.8544922 13.3857422,46.7822266 C13.1455078,46.7099609 12.9257812,46.625 12.7265625,46.5273438 C12.625,46.4804688 12.5400391,46.4716797 12.4716797,46.5009766 C12.4033203,46.5302734 12.3515625,46.5878906 12.3164062,46.6738281 L12.3164062,46.6738281 L11.9941406,47.4296875 C11.9707031,47.4882812 11.9589844,47.5351562 11.9589844,47.5703125 C11.9589844,47.6328125 11.9736328,47.6796875 12.0029297,47.7109375 C12.0322266,47.7421875 12.0683594,47.7675781 12.1113281,47.7871094 C12.2128906,47.8339844 12.3408203,47.8808594 12.4951172,47.9277344 C12.6494141,47.9746094 12.8212891,48.0166016 13.0107422,48.0537109 C13.2001953,48.0908203 13.4013672,48.1220703 13.6142578,48.1474609 C13.8271484,48.1728516 14.0429688,48.1855469 14.2617188,48.1855469 Z M14.1503906,44.5703125 C14.0332031,44.5703125 13.9228516,44.546875 13.8193359,44.5 C13.7158203,44.453125 13.6269531,44.3701172 13.5527344,44.2509766 C13.4785156,44.1318359 13.4199219,43.9677734 13.3769531,43.7587891 C13.3339844,43.5498047 13.3125,43.28125 13.3125,42.953125 C13.3125,42.7539062 13.3251953,42.5605469 13.3505859,42.3730469 C13.3759766,42.1855469 13.4199219,42.0205078 13.4824219,41.8779297 C13.5449219,41.7353516 13.6298828,41.6210938 13.7373047,41.5351562 C13.8447266,41.4492188 13.9785156,41.40625 14.1386719,41.40625 C14.4238281,41.40625 14.6513672,41.5332031 14.8212891,41.7871094 C14.9912109,42.0410156 15.0761719,42.4492188 15.0761719,43.0117188 C15.0761719,43.2421875 15.0576172,43.453125 15.0205078,43.6445312 C14.9833984,43.8359375 14.9267578,44 14.8505859,44.1367188 C14.7744141,44.2734375 14.6777344,44.3798828 14.5605469,44.4560547 C14.4433594,44.5322266 14.3066406,44.5703125 14.1503906,44.5703125 Z M23.0625,46.09375 C23.515625,46.09375 23.9023438,46.0068359 24.2226562,45.8330078 C24.5429688,45.6591797 24.8056641,45.4296875 25.0107422,45.1445312 C25.2158203,44.859375 25.3662109,44.5361328 25.4619141,44.1748047 C25.5576172,43.8134766 25.6054688,43.4453125 25.6054688,43.0703125 C25.6054688,42.8242188 25.5849609,42.5791016 25.5439453,42.3349609 C25.5029297,42.0908203 25.4384766,41.8574219 25.3505859,41.6347656 C25.2626953,41.4121094 25.1503906,41.2060547 25.0136719,41.0166016 C24.8769531,40.8271484 24.7148438,40.6621094 24.5273438,40.5214844 C24.3398438,40.3808594 24.1240234,40.2705078 23.8798828,40.1904297 C23.6357422,40.1103516 23.3632812,40.0703125 23.0625,40.0703125 C22.6171875,40.0703125 22.234375,40.1572266 21.9140625,40.3310547 C21.59375,40.5048828 21.3310547,40.7324219 21.1259766,41.0136719 C20.9208984,41.2949219 20.7705078,41.6152344 20.6748047,41.9746094 C20.5791016,42.3339844 20.53125,42.6992188 20.53125,43.0703125 C20.53125,43.4492188 20.5791016,43.8193359 20.6748047,44.1806641 C20.7705078,44.5419922 20.9208984,44.8642578 21.1259766,45.1474609 C21.3310547,45.4306641 21.59375,45.6591797 21.9140625,45.8330078 C22.234375,46.0068359 22.6171875,46.09375 23.0625,46.09375 Z M23.0625,44.7519531 C22.8789062,44.7519531 22.7285156,44.7050781 22.6113281,44.6113281 C22.4941406,44.5175781 22.4023438,44.3925781 22.3359375,44.2363281 C22.2695312,44.0800781 22.2236328,43.9023438 22.1982422,43.703125 C22.1728516,43.5039062 22.1601562,43.3007812 22.1601562,43.09375 C22.1601562,42.8789062 22.1728516,42.6708984 22.1982422,42.4697266 C22.2236328,42.2685547 22.2695312,42.0898438 22.3359375,41.9335938 C22.4023438,41.7773438 22.4941406,41.6523438 22.6113281,41.5585938 C22.7285156,41.4648438 22.8789062,41.4179688 23.0625,41.4179688 C23.25,41.4179688 23.4033203,41.4648438 23.5224609,41.5585938 C23.6416016,41.6523438 23.734375,41.7773438 23.8007812,41.9335938 C23.8671875,42.0898438 23.9121094,42.2685547 23.9355469,42.4697266 C23.9589844,42.6708984 23.9707031,42.8789062 23.9707031,43.09375 C23.9707031,43.3007812 23.9589844,43.5039062 23.9355469,43.703125 C23.9121094,43.9023438 23.8671875,44.0800781 23.8007812,44.2363281 C23.734375,44.3925781 23.6416016,44.5175781 23.5224609,44.6113281 C23.4033203,44.7050781 23.25,44.7519531 23.0625,44.7519531 Z M28.0019531,46.09375 C28.2285156,46.09375 28.4326172,46.0644531 28.6142578,46.0058594 C28.7958984,45.9472656 28.9589844,45.875 29.1035156,45.7890625 C29.2480469,45.703125 29.3730469,45.609375 29.4785156,45.5078125 C29.5839844,45.40625 29.671875,45.3144531 29.7421875,45.2324219 L29.7421875,45.2324219 L29.7421875,45.6132812 C29.7421875,45.734375 29.7734375,45.8291016 29.8359375,45.8974609 C29.8984375,45.9658203 30.0039062,46 30.1523438,46 L30.1523438,46 L30.8203125,46 C30.953125,46 31.0507812,45.9648438 31.1132812,45.8945312 C31.1757812,45.8242188 31.2070312,45.7265625 31.2070312,45.6015625 L31.2070312,45.6015625 L31.2070312,40.5625 C31.2070312,40.4375 31.1757812,40.3408203 31.1132812,40.2724609 C31.0507812,40.2041016 30.9453125,40.1699219 30.796875,40.1699219 L30.796875,40.1699219 L30.0644531,40.1699219 C29.9003906,40.1699219 29.7900391,40.2041016 29.7333984,40.2724609 C29.6767578,40.3408203 29.6484375,40.4414062 29.6484375,40.5742188 L29.6484375,40.5742188 L29.6484375,43.46875 C29.6484375,43.578125 29.6435547,43.6708984 29.6337891,43.7470703 C29.6240234,43.8232422 29.6074219,43.8925781 29.5839844,43.9550781 C29.5605469,44.0175781 29.5292969,44.0761719 29.4902344,44.1308594 C29.4511719,44.1855469 29.4023438,44.2441406 29.34375,44.3066406 C29.2382812,44.4277344 29.1162109,44.5244141 28.9775391,44.5966797 C28.8388672,44.6689453 28.7011719,44.7050781 28.5644531,44.7050781 C28.4316406,44.7050781 28.3232422,44.6601562 28.2392578,44.5703125 C28.1552734,44.4804688 28.1132812,44.3339844 28.1132812,44.1308594 L28.1132812,44.1308594 L28.1132812,40.5625 C28.1132812,40.3007812 27.9882812,40.1699219 27.7382812,40.1699219 L27.7382812,40.1699219 L26.9355469,40.1699219 C26.7988281,40.1699219 26.7001953,40.203125 26.6396484,40.2695312 C26.5791016,40.3359375 26.5488281,40.4296875 26.5488281,40.5507812 L26.5488281,40.5507812 L26.5488281,44.453125 C26.5488281,45.546875 27.0332031,46.09375 28.0019531,46.09375 Z M34.5527344,46.09375 C34.8222656,46.09375 35.0664062,46.078125 35.2851562,46.046875 C35.5039062,46.015625 35.6757812,45.9765625 35.8007812,45.9296875 C35.8945312,45.8945312 35.9414062,45.8574219 35.9414062,45.8183594 C35.9414062,45.7988281 35.9365234,45.7714844 35.9267578,45.7363281 C35.9169922,45.7011719 35.90625,45.6660156 35.8945312,45.6308594 L35.8945312,45.6308594 L35.7070312,44.9101562 C35.6757812,44.8007812 35.6386719,44.7304688 35.5957031,44.6992188 C35.5527344,44.6679688 35.4765625,44.6699219 35.3671875,44.7050781 C35.3476562,44.7128906 35.3212891,44.7216797 35.2880859,44.7314453 C35.2548828,44.7412109 35.2177734,44.7509766 35.1767578,44.7607422 C35.1357422,44.7705078 35.0927734,44.7792969 35.0478516,44.7871094 C35.0029297,44.7949219 34.9609375,44.7988281 34.921875,44.7988281 C34.734375,44.7988281 34.6035156,44.7548828 34.5292969,44.6669922 C34.4550781,44.5791016 34.4179688,44.4238281 34.4179688,44.2011719 L34.4179688,44.2011719 L34.4179688,41.5234375 L35.3203125,41.5234375 C35.4335938,41.5234375 35.515625,41.4941406 35.5664062,41.4355469 C35.6171875,41.3769531 35.6425781,41.2988281 35.6425781,41.2011719 L35.6425781,41.2011719 L35.6425781,40.4921875 C35.6425781,40.2773438 35.5351562,40.1699219 35.3203125,40.1699219 L35.3203125,40.1699219 L34.4179688,40.1699219 L34.4179688,38.7167969 C34.4179688,38.5917969 34.3896484,38.4941406 34.3330078,38.4238281 C34.2763672,38.3535156 34.1699219,38.3183594 34.0136719,38.3183594 L34.0136719,38.3183594 L33.2460938,38.3183594 C33.1132812,38.3183594 33.015625,38.3535156 32.953125,38.4238281 C32.890625,38.4941406 32.859375,38.5917969 32.859375,38.7167969 L32.859375,38.7167969 L32.859375,40.1699219 L32.2734375,40.1699219 C32.171875,40.1699219 32.0917969,40.1992188 32.0332031,40.2578125 C31.9746094,40.3164062 31.9453125,40.3945312 31.9453125,40.4921875 L31.9453125,40.4921875 L31.9453125,41.2011719 C31.9453125,41.2988281 31.9746094,41.3769531 32.0332031,41.4355469 C32.0917969,41.4941406 32.171875,41.5234375 32.2734375,41.5234375 L32.2734375,41.5234375 L32.859375,41.5234375 L32.859375,44.3066406 C32.859375,44.6425781 32.9023438,44.9238281 32.9882812,45.1503906 C33.0742188,45.3769531 33.1923828,45.5605469 33.3427734,45.7011719 C33.4931641,45.8417969 33.671875,45.9423828 33.8789062,46.0029297 C34.0859375,46.0634766 34.3105469,46.09375 34.5527344,46.09375 Z" id="Logout" fill="#002979" fill-rule="nonzero"></path>
                <g id="Icons/Action/40px/Phone" transform="translate(18.000000, 16.000000) scale(-1, 1) translate(-18.000000, -16.000000) translate(2.000000, 0.000000)">
                    <g id="Guide/Action-40px" style="mix-blend-mode: multiply;">
                        <path d="M32,0 L32,32 L0,32 L0,0 L32,0 Z M24,8 L8,8 L8,24 L24,24 L24,8 Z" id="Boundary" fill="#E5F0F9" opacity="0"></path>
                        <g id="logout_black_24dp" transform="translate(7.000000, 8.000000)" fill="#002979" fill-rule="nonzero">
                            <path d="M11.5,3.55555556 L10.231,4.80888889 L12.553,7.11111111 L3.4,7.11111111 L3.4,8.88888889 L12.553,8.88888889 L10.231,11.1822222 L11.5,12.4444444 L16,8 L11.5,3.55555556 Z M1.8,1.77777778 L5,1.77777778 L5,0 L1.8,0 C0.81,0 0,0.8 0,1.77777778 L0,14.2222222 C0,15.2 0.81,16 1.8,16 L5,16 L5,14.2222222 L1.8,14.2222222 L1.8,1.77777778 Z" id="Shape" transform="translate(8.000000, 8.000000) scale(-1, 1) translate(-8.000000, -8.000000) "></path>
                        </g>
                    </g>
                    <path d="M16,0 C7.1637722,0 0,7.1637722 0,16 C0,24.836758 7.16350241,32 16,32 C24.8364976,32 32,24.836758 32,16 C32,7.1637722 24.8362278,0 16,0 Z M16,1.6 C23.9525722,1.6 30.4,8.0474278 30.4,16 C30.4,23.9530894 23.952855,30.4 16,30.4 C8.04714499,30.4 1.6,23.9530894 1.6,16 C1.6,8.0474278 8.0474278,1.6 16,1.6 Z" id="Icon-Fill" fill="#002979"></path>
                </g>
            </g>
        </g>
    </g>
</svg>