<?xml version="1.0" encoding="UTF-8"?>
<svg width="32px" height="49px" viewBox="0 0 32 49" version="1.1" xmlns="http://www.w3.org/2000/svg" xmlns:xlink="http://www.w3.org/1999/xlink">
    <title>Log in button icon</title>
    <g id="08---Save-&amp;-Return-feature" stroke="none" stroke-width="1" fill="none" fill-rule="evenodd">
        <g id="Hub" transform="translate(-956.000000, -130.000000)">
            <g id="Log-in-button-icon" transform="translate(956.000000, 130.000000)">
                <text id="Log-in" font-family="NBS-Bold, NBS Medium" font-size="12" font-weight="bold" fill="#002979">
                    <tspan x="1.54492188" y="46">Log in</tspan>
                </text>
                <g id="Icons/Action/40px/Phone" transform="translate(16.000000, 16.000000) scale(-1, 1) translate(-16.000000, -16.000000) ">
                    <g id="Guide/Action-40px" style="mix-blend-mode: multiply;">
                        <path d="M32,0 L32,32 L0,32 L0,0 L32,0 Z M24,8 L8,8 L8,24 L24,24 L24,8 Z" id="Boundary" fill="#E5F0F9" opacity="0"></path>
                        <path d="M21,14.3 L19.9,14.3 L19.9,9.5 C19.9,7.6 18.3,6 16.4,6 L15.6,6 C13.6,6 12.1,7.6 12.1,9.5 L12.1,14.3 L11,14.3 C9.9,14.3 9,15.2 9,16.3 L9,24 C9,25.1 9.9,26 11,26 L21,26 C22.1,26 23,25.1 23,24 L23,16.3 C23,15.2 22.1,14.3 21,14.3 Z M17.2,21.5 C17.2,22.1 16.8,22.5 16.2,22.5 L15.8,22.5 C15.2,22.5 14.8,22.1 14.8,21.5 L14.8,18.8 C14.8,18.2 15.2,17.8 15.8,17.8 L16.1,17.8 C16.7,17.8 17.1,18.2 17.1,18.8 L17.1,21.5 L17.2,21.5 Z M17.9,14.3 L14.1,14.3 L14.1,9.5 C14.1,8.7 14.8,8 15.6,8 L16.4,8 C17.2,8 17.9,8.7 17.9,9.5 L17.9,14.3 L17.9,14.3 Z" id="Shape" fill="#002979" fill-rule="nonzero"></path>
                    </g>
                    <path d="M16,0 C7.1637722,0 0,7.1637722 0,16 C0,24.836758 7.16350241,32 16,32 C24.8364976,32 32,24.836758 32,16 C32,7.1637722 24.8362278,0 16,0 Z M16,1.6 C23.9525722,1.6 30.4,8.0474278 30.4,16 C30.4,23.9530894 23.952855,30.4 16,30.4 C8.04714499,30.4 1.6,23.9530894 1.6,16 C1.6,8.0474278 8.0474278,1.6 16,1.6 Z" id="Icon-Fill" fill="#002979"></path>
                </g>
            </g>
        </g>
    </g>
</svg>