<?xml version="1.0" encoding="UTF-8"?>
<svg width="32px" height="46px" viewBox="0 0 32 46" version="1.1" xmlns="http://www.w3.org/2000/svg" xmlns:xlink="http://www.w3.org/1999/xlink">
    <title>Log in icon</title>
    <g id="S&amp;R-user-testing-Mobile-view" stroke="none" stroke-width="1" fill="none" fill-rule="evenodd">
        <g id="DIP-Result---Accept---Mobile" transform="translate(-268.000000, -11.000000)">
            <g id="Log-in-icon" transform="translate(268.000000, 11.000000)">
                <g id="icon">
                    <path d="M21,13.3 L19.9,13.3 L19.9,8.5 C19.9,6.6 18.3,5 16.4,5 L15.6,5 C13.6,5 12.1,6.6 12.1,8.5 L12.1,13.3 L11,13.3 C9.9,13.3 9,14.2 9,15.3 L9,23 C9,24.1 9.9,25 11,25 L21,25 C22.1,25 23,24.1 23,23 L23,15.3 C23,14.2 22.1,13.3 21,13.3 Z M17.2,20.5 C17.2,21.1 16.8,21.5 16.2,21.5 L15.8,21.5 C15.2,21.5 14.8,21.1 14.8,20.5 L14.8,17.8 C14.8,17.2 15.2,16.8 15.8,16.8 L16.1,16.8 C16.7,16.8 17.1,17.2 17.1,17.8 L17.1,20.5 L17.2,20.5 Z M17.9,13.3 L14.1,13.3 L14.1,8.5 C14.1,7.7 14.8,7 15.6,7 L16.4,7 C17.2,7 17.9,7.7 17.9,8.5 L17.9,13.3 L17.9,13.3 Z" id="Shape" fill="#002979" fill-rule="nonzero"></path>
                    <circle id="Oval" stroke="#002979" stroke-width="2" cx="16" cy="16" r="15"></circle>
                </g>
                <path d="M6.46679688,43 C6.58789062,43 6.68164062,42.9697266 6.74804688,42.9091797 C6.81445312,42.8486328 6.84765625,42.7558594 6.84765625,42.6308594 L6.84765625,42.6308594 L6.84765625,41.8867188 C6.84765625,41.7617188 6.81445312,41.6679688 6.74804688,41.6054688 C6.68164062,41.5429688 6.58789062,41.5117188 6.46679688,41.5117188 L6.46679688,41.5117188 L3.94726562,41.5117188 L3.94726562,35.3652344 C3.94726562,35.2402344 3.91308594,35.1474609 3.84472656,35.0869141 C3.77636719,35.0263672 3.68164062,34.9960938 3.56054688,34.9960938 L3.56054688,34.9960938 L2.6875,34.9960938 C2.5625,34.9960938 2.46875,35.0302734 2.40625,35.0986328 C2.34375,35.1669922 2.3125,35.2617188 2.3125,35.3828125 L2.3125,35.3828125 L2.3125,42.6132812 C2.3125,42.734375 2.34375,42.8291016 2.40625,42.8974609 C2.46875,42.9658203 2.5625,43 2.6875,43 L2.6875,43 L6.46679688,43 Z M9.98242188,43.09375 C10.4355469,43.09375 10.8222656,43.0068359 11.1425781,42.8330078 C11.4628906,42.6591797 11.7255859,42.4296875 11.9306641,42.1445312 C12.1357422,41.859375 12.2861328,41.5361328 12.3818359,41.1748047 C12.4775391,40.8134766 12.5253906,40.4453125 12.5253906,40.0703125 C12.5253906,39.8242188 12.5048828,39.5791016 12.4638672,39.3349609 C12.4228516,39.0908203 12.3583984,38.8574219 12.2705078,38.6347656 C12.1826172,38.4121094 12.0703125,38.2060547 11.9335938,38.0166016 C11.796875,37.8271484 11.6347656,37.6621094 11.4472656,37.5214844 C11.2597656,37.3808594 11.0439453,37.2705078 10.7998047,37.1904297 C10.5556641,37.1103516 10.2832031,37.0703125 9.98242188,37.0703125 C9.53710938,37.0703125 9.15429688,37.1572266 8.83398438,37.3310547 C8.51367188,37.5048828 8.25097656,37.7324219 8.04589844,38.0136719 C7.84082031,38.2949219 7.69042969,38.6152344 7.59472656,38.9746094 C7.49902344,39.3339844 7.45117188,39.6992188 7.45117188,40.0703125 C7.45117188,40.4492188 7.49902344,40.8193359 7.59472656,41.1806641 C7.69042969,41.5419922 7.84082031,41.8642578 8.04589844,42.1474609 C8.25097656,42.4306641 8.51367188,42.6591797 8.83398438,42.8330078 C9.15429688,43.0068359 9.53710938,43.09375 9.98242188,43.09375 Z M9.98242188,41.7519531 C9.79882812,41.7519531 9.6484375,41.7050781 9.53125,41.6113281 C9.4140625,41.5175781 9.32226562,41.3925781 9.25585938,41.2363281 C9.18945312,41.0800781 9.14355469,40.9023438 9.11816406,40.703125 C9.09277344,40.5039062 9.08007812,40.3007812 9.08007812,40.09375 C9.08007812,39.8789062 9.09277344,39.6708984 9.11816406,39.4697266 C9.14355469,39.2685547 9.18945312,39.0898438 9.25585938,38.9335938 C9.32226562,38.7773438 9.4140625,38.6523438 9.53125,38.5585938 C9.6484375,38.4648438 9.79882812,38.4179688 9.98242188,38.4179688 C10.1699219,38.4179688 10.3232422,38.4648438 10.4423828,38.5585938 C10.5615234,38.6523438 10.6542969,38.7773438 10.7207031,38.9335938 C10.7871094,39.0898438 10.8320312,39.2685547 10.8554688,39.4697266 C10.8789062,39.6708984 10.890625,39.8789062 10.890625,40.09375 C10.890625,40.3007812 10.8789062,40.5039062 10.8554688,40.703125 C10.8320312,40.9023438 10.7871094,41.0800781 10.7207031,41.2363281 C10.6542969,41.3925781 10.5615234,41.5175781 10.4423828,41.6113281 C10.3232422,41.7050781 10.1699219,41.7519531 9.98242188,41.7519531 Z M15.859375,45.1855469 C16.3203125,45.1855469 16.703125,45.1328125 17.0078125,45.0273438 C17.3125,44.921875 17.5556641,44.7714844 17.7373047,44.5761719 C17.9189453,44.3808594 18.046875,44.1464844 18.1210938,43.8730469 C18.1953125,43.5996094 18.2324219,43.2929688 18.2324219,42.953125 L18.2324219,42.953125 L18.2324219,37.5859375 C18.2324219,37.4492188 18.2041016,37.3457031 18.1474609,37.2753906 C18.0908203,37.2050781 17.9960938,37.1699219 17.8632812,37.1699219 L17.8632812,37.1699219 L17.1894531,37.1699219 C17.0253906,37.1699219 16.9150391,37.2070312 16.8583984,37.28125 C16.8017578,37.3554688 16.7734375,37.4609375 16.7734375,37.5976562 L16.7734375,37.5976562 L16.7734375,37.7558594 C16.6523438,37.5488281 16.4775391,37.3828125 16.2490234,37.2578125 C16.0205078,37.1328125 15.7578125,37.0703125 15.4609375,37.0703125 C15.203125,37.0703125 14.9707031,37.1103516 14.7636719,37.1904297 C14.5566406,37.2705078 14.3720703,37.3798828 14.2099609,37.5185547 C14.0478516,37.6572266 13.9082031,37.8203125 13.7910156,38.0078125 C13.6738281,38.1953125 13.5771484,38.3955078 13.5009766,38.6083984 C13.4248047,38.8212891 13.3691406,39.0429688 13.3339844,39.2734375 C13.2988281,39.5039062 13.28125,39.7304688 13.28125,39.953125 C13.28125,40.359375 13.3251953,40.7412109 13.4130859,41.0986328 C13.5009766,41.4560547 13.6347656,41.7685547 13.8144531,42.0361328 C13.9941406,42.3037109 14.2216797,42.515625 14.4970703,42.671875 C14.7724609,42.828125 15.0976562,42.90625 15.4726562,42.90625 C15.578125,42.90625 15.6875,42.890625 15.8007812,42.859375 C15.9140625,42.828125 16.0244141,42.7851562 16.1318359,42.7304688 C16.2392578,42.6757812 16.3398438,42.6113281 16.4335938,42.5371094 C16.5273438,42.4628906 16.6074219,42.3808594 16.6738281,42.2910156 L16.6738281,42.2910156 L16.6738281,42.9882812 C16.6738281,43.1171875 16.6582031,43.2363281 16.6269531,43.3457031 C16.5957031,43.4550781 16.5449219,43.5507812 16.4746094,43.6328125 C16.4042969,43.7148438 16.3134766,43.7783203 16.2021484,43.8232422 C16.0908203,43.8681641 15.9570312,43.890625 15.8007812,43.890625 C15.4960938,43.890625 15.2236328,43.8544922 14.9833984,43.7822266 C14.7431641,43.7099609 14.5234375,43.625 14.3242188,43.5273438 C14.2226562,43.4804688 14.1376953,43.4716797 14.0693359,43.5009766 C14.0009766,43.5302734 13.9492188,43.5878906 13.9140625,43.6738281 L13.9140625,43.6738281 L13.5917969,44.4296875 C13.5683594,44.4882812 13.5566406,44.5351562 13.5566406,44.5703125 C13.5566406,44.6328125 13.5712891,44.6796875 13.6005859,44.7109375 C13.6298828,44.7421875 13.6660156,44.7675781 13.7089844,44.7871094 C13.8105469,44.8339844 13.9384766,44.8808594 14.0927734,44.9277344 C14.2470703,44.9746094 14.4189453,45.0166016 14.6083984,45.0537109 C14.7978516,45.0908203 14.9990234,45.1220703 15.2119141,45.1474609 C15.4248047,45.1728516 15.640625,45.1855469 15.859375,45.1855469 Z M15.7480469,41.5703125 C15.6308594,41.5703125 15.5205078,41.546875 15.4169922,41.5 C15.3134766,41.453125 15.2246094,41.3701172 15.1503906,41.2509766 C15.0761719,41.1318359 15.0175781,40.9677734 14.9746094,40.7587891 C14.9316406,40.5498047 14.9101562,40.28125 14.9101562,39.953125 C14.9101562,39.7539062 14.9228516,39.5605469 14.9482422,39.3730469 C14.9736328,39.1855469 15.0175781,39.0205078 15.0800781,38.8779297 C15.1425781,38.7353516 15.2275391,38.6210938 15.3349609,38.5351562 C15.4423828,38.4492188 15.5761719,38.40625 15.7363281,38.40625 C16.0214844,38.40625 16.2490234,38.5332031 16.4189453,38.7871094 C16.5888672,39.0410156 16.6738281,39.4492188 16.6738281,40.0117188 C16.6738281,40.2421875 16.6552734,40.453125 16.6181641,40.6445312 C16.5810547,40.8359375 16.5244141,41 16.4482422,41.1367188 C16.3720703,41.2734375 16.2753906,41.3798828 16.1582031,41.4560547 C16.0410156,41.5322266 15.9042969,41.5703125 15.7480469,41.5703125 Z M23.2070312,36.4140625 C23.3242188,36.4140625 23.4345703,36.3916016 23.5380859,36.3466797 C23.6416016,36.3017578 23.7314453,36.2402344 23.8076172,36.1621094 C23.8837891,36.0839844 23.9443359,35.9931641 23.9892578,35.8896484 C24.0341797,35.7861328 24.0566406,35.6757812 24.0566406,35.5585938 C24.0566406,35.4414062 24.0341797,35.3310547 23.9892578,35.2275391 C23.9443359,35.1240234 23.8837891,35.0341797 23.8076172,34.9580078 C23.7314453,34.8818359 23.6416016,34.8212891 23.5380859,34.7763672 C23.4345703,34.7314453 23.3242188,34.7089844 23.2070312,34.7089844 C23.0898438,34.7089844 22.9794922,34.7314453 22.8759766,34.7763672 C22.7724609,34.8212891 22.6816406,34.8818359 22.6035156,34.9580078 C22.5253906,35.0341797 22.4638672,35.1240234 22.4189453,35.2275391 C22.3740234,35.3310547 22.3515625,35.4414062 22.3515625,35.5585938 C22.3515625,35.6757812 22.3740234,35.7861328 22.4189453,35.8896484 C22.4638672,35.9931641 22.5253906,36.0839844 22.6035156,36.1621094 C22.6816406,36.2402344 22.7724609,36.3017578 22.8759766,36.3466797 C22.9794922,36.3916016 23.0898438,36.4140625 23.2070312,36.4140625 Z M23.5644531,43 C23.7285156,43 23.8398438,42.9648438 23.8984375,42.8945312 C23.9570312,42.8242188 23.9863281,42.7226562 23.9863281,42.5898438 L23.9863281,42.5898438 L23.9863281,37.5507812 C23.9863281,37.4296875 23.9560547,37.3359375 23.8955078,37.2695312 C23.8349609,37.203125 23.7285156,37.1699219 23.5761719,37.1699219 L23.5761719,37.1699219 L22.8085938,37.1699219 C22.5546875,37.1699219 22.4277344,37.3007812 22.4277344,37.5625 L22.4277344,37.5625 L22.4277344,42.6015625 C22.4277344,42.7265625 22.4580078,42.8242188 22.5185547,42.8945312 C22.5791016,42.9648438 22.6835938,43 22.8320312,43 L22.8320312,43 L23.5644531,43 Z M26.4355469,43 C26.5996094,43 26.7109375,42.9648438 26.7695312,42.8945312 C26.828125,42.8242188 26.8574219,42.7226562 26.8574219,42.5898438 L26.8574219,42.5898438 L26.8574219,39.7011719 C26.8574219,39.5917969 26.8623047,39.4980469 26.8720703,39.4199219 C26.8818359,39.3417969 26.8984375,39.2714844 26.921875,39.2089844 C26.9453125,39.1464844 26.9755859,39.0878906 27.0126953,39.0332031 C27.0498047,38.9785156 27.0976562,38.9199219 27.15625,38.8574219 C27.265625,38.7363281 27.3886719,38.640625 27.5253906,38.5703125 C27.6621094,38.5 27.7988281,38.4648438 27.9355469,38.4648438 C28.0683594,38.4648438 28.1777344,38.5097656 28.2636719,38.5996094 C28.3496094,38.6894531 28.3925781,38.8359375 28.3925781,39.0390625 L28.3925781,39.0390625 L28.3925781,42.6015625 C28.3925781,42.7265625 28.4228516,42.8242188 28.4833984,42.8945312 C28.5439453,42.9648438 28.6367188,43 28.7617188,43 L28.7617188,43 L29.5703125,43 C29.7070312,43 29.8046875,42.9658203 29.8632812,42.8974609 C29.921875,42.8291016 29.9511719,42.734375 29.9511719,42.6132812 L29.9511719,42.6132812 L29.9511719,38.7167969 C29.9511719,37.6191406 29.4667969,37.0703125 28.4980469,37.0703125 C28.2753906,37.0703125 28.0732422,37.0996094 27.8916016,37.1582031 C27.7099609,37.2167969 27.546875,37.2900391 27.4023438,37.3779297 C27.2578125,37.4658203 27.1328125,37.5595703 27.0273438,37.6591797 C26.921875,37.7587891 26.8320312,37.8515625 26.7578125,37.9375 L26.7578125,37.9375 L26.7578125,37.5507812 C26.7578125,37.4296875 26.7275391,37.3359375 26.6669922,37.2695312 C26.6064453,37.203125 26.5019531,37.1699219 26.3535156,37.1699219 L26.3535156,37.1699219 L25.6796875,37.1699219 C25.4257812,37.1699219 25.2988281,37.3007812 25.2988281,37.5625 L25.2988281,37.5625 L25.2988281,42.6015625 C25.2988281,42.7265625 25.3291016,42.8242188 25.3896484,42.8945312 C25.4501953,42.9648438 25.5546875,43 25.703125,43 L25.703125,43 L26.4355469,43 Z" id="Login" fill="#002979" fill-rule="nonzero"></path>
            </g>
        </g>
    </g>
</svg>