<svg width="40" height="40" viewBox="0 0 40 40" fill="none" xmlns="http://www.w3.org/2000/svg">
<path fill-rule="evenodd" clip-rule="evenodd" d="M39.9997 35.216V30.4327H0V35.216C0 37.8471 2.50665 40.0004 5.56995 40.0004H34.4308C37.493 40.0004 39.9997 37.8471 39.9997 35.216" fill="#E20613"/>
<path fill-rule="evenodd" clip-rule="evenodd" d="M34.431 30.4331H6.61458H2.62239H0.0013001V5.56995C0.0013001 2.50553 2.39461 0 5.32237 0H16.2145H23.8444H34.6788C37.6032 0 39.9987 2.50553 39.9999 5.56995V30.4331H35.0777H34.431Z" fill="#002979"/>
<path fill-rule="evenodd" clip-rule="evenodd" d="M29.6525 29.3209C30.3903 29.3209 31.1325 29.0186 31.687 28.492C32.2681 27.9409 32.6003 27.1842 32.6003 26.4164V19.4076C32.6003 18.5743 32.2992 17.8521 31.7092 17.2621L27.7892 13.341C27.6325 13.1921 27.5325 12.9832 27.5325 12.7488V8.4966C27.5325 7.75994 27.2403 7.0655 26.7092 6.54217C26.1837 6.02328 25.4915 5.73662 24.7581 5.73662H21.6782C20.1715 5.73662 18.9471 6.97439 18.9471 8.4966V8.72882C18.9415 8.87881 18.8193 8.9977 18.6693 8.9977V8.99881H18.2082C17.6826 8.99881 17.1404 9.20659 16.7226 9.57103C16.4804 9.78436 16.2904 10.0388 16.1615 10.3166C15.8726 10.2877 15.5571 10.2732 15.2949 10.2732C10.9649 10.2732 6.40717 13.5999 6.40717 19.2987C6.40717 24.1298 10.4482 26.2464 10.6682 26.4009C10.8194 26.5098 11.1605 26.7598 11.1605 27.1887V29.8286C11.1605 30.5897 11.4638 31.2986 12.0105 31.8275C12.5427 32.3397 13.2471 32.6219 13.996 32.6219L24.8192 32.6208C25.5681 32.6208 26.2192 32.3886 26.7026 31.9508C27.2203 31.4808 27.5037 30.7975 27.5037 30.0242V29.5986C27.5037 29.4442 27.6292 29.3209 27.7814 29.3209H29.6525Z" fill="white"/>
<path fill-rule="evenodd" clip-rule="evenodd" d="M26.8151 24.7962V23.4485C26.8151 23.0907 26.5251 22.7996 26.1673 22.7996C25.8096 22.7996 25.5173 23.0907 25.5173 23.4485V24.7962C25.5173 25.1551 25.8096 25.4451 26.1673 25.4451C26.5251 25.4451 26.8151 25.1551 26.8151 24.7962M30.7673 18.2218L26.6518 14.1041C26.4062 13.8452 26.2262 13.5052 26.2262 13.1297V8.4986C26.2262 7.69638 25.5507 7.0375 24.7507 7.0375H21.8285C21.0285 7.0375 20.3885 7.68194 20.3885 8.48193V9.87969C20.3885 10.0464 20.2674 10.343 19.9096 10.343H18.3552C17.9174 10.343 17.463 10.6764 17.4185 11.1586C17.3841 11.5352 17.2585 11.833 16.6085 11.7175C16.6019 11.7152 16.593 11.7141 16.5841 11.713C16.5696 11.7097 16.5563 11.7075 16.5396 11.703L16.5408 11.7052C16.0919 11.6197 15.6263 11.5752 15.1497 11.5752C11.0386 11.5752 7.70527 14.9085 7.70527 19.0218C7.70527 21.4985 8.91304 23.6918 10.7764 25.0462L10.7797 25.0485C10.8808 25.1196 11.003 25.1629 11.1364 25.1629C11.3475 25.1629 11.5352 25.0529 11.6441 24.8896H11.6452L15.863 18.6052C15.863 18.6052 16.303 17.9374 17.0985 17.9374H21.9596C22.2163 17.9374 22.4251 17.7307 22.4251 17.473C22.4251 17.4341 22.4196 17.3941 22.4085 17.3585H22.4096C21.9396 15.2974 20.6152 13.5619 18.8285 12.5452C18.6785 12.4652 18.5763 12.3086 18.5763 12.1263C18.5763 11.863 18.7896 11.6508 19.0518 11.6508H19.053H20.634C21.2107 11.6508 21.6963 11.1819 21.6963 10.5908V8.79859C21.6963 8.5286 21.9118 8.33415 22.1618 8.33415H24.4762C24.7162 8.33415 24.924 8.53415 24.924 8.79859V18.7618C24.924 19.0018 25.1107 19.2307 25.3885 19.2307H29.534C29.8395 19.2307 29.9984 19.4907 29.9984 19.6963V26.2996C29.9984 26.534 29.8317 26.7629 29.5284 26.7629H25.9073C25.2873 26.7618 24.8862 27.2818 24.8862 27.7795V29.5562C24.8862 29.8406 24.6562 30.0195 24.4207 30.0195H20.4152V28.0529C20.4152 27.694 20.1252 27.4062 19.7663 27.4062C19.4085 27.4062 19.1174 27.694 19.1174 28.0529V30.0195H14.2274C13.9974 30.0195 13.763 29.8517 13.763 29.5562V26.5729C13.763 26.3007 13.9863 26.1096 14.2274 26.1096H19.8885C20.1674 26.1096 20.3985 25.7751 20.3985 25.7751L24.2951 19.9596C24.5151 19.6174 24.2085 19.2385 23.9307 19.2385H17.2863C17.023 19.2385 16.9107 19.4152 16.7819 19.6196L12.7908 25.5618C12.7908 25.5618 12.4663 26.0262 12.4663 26.5729V29.8295C12.4663 30.6729 13.1574 31.3251 14.0008 31.3251L25.124 31.324C25.6207 31.324 26.1884 30.9351 26.1884 30.2651V28.5218C26.1884 28.324 26.3362 28.0595 26.6518 28.0595H29.6418C30.4851 28.0595 31.2928 27.3318 31.2928 26.4518V19.4496C31.2928 18.9118 31.0729 18.5252 30.7673 18.2218" fill="#002979"/>
</svg>
