<svg width="140" height="56" viewBox="0 0 140 56" fill="none" xmlns="http://www.w3.org/2000/svg">
<path fill-rule="evenodd" clip-rule="evenodd" d="M27.1653 27.4957H25.4445C25.42 27.4957 25.3967 27.5027 25.3745 27.5097C25.2695 27.5412 25.1902 27.6369 25.1902 27.7536V27.7629V28.1479C25.1902 28.863 24.9277 29.4965 24.4517 29.9317C24.0072 30.3389 23.4087 30.5524 22.7204 30.5524L12.7652 30.5535C12.0769 30.5535 11.4282 30.2922 10.9394 29.8174C10.4366 29.3285 10.1589 28.6717 10.1589 27.9659V27.7629V27.5097V27.4957H0.000816345V27.5097V27.7629V31.8089C0.000816345 34.4887 2.1778 36.6808 4.83779 36.6808H135.162C137.823 36.6808 140 34.4887 140 31.8089V27.7629V27.5097V27.4957H27.1653Z" fill="#ED0B14"/>
<path fill-rule="evenodd" clip-rule="evenodd" d="M4.83814 0C2.17699 0 0 2.19215 0 4.87197V27.4958H10.1593V25.5207C10.1593 25.1252 9.84428 24.8919 9.70428 24.7927C9.50244 24.6492 5.78547 22.688 5.78547 18.2139C5.78547 12.9348 9.97727 9.85361 13.9603 9.85361C14.2017 9.85361 14.4911 9.86644 14.7582 9.89327C14.8761 9.63544 15.0511 9.39978 15.2739 9.20378C15.6566 8.86661 16.1559 8.67295 16.6401 8.67295H17.0624C17.2024 8.67178 17.3144 8.56095 17.3191 8.42212V8.20745C17.3191 6.79929 18.4461 5.6513 19.8321 5.6513H22.6635C23.3379 5.6513 23.9749 5.91613 24.4579 6.3968C24.9467 6.88213 25.2162 7.52496 25.2162 8.20745V12.1461C25.2162 12.3631 25.306 12.5579 25.4519 12.6944L29.0568 16.3274C29.6005 16.8734 29.877 17.5419 29.877 18.3154V24.8067C29.877 25.5172 29.5702 26.2172 29.037 26.727C28.526 27.2158 27.8435 27.4958 27.1657 27.4958H139.999V4.87197C139.999 2.19215 137.822 0 135.162 0H4.83814Z" fill="#002979"/>
<path fill-rule="evenodd" clip-rule="evenodd" d="M40.6155 48.5395C40.1617 48.2723 39.5818 48.1766 38.9402 48.1766H37.672V51.7256H39.0498C40.2865 51.7256 41.368 51.4888 41.368 50.0223C41.368 49.5813 41.2887 48.9501 40.6155 48.5395M39.2692 43.9498H37.672V46.8373H38.6264C39.2377 46.8373 39.6915 46.7731 40.0835 46.632C40.584 46.4581 41.0857 46.0801 41.0857 45.3382C41.0857 44.392 40.381 43.9498 39.2692 43.9498M39.065 53.1291H36.4972C36.1997 53.1291 36.0737 52.9716 36.0737 52.7033V43.0352C36.0737 42.7517 36.1997 42.6093 36.4972 42.6093H39.2377C41.0857 42.6093 42.6665 43.2242 42.6665 45.1177C42.6665 46.3321 42.0097 47.0415 40.9445 47.4206C42.2127 47.7671 43.0585 48.5873 43.0585 50.0701C43.0585 52.3883 41.3832 53.1291 39.065 53.1291M49.7901 53.1291H49.2266C48.8813 53.1291 48.788 52.9716 48.788 52.7033V51.9309C48.2081 52.6403 47.3938 53.2551 46.345 53.2551C44.9823 53.2551 44.3873 52.4349 44.3873 51.0945V45.89C44.3873 45.6065 44.5285 45.4642 44.8096 45.4642H45.4991C45.7815 45.4642 45.9063 45.6228 45.9063 45.9063V50.7316C45.9063 51.4421 46.1093 51.8994 46.7206 51.8994C47.3623 51.8994 47.8955 51.4888 48.3341 50.9685C48.6153 50.6371 48.6935 50.433 48.6935 49.8648V45.9215C48.6935 45.6228 48.788 45.4642 49.1473 45.4642H49.7586C50.0876 45.4642 50.1973 45.6228 50.1973 45.9063V52.6881C50.1973 52.9879 50.0713 53.1291 49.7901 53.1291M53.4068 53.1291H52.8129C52.4676 53.1291 52.3579 52.9716 52.3579 52.6881V45.9063C52.3579 45.6065 52.4991 45.4642 52.7814 45.4642H53.4231C53.7673 45.4642 53.8769 45.6228 53.8769 45.89V52.6718C53.8769 52.9716 53.7836 53.1291 53.4068 53.1291M53.1093 44.1085C52.6239 44.1085 52.2168 43.7142 52.2168 43.209C52.2168 42.7202 52.6239 42.3107 53.1093 42.3107C53.6109 42.3107 54.0029 42.7202 54.0029 43.209C54.0029 43.7142 53.6109 44.1085 53.1093 44.1085M57.1027 53.1291H56.5077C56.1636 53.1291 56.0539 52.9716 56.0539 52.6881V42.831C56.0539 42.5312 56.1951 42.39 56.4762 42.39H57.1191C57.4632 42.39 57.5729 42.5463 57.5729 42.8147V52.6718C57.5729 52.9716 57.4784 53.1291 57.1027 53.1291M62.334 46.6635C60.9866 46.6635 60.7836 48.3353 60.7836 49.3445C60.7836 50.5905 61.1277 51.9309 62.2559 51.9309C63.4144 51.9309 63.9779 50.748 63.9779 49.3911C63.9779 47.6726 63.3362 46.6635 62.334 46.6635M65.0745 53.1291H64.5414C64.182 53.1291 64.0724 52.9716 64.0724 52.6881V52.1514C63.664 52.7663 62.992 53.2551 62.0365 53.2551C59.9062 53.2551 59.2167 51.189 59.2167 49.3281C59.2167 47.1675 60.1407 45.3382 62.0517 45.3382C63.0387 45.3382 63.6325 45.8585 63.9779 46.3321V42.831C63.9779 42.5312 64.0875 42.39 64.448 42.39H65.043C65.372 42.39 65.4969 42.5463 65.4969 42.8462V52.6881C65.4969 52.9716 65.372 53.1291 65.0745 53.1291M68.6912 53.1291H68.0962C67.7508 53.1291 67.6423 52.9716 67.6423 52.6881V45.9063C67.6423 45.6065 67.7823 45.4642 68.0647 45.4642H68.7075C69.0517 45.4642 69.1613 45.6228 69.1613 45.89V52.6718C69.1613 52.9716 69.0668 53.1291 68.6912 53.1291M68.3937 44.1085C67.9083 44.1085 67.5012 43.7142 67.5012 43.209C67.5012 42.7202 67.9083 42.3107 68.3937 42.3107C68.8953 42.3107 69.2862 42.7202 69.2862 43.209C69.2862 43.7142 68.8953 44.1085 68.3937 44.1085M76.7096 53.1291H76.0038C75.739 53.1291 75.6141 52.9716 75.6141 52.6881V47.8616C75.6141 47.1523 75.3936 46.695 74.7986 46.695C74.157 46.695 73.6238 47.1045 73.1851 47.6248C72.8888 47.9561 72.8258 48.1615 72.8258 48.7296V52.6718C72.8258 52.9716 72.7325 53.1291 72.3557 53.1291H71.7607C71.4165 53.1291 71.3057 52.9716 71.3057 52.6881V45.9063C71.3057 45.6065 71.4468 45.4642 71.7292 45.4642H72.2927C72.6217 45.4642 72.7325 45.6228 72.7325 45.89V46.6635C73.3111 45.953 74.1255 45.3382 75.1755 45.3382C76.537 45.3382 77.1168 46.1583 77.1168 47.4988V52.7033C77.1168 52.9879 76.9768 53.1291 76.7096 53.1291M81.7671 46.6635C80.7498 46.6635 80.2796 47.7508 80.2796 49.1228C80.2796 50.8425 80.8431 51.6778 81.7834 51.6778C82.7844 51.6778 83.3643 50.5111 83.3643 49.2021C83.3643 47.6563 82.6911 46.6635 81.7671 46.6635M81.9234 56.0003C80.7801 56.0003 79.8409 55.6841 79.3229 55.4321C79.2133 55.3843 79.1048 55.3049 79.1048 55.1638C79.1048 55.1159 79.1199 55.0529 79.1514 54.9899L79.4641 54.3121C79.5586 54.1231 79.7313 54.0753 79.9658 54.1861C80.4359 54.4544 81.0939 54.7064 81.8768 54.7064C83.0201 54.7064 83.3643 54.0438 83.3643 53.1128V51.9928C83.0353 52.4513 82.3458 53.0031 81.5466 53.0031C79.5901 53.0031 78.714 51.252 78.714 49.1228C78.714 47.3565 79.5119 45.3382 81.5793 45.3382C82.4869 45.3382 83.1928 45.9378 83.4576 46.4418V45.953C83.4576 45.6228 83.5521 45.4642 83.9126 45.4642H84.4761C84.7572 45.4642 84.8669 45.6228 84.8669 45.9378V53.0661C84.8669 54.8488 84.2416 56.0003 81.9234 56.0003M93.4034 53.3508C92.1492 53.3508 91.1167 52.8923 90.3805 52.4513C90.2697 52.3883 90.1764 52.3089 90.1764 52.2144C90.1764 52.1514 90.2067 52.0569 90.2546 51.9776L90.6617 51.189C90.7714 51 90.9429 51 91.147 51.1108C91.602 51.3791 92.5097 51.9146 93.3555 51.9146C94.4989 51.9146 95.1254 51.2998 95.1254 50.433C95.1254 49.4856 94.5455 49.0598 93.3555 48.571C91.3349 47.7356 90.3175 47.0263 90.3175 45.2903C90.3175 43.398 91.7735 42.39 93.4967 42.39C94.7964 42.39 95.6107 42.7517 96.299 43.146C96.4402 43.209 96.4868 43.2883 96.4868 43.3665C96.4868 43.4295 96.4565 43.5088 96.4238 43.5718L96.0482 44.3442C95.9549 44.5332 95.7834 44.581 95.5944 44.4865C94.9212 44.1085 94.2947 43.8238 93.4967 43.8238C92.54 43.8238 91.8832 44.2975 91.8832 45.1177C91.8832 46.0323 92.4152 46.3951 93.9972 47.0566C95.5629 47.7193 96.691 48.3353 96.691 50.2276C96.691 52.2774 95.312 53.3508 93.4034 53.3508M100.949 46.6786C99.666 46.6786 99.3522 48.0821 99.3522 49.313C99.3522 50.5111 99.6812 51.9146 100.949 51.9146C102.265 51.9146 102.563 50.4948 102.563 49.313C102.563 48.0821 102.265 46.6786 100.949 46.6786M100.949 53.2551C98.6953 53.2551 97.7865 51.252 97.7865 49.2815C97.7865 47.325 98.7105 45.3382 100.949 45.3382C103.252 45.3382 104.146 47.3728 104.146 49.2815C104.146 51.2053 103.269 53.2551 100.949 53.2551M110.925 52.6088C110.377 52.9564 109.546 53.2551 108.482 53.2551C106.837 53.2551 105.318 52.1514 105.318 49.2021C105.318 47.0566 106.431 45.3382 108.529 45.3382C109.345 45.3382 110.127 45.5587 110.691 45.89C110.816 45.9693 110.879 46.0475 110.879 46.1583C110.879 46.2365 110.847 46.3473 110.801 46.4418L110.503 47.01C110.409 47.2001 110.236 47.2001 110.064 47.1208C109.642 46.9155 109.157 46.6786 108.639 46.6786C107.261 46.6786 106.885 48.0985 106.885 49.313C106.885 50.5426 107.292 51.9146 108.608 51.9146C109.25 51.9146 109.845 51.6311 110.236 51.4258C110.487 51.2998 110.644 51.3149 110.738 51.4736L111.067 52.0884C111.113 52.1666 111.145 52.2308 111.145 52.3404C111.145 52.4198 111.082 52.5143 110.925 52.6088M113.697 53.1291H113.102C112.757 53.1291 112.649 52.9716 112.649 52.6881V45.9063C112.649 45.6065 112.79 45.4642 113.071 45.4642H113.714C114.058 45.4642 114.166 45.6228 114.166 45.89V52.6718C114.166 52.9716 114.073 53.1291 113.697 53.1291M113.4 44.1085C112.915 44.1085 112.507 43.7142 112.507 43.209C112.507 42.7202 112.915 42.3107 113.4 42.3107C113.902 42.3107 114.292 42.7202 114.292 43.209C114.292 43.7142 113.902 44.1085 113.4 44.1085M119.006 46.6156C118.035 46.6156 117.565 47.4206 117.487 48.4613H120.368C120.337 47.4988 120.008 46.6156 119.006 46.6156M121.557 49.6116H117.455V49.7225C117.487 50.685 117.799 51.9461 119.147 51.9461C119.852 51.9461 120.462 51.6626 120.744 51.4888C120.995 51.3628 121.183 51.3149 121.308 51.5203L121.637 52.1199C121.683 52.2144 121.715 52.3089 121.715 52.3719C121.715 52.4664 121.652 52.5294 121.511 52.6239C120.947 52.9716 120.039 53.2551 119.131 53.2551C116.735 53.2551 115.89 51.3149 115.89 49.3596C115.89 47.3891 116.751 45.3382 119.069 45.3382C121.057 45.3382 121.934 46.9621 121.934 49.2185C121.934 49.4553 121.824 49.6116 121.557 49.6116M127.242 53.0498C126.913 53.1769 126.318 53.2551 125.802 53.2551C124.675 53.2551 123.97 52.7196 123.97 51.1575V46.7731H123.156C122.92 46.7731 122.811 46.632 122.811 46.4266V45.8118C122.811 45.5913 122.936 45.4642 123.156 45.4642H123.97V43.4773C123.97 43.1775 124.111 43.0352 124.392 43.0352H125.035C125.394 43.0352 125.49 43.1927 125.49 43.461V45.4642H126.71C126.913 45.4642 127.055 45.5913 127.055 45.8118V46.4266C127.055 46.632 126.946 46.7731 126.71 46.7731H125.49V51C125.49 51.6474 125.599 51.9776 126.147 51.9776C126.398 51.9776 126.679 51.8831 126.852 51.8201C127.055 51.7571 127.149 51.8038 127.212 52.0091L127.385 52.6881C127.415 52.7663 127.431 52.8456 127.431 52.8923C127.431 52.9564 127.368 53.0031 127.242 53.0498M134.255 45.9215L131.764 53.3974C131.217 55.0378 130.685 56.0003 129.103 56.0003C128.696 56.0003 128.335 55.9046 128.148 55.8264C128.038 55.7949 127.991 55.7471 127.991 55.6526C127.975 55.5896 128.006 55.4951 128.022 55.4473L128.241 54.7379C128.272 54.6119 128.367 54.5641 128.493 54.5956C128.681 54.6434 128.946 54.7216 129.181 54.7216C129.808 54.7216 130.042 54.0589 130.34 53.1921L130.371 53.1291L127.945 45.89C127.913 45.8118 127.897 45.6858 127.897 45.6228C127.897 45.5272 128.006 45.4642 128.148 45.4642H129.135C129.353 45.4642 129.447 45.5587 129.51 45.7803L131.154 51.0793L132.814 45.7803C132.892 45.5587 132.987 45.4642 133.19 45.4642H134.067C134.224 45.4642 134.318 45.5272 134.318 45.6228C134.318 45.6858 134.287 45.827 134.255 45.9215" fill="#002979"/>
<path fill-rule="evenodd" clip-rule="evenodd" d="M44.0876 9.13506H49.1847V10.1477H48.9841C48.1639 10.1477 47.7672 10.4861 47.7672 11.2152V25.5441H46.6799C46.6799 25.5441 38.6638 14.6802 38.0105 13.7924V23.2248C38.0105 23.5725 38.6381 24.1045 39.1865 24.1045H39.7138V25.1031H34.395V24.1453H34.5887C34.9177 24.1453 35.9711 24.059 35.9711 23.2248V11.3949C35.8906 11.2969 34.9363 10.1606 34.8325 10.0451H34.4708V9.12106H39.1013H39.2098C39.2098 9.12106 45.1318 17.3647 45.7711 18.2502V11.2152C45.7711 10.6004 45.1854 10.1477 44.7888 10.1477H44.0876V9.13506ZM55.2397 22.5855C54.9329 23.1595 54.2702 23.4138 53.996 23.4138C53.667 23.4138 53.0907 23.1443 53.0907 22.071C53.0907 21.0292 54.0217 20.0002 55.2397 19.5988V22.5855ZM58.77 23.5725C58.6148 23.5176 58.4667 23.3811 58.4667 23.2248V16.8584C58.4667 15.0652 56.6945 13.8659 54.0789 13.8659C51.7922 13.8659 50.6151 14.7047 50.1169 15.2087L50.0702 15.2647V18.5652H50.9429L50.9814 18.3995C51.5916 15.5494 53.1969 15.2822 53.856 15.2892C54.423 15.3079 55.2642 15.8247 55.2642 16.4885V18.053C51.5052 19.1158 49.6712 20.713 49.6712 22.9471C49.6712 24.4685 50.7609 25.4951 52.3895 25.4951C53.4419 25.4951 54.423 25.088 55.3879 24.3063C55.5862 24.9585 56.3387 25.4566 57.2615 25.4566C58.1132 25.4566 58.8668 25.0401 59.3942 24.2783L59.4303 24.2398V23.1186L59.0768 23.5421C59.0092 23.6296 58.8738 23.6156 58.77 23.5725V23.5725ZM64.2953 14.1517H66.26V15.4887H64.2953V22.659C64.2953 22.9075 64.447 23.1443 64.6955 23.3053C64.9953 23.4733 65.35 23.4943 65.6381 23.3485L65.9286 23.2061V24.1348L65.8936 24.1815C65.1761 25.1883 64.4785 25.382 63.4425 25.382C62.2618 25.382 61.0882 24.5245 61.0882 22.8923V15.5097H59.9938V14.5145L60.072 14.4562C61.5163 13.3782 62.7483 11.4497 63.4052 10.4242L63.4985 10.2831H64.1005H64.2953V14.1517ZM69.5616 12.6572C70.5801 12.6572 71.4143 11.8242 71.4143 10.7871C71.4143 9.75573 70.5801 8.91807 69.5616 8.91807C68.5303 8.91807 67.7043 9.75573 67.7043 10.7871C67.7043 11.8242 68.5303 12.6572 69.5616 12.6572V12.6572ZM72.2134 24.1453V25.1323H66.8736V24.1663H67.0626C67.4838 24.1663 67.9493 23.8525 67.9493 23.3986V14.1517H71.0234H71.2299V23.4138C71.2299 23.9015 71.7316 24.1453 72.0244 24.1453H72.2134ZM77.7189 24.0006C77.1157 24.0006 76.2127 24.0006 76.2127 19.8368C76.2127 15.5984 76.9792 15.2495 77.6897 15.2495C78.3676 15.2495 79.1364 15.7722 79.1364 19.929C79.1364 24.0006 78.1436 24.0006 77.7189 24.0006V24.0006ZM77.6897 13.804C75.3412 13.804 72.7921 16.0149 72.7921 19.5883C72.7921 24.2141 76.0412 25.4251 77.7457 25.4251C79.6882 25.4251 82.5384 23.674 82.5384 19.9022C82.5384 16.4267 80.4594 13.804 77.6897 13.804V13.804ZM94.1653 24.1453H94.3613V25.1031H89.1195V24.1663H89.3213C89.6328 24.1663 90.0855 23.7953 90.0855 23.5375V17.1372C90.0855 16.2109 89.7635 15.736 89.1043 15.736C88.3437 15.736 87.5877 16.7125 87.5877 17.0439V23.3356C87.5877 23.8175 87.9388 24.1966 88.4113 24.1966H88.605V25.1031H83.1999V24.2141L83.3749 24.2036C83.8217 24.164 84.3094 23.8723 84.3094 23.3356V15.6812C84.3094 15.1702 83.7412 15.0652 83.7295 15.0652H83.2582V14.1447H87.5538V15.1224C88.2398 14.2824 89.1907 13.832 90.4868 13.832C92.3862 13.832 93.4233 15.5517 93.4233 17.1955V23.5048C93.4233 23.8816 93.5458 24.1453 94.1653 24.1453V24.1453ZM108.644 15.0069C108.31 15.0069 108.064 15.3172 107.8 16.0522L104.552 25.4018H103.487C103.487 25.4018 101.885 20.1413 101.599 19.1905C101.266 20.1355 99.3826 25.4018 99.3826 25.4018H98.2603L98.2159 25.2746C96.8463 21.4538 94.758 15.6695 94.632 15.4047C94.5211 15.211 94.2306 15.0652 94.1163 15.0244L94.0055 14.9754V14.1109H98.6709H98.8774V15.0372H98.6709C98.4458 15.0372 98.2474 15.1224 98.1518 15.2542C98.111 15.3487 98.0736 15.4292 98.0736 15.5237C98.0736 15.6695 98.1273 15.8247 98.1658 15.9449C98.4329 16.6075 99.3033 19.1252 99.6836 20.2113C99.9601 19.4495 100.893 16.9704 100.932 16.8479C100.893 16.7265 100.493 15.4047 100.493 15.4047C100.388 15.1154 100.03 15.0652 99.8108 15.0652H99.6159V14.1517H104.75V15.0372H104.542C104.218 15.0372 103.987 15.1224 103.857 15.2647C103.795 15.3522 103.775 15.4572 103.775 15.5494C103.775 15.603 103.781 15.645 103.793 15.6917C103.875 16.0615 104.58 18.8032 104.904 20.0608C105.313 18.8498 106.178 16.2599 106.32 15.736C106.343 15.6695 106.35 15.6147 106.35 15.5517C106.35 15.4677 106.32 15.3895 106.271 15.309C106.135 15.1224 105.83 15.0372 105.587 15.0372H105.397V14.1715H108.845V15.0069H108.644ZM111.248 12.6572C112.271 12.6572 113.108 11.8242 113.108 10.7871C113.108 9.75573 112.271 8.91807 111.248 8.91807C110.227 8.91807 109.395 9.75573 109.395 10.7871C109.395 11.8242 110.227 12.6572 111.248 12.6572V12.6572ZM113.91 24.1453V25.1323H108.565V24.1663H108.753C109.178 24.1663 109.64 23.8525 109.64 23.3986V14.1517H112.702H112.917V23.4138C112.917 23.9015 113.426 24.1453 113.709 24.1453H113.91ZM120.822 22.3662C120.822 22.7045 119.854 23.695 119.338 23.695C118.049 23.695 117.781 21.6113 117.781 19.8368C117.781 16.1012 118.585 15.603 119.387 15.603C120.176 15.603 120.748 16.7814 120.822 16.947V22.3662ZM124.039 23.2796V9.13506H123.839H119.264V10.0894H119.938C120.209 10.0894 120.851 10.3589 120.851 10.8501V14.7642C120.429 14.343 119.681 13.7807 118.561 13.7807C116.933 13.7807 114.377 15.4047 114.377 19.8147C114.377 24.2596 116.928 25.4251 118.274 25.4251C119.54 25.4251 120.314 24.9585 120.795 24.4393V25.1031H125.009V24.1966H124.81C124.362 24.1966 124.039 23.7148 124.039 23.2796V23.2796ZM128.91 18.2163C128.942 15.6812 129.416 15.169 130.208 15.169C131.224 15.169 131.33 16.4185 131.339 18.2163H128.91ZM134.214 19.5148C134.214 15.5494 132.149 13.7807 130.101 13.7807C128.549 13.7807 125.635 15.0069 125.635 19.7015C125.635 25.3038 129.69 25.4566 130.163 25.4566C131.9 25.4566 133.188 24.4183 133.951 23.5491L134.046 23.4523L133.633 22.5902L133.435 22.7348C133.435 22.7348 132.4 23.4943 131.339 23.4943C129.359 23.4943 128.942 22.1072 128.91 19.7073H134.214V19.5148Z" fill="white"/>
<path fill-rule="evenodd" clip-rule="evenodd" d="M10.1587 27.7629V27.9659C10.1587 28.6717 10.4364 29.3285 10.9392 29.8174C11.428 30.2922 12.0778 30.5535 12.765 30.5535L22.7213 30.5524C23.4084 30.5524 24.0081 30.3389 24.4514 29.9317C24.9274 29.4965 25.1899 28.863 25.1899 28.1479V27.7629C25.1899 27.6369 25.2693 27.5412 25.3743 27.5097C25.3976 27.5027 25.4198 27.4957 25.4454 27.4957H27.1651C27.8441 27.4957 28.5266 27.2157 29.0376 26.7269C29.5707 26.2171 29.8764 25.5171 29.8764 24.8066V18.3153C29.8764 17.5418 29.6011 16.8733 29.0562 16.3273L25.4513 12.6943C25.3066 12.5578 25.2156 12.363 25.2156 12.146V8.20734C25.2156 7.52484 24.9461 6.88201 24.4584 6.39668C23.9743 5.91602 23.3373 5.65118 22.6641 5.65118H19.8315C18.4466 5.65118 17.3196 6.79918 17.3196 8.20734V8.422C17.3138 8.56083 17.2018 8.67167 17.063 8.67167L16.6395 8.67283C16.1553 8.67283 15.6572 8.8665 15.2733 9.20366C15.0505 9.39966 14.8755 9.63533 14.7577 9.89316C14.4917 9.86633 14.2012 9.85349 13.9597 9.85349C9.97786 9.85349 5.78488 12.9346 5.78488 18.2138C5.78488 22.6879 9.50303 24.6502 9.70369 24.7926C9.84369 24.8917 10.1587 25.1251 10.1587 25.5217V27.4957V27.5097V27.7629Z" fill="white"/>
<path fill-rule="evenodd" clip-rule="evenodd" d="M24.5563 23.3059V22.0576C24.5563 21.7251 24.2891 21.4567 23.9601 21.4567C23.6312 21.4567 23.3628 21.7251 23.3628 22.0576V23.3059C23.3628 23.6384 23.6312 23.9067 23.9601 23.9067C24.2891 23.9067 24.5563 23.6384 24.5563 23.3059M28.1916 17.2159L24.4058 13.401C24.1795 13.1606 24.0138 12.8468 24.0138 12.5003V8.20932C24.0138 7.46616 23.3943 6.85599 22.657 6.85599H19.969C19.234 6.85599 18.646 7.45332 18.646 8.19532V9.48914C18.646 9.64431 18.534 9.91847 18.205 9.91847H16.7747C16.3722 9.91847 15.9545 10.2276 15.9137 10.6721C15.881 11.0233 15.7655 11.2986 15.1694 11.1913C15.1612 11.1901 15.1542 11.1878 15.1472 11.1866C15.1332 11.1843 15.1192 11.182 15.1052 11.1785L15.1064 11.1796C14.6922 11.1003 14.264 11.0583 13.8277 11.0583C10.0454 11.0583 6.97942 14.1464 6.97942 17.9556C6.97942 20.2516 8.09008 22.2827 9.8039 23.5369L9.8074 23.5392C9.89957 23.6057 10.0127 23.6454 10.1352 23.6454C10.3301 23.6454 10.5027 23.5439 10.6031 23.3922L14.4834 17.5706C14.4834 17.5706 14.887 16.9523 15.6197 16.9523H20.0903C20.3272 16.9523 20.5173 16.7609 20.5173 16.5229C20.5173 16.4856 20.5127 16.4506 20.5033 16.4156C20.0717 14.5069 18.8525 12.9005 17.2099 11.9578C17.0722 11.8831 16.9777 11.7373 16.9777 11.5693C16.9777 11.3266 17.1737 11.1295 17.4152 11.1295H17.4164V11.1295H18.87C19.4008 11.1295 19.8465 10.6943 19.8465 10.1483V8.48698C19.8465 8.23732 20.046 8.05765 20.2747 8.05765H22.4038C22.6255 8.05765 22.8157 8.24315 22.8157 8.48698V17.7164C22.8157 17.9381 22.9872 18.1504 23.2427 18.1504H27.0565C27.3365 18.1504 27.4835 18.3908 27.4835 18.5809V24.6966C27.4835 24.9147 27.3295 25.1271 27.0518 25.1271H23.721C23.1505 25.1259 22.7818 25.6077 22.7818 26.0685L22.7807 27.7147C22.7807 27.9772 22.5695 28.1429 22.3525 28.1429H18.6693V26.3217C18.6693 25.9904 18.4033 25.7209 18.0732 25.7209C17.743 25.7209 17.4759 25.9904 17.4759 26.3217V28.1429H12.9784C12.7672 28.1429 12.5514 27.9877 12.5514 27.7147V24.9509C12.5514 24.6977 12.7567 24.5204 12.9784 24.5204H18.184C18.4407 24.5204 18.6542 24.2112 18.6542 24.2112L22.2393 18.8259C22.4412 18.5098 22.1588 18.1563 21.9033 18.1563H15.7912C15.5497 18.1563 15.447 18.3208 15.3269 18.5109L11.6577 24.0141C11.6577 24.0141 11.3579 24.4457 11.3579 24.9509V27.9679C11.3579 28.7484 11.9937 29.3515 12.7695 29.3515H23C23.4573 29.3515 23.9788 28.9922 23.9788 28.3704V26.7557C23.9788 26.5725 24.1165 26.3264 24.4058 26.3264H27.1556C27.9315 26.3264 28.6735 25.6544 28.6735 24.8389V18.3534C28.6735 17.8541 28.4716 17.4971 28.1916 17.2159" fill="#002979"/>
</svg>
