<?xml version="1.0" encoding="UTF-8"?>
<svg width="36px" height="36px" viewBox="0 0 36 36" version="1.1" xmlns="http://www.w3.org/2000/svg" xmlns:xlink="http://www.w3.org/1999/xlink">
    <title>Logos/NBS Icon</title>
    <g id="Symbols" stroke="none" stroke-width="1" fill="none" fill-rule="evenodd">
        <g id="Mobile-Header" transform="translate(-16.000000, -16.000000)">
            <g id="Group" transform="translate(16.000000, 16.000000)">
                <g id="NBS-Icon" transform="translate(-0.000500, 0.000100)">
                    <path d="M36,31.6947 L36,27.3897 L0,27.3897 L0,31.6947 C0,34.0627 2.256,36.0007 5.013,36.0007 L30.988,36.0007 C33.744,36.0007 36,34.0627 36,31.6947" id="Red-background" fill="#E20613"></path>
                    <path d="M30.9883,27.39 L5.9533,27.39 L2.3603,27.39 L0.0013,27.39 L0.0013,5.013 C0.0013,2.255 2.1553,0 4.7903,0 L14.5933,0 L21.4603,0 L31.2113,0 C33.8433,0 35.9993,2.255 36.0003,5.013 L36.0003,27.39 L31.5703,27.39 L30.9883,27.39 Z" id="Blue-background" fill="#002979"></path>
                    <path d="M26.6875,26.389 C27.3515,26.389 28.0195,26.117 28.5185,25.643 C29.0415,25.147 29.3405,24.466 29.3405,23.775 L29.3405,17.467 C29.3405,16.717 29.0695,16.067 28.5385,15.536 L25.0105,12.007 C24.8695,11.873 24.7795,11.685 24.7795,11.474 L24.7795,7.647 C24.7795,6.984 24.5165,6.359 24.0385,5.888 C23.5655,5.421 22.9425,5.163 22.2825,5.163 L19.5105,5.163 C18.1545,5.163 17.0525,6.277 17.0525,7.647 L17.0525,7.856 C17.0475,7.991 16.9375,8.098 16.8025,8.098 L16.8025,8.099 L16.3875,8.099 C15.9145,8.099 15.4265,8.286 15.0505,8.614 C14.8325,8.806 14.6615,9.035 14.5455,9.285 C14.2855,9.259 14.0015,9.246 13.7655,9.246 C9.8685,9.246 5.7665,12.24 5.7665,17.369 C5.7665,21.717 9.4035,23.622 9.6015,23.761 C9.7375,23.859 10.0445,24.084 10.0445,24.47 L10.0445,26.846 C10.0445,27.531 10.3175,28.169 10.8095,28.645 C11.2885,29.106 11.9225,29.36 12.5965,29.36 L22.3375,29.359 C23.0115,29.359 23.5975,29.15 24.0325,28.756 C24.4985,28.333 24.7535,27.718 24.7535,27.022 L24.7535,26.639 C24.7535,26.5 24.8665,26.389 25.0035,26.389 L26.6875,26.389 Z" id="Village-background" fill="#FFFFFF"></path>
                    <path d="M24.1338,22.3168 L24.1338,21.1038 C24.1338,20.7818 23.8728,20.5198 23.5508,20.5198 C23.2288,20.5198 22.9658,20.7818 22.9658,21.1038 L22.9658,22.3168 C22.9658,22.6398 23.2288,22.9008 23.5508,22.9008 C23.8728,22.9008 24.1338,22.6398 24.1338,22.3168 M27.6908,16.3998 L23.9868,12.6938 C23.7658,12.4608 23.6038,12.1548 23.6038,11.8168 L23.6038,7.6488 C23.6038,6.9268 22.9958,6.3338 22.2758,6.3338 L19.6458,6.3338 C18.9258,6.3338 18.3498,6.9138 18.3498,7.6338 L18.3498,8.8918 C18.3498,9.0418 18.2408,9.3088 17.9188,9.3088 L16.5198,9.3088 C16.1258,9.3088 15.7168,9.6088 15.6768,10.0428 C15.6458,10.3818 15.5328,10.6498 14.9478,10.5458 C14.9418,10.5438 14.9338,10.5428 14.9258,10.5418 C14.9128,10.5388 14.9008,10.5368 14.8858,10.5328 L14.8868,10.5348 C14.4828,10.4578 14.0638,10.4178 13.6348,10.4178 C9.9348,10.4178 6.9348,13.4178 6.9348,17.1198 C6.9348,19.3488 8.0218,21.3228 9.6988,22.5418 L9.7018,22.5438 C9.7928,22.6078 9.9028,22.6468 10.0228,22.6468 C10.2128,22.6468 10.3818,22.5478 10.4798,22.4008 L10.4808,22.4008 L14.2768,16.7448 C14.2768,16.7448 14.6728,16.1438 15.3888,16.1438 L19.7638,16.1438 C19.9948,16.1438 20.1828,15.9578 20.1828,15.7258 C20.1828,15.6908 20.1778,15.6548 20.1678,15.6228 L20.1688,15.6228 C19.7458,13.7678 18.5538,12.2058 16.9458,11.2908 C16.8108,11.2188 16.7188,11.0778 16.7188,10.9138 C16.7188,10.6768 16.9108,10.4858 17.1468,10.4858 L17.1478,10.4858 L18.5708,10.4858 C19.0898,10.4858 19.5268,10.0638 19.5268,9.5318 L19.5268,7.9188 C19.5268,7.6758 19.7208,7.5008 19.9458,7.5008 L22.0288,7.5008 C22.2448,7.5008 22.4318,7.6808 22.4318,7.9188 L22.4318,16.8858 C22.4318,17.1018 22.5998,17.3078 22.8498,17.3078 L26.5808,17.3078 C26.8558,17.3078 26.9988,17.5418 26.9988,17.7268 L26.9988,23.6698 C26.9988,23.8808 26.8488,24.0868 26.5758,24.0868 L23.3168,24.0868 C22.7588,24.0858 22.3978,24.5538 22.3978,25.0018 L22.3978,26.6008 C22.3978,26.8568 22.1908,27.0178 21.9788,27.0178 L18.3738,27.0178 L18.3738,25.2478 C18.3738,24.9248 18.1128,24.6658 17.7898,24.6658 C17.4678,24.6658 17.2058,24.9248 17.2058,25.2478 L17.2058,27.0178 L12.8048,27.0178 C12.5978,27.0178 12.3868,26.8668 12.3868,26.6008 L12.3868,23.9158 C12.3868,23.6708 12.5878,23.4988 12.8048,23.4988 L17.8998,23.4988 C18.1508,23.4988 18.3588,23.1978 18.3588,23.1978 L21.8658,17.9638 C22.0638,17.6558 21.7878,17.3148 21.5378,17.3148 L15.5578,17.3148 C15.3208,17.3148 15.2198,17.4738 15.1038,17.6578 L11.5118,23.0058 C11.5118,23.0058 11.2198,23.4238 11.2198,23.9158 L11.2198,26.8468 C11.2198,27.6058 11.8418,28.1928 12.6008,28.1928 L22.6118,28.1918 C23.0588,28.1918 23.5698,27.8418 23.5698,27.2388 L23.5698,25.6698 C23.5698,25.4918 23.7028,25.2538 23.9868,25.2538 L26.6778,25.2538 C27.4368,25.2538 28.1638,24.5988 28.1638,23.8068 L28.1638,17.5048 C28.1638,17.0208 27.9658,16.6728 27.6908,16.3998" id="Village" fill="#002979"></path>
                </g>
            </g>
        </g>
    </g>
</svg>