<?xml version="1.0" encoding="UTF-8"?>
<svg width="260px" height="135px" viewBox="0 0 260 135" version="1.1" xmlns="http://www.w3.org/2000/svg" xmlns:xlink="http://www.w3.org/1999/xlink">
    <title>Group 242</title>
    <defs>
        <polygon id="path-1" points="0 0 259.999916 0 259.999916 118.131352 0 118.131352"></polygon>
        <polygon id="path-3" points="0 134.452091 260 134.452091 260 0 0 0"></polygon>
    </defs>
    <g id="Save-&amp;-Return-flow-sign-up" stroke="none" stroke-width="1" fill="none" fill-rule="evenodd">
        <g id="Mortgage-dashboard-mobile" transform="translate(-32.000000, -1235.000000)">
            <g id="Steps" transform="translate(17.000000, 599.000000)">
                <g id="Step2" transform="translate(0.000000, 625.000000)">
                    <g id="Group-242" transform="translate(15.000000, 11.000000)">
                        <path d="M101.353833,67.7500871 L100.650871,67.6237805 C61.2022648,59.8110627 22.8904181,85.4565331 15.0768293,124.905139 C15.0167247,125.21176 14.9574913,125.51838 14.9008711,125.825547 L180.166551,125.825547 C184.55331,125.864199 188.692683,123.79277 191.289373,120.257056 L206.555923,98.8729094 L199.927003,92.1176829 C197.118641,89.0488676 195.54547,85.4260453 195.573345,81.8371951 L196.001045,35.9382404 C195.949652,28.4112369 189.904355,22.2979965 182.378223,22.1612369 L153.508885,21.8936634 C146.094251,21.8589721 140.046341,27.8223868 139.976655,35.2361498 L139.850348,49.0845819 C139.813763,50.3293554 139.37561,51.5297038 138.600348,52.5044425 C137.541986,53.8093206 135.925261,54.5323171 134.24669,54.4495645 L118.888676,54.3093206 C115.152613,54.3093206 110.841638,57.0340592 110.384321,61.5567073 C110.201394,63.3824913 109.766725,65.6368467 108.024564,66.9425958 C106.697909,67.9330139 104.822474,68.249216 102.294599,67.9051394 L101.543728,67.7640244 L101.353833,67.7500871 Z" id="Fill-1" fill="#E5F0F9"></path>
                        <g id="Group-5" transform="translate(0.000000, 7.693735)">
                            <mask id="mask-2" fill="white">
                                <use xlink:href="#path-1"></use>
                            </mask>
                            <g id="Clip-4"></g>
                            <path d="M246.597909,0 L76.1362369,0 C71.6310105,-0.0446061641 67.3940767,2.14267607 64.8226481,5.84389558 L2.09878049,98.9188085 C-3.51881533,107.21846 2.80087108,118.005045 13.2224739,118.131352 C19.6684669,82.4553938 50.8592334,56.598251 87.1118467,56.8752545 C91.2233449,56.9153241 95.3235192,57.2916308 99.3731707,57.9989478 L99.289547,57.8299583 L101.051742,58.3012127 C101.130139,58.3256029 101.209408,58.3447667 101.290418,58.3569618 L101.459408,58.3996447 C101.540418,58.4048712 101.619686,58.4188085 101.697213,58.4414566 C104.204181,58.9048712 105.910627,58.7358816 107.034321,57.9283904 C108.003833,57.2262998 108.516028,55.9344879 108.740767,53.7149757 C109.295645,48.2654984 114.442857,44.9371012 118.902787,44.978913 L134.260801,45.120028 C135.434146,45.1914566 136.570035,44.695812 137.315679,43.7855332 C137.860105,43.1026064 138.169338,42.2637562 138.200697,41.3909339 L138.333972,27.5425018 C138.399303,19.2088782 145.196341,12.4998189 153.529965,12.5425018 L182.399303,12.8168921 C190.833972,12.9762998 197.60662,19.8290872 197.665854,28.2663694 L197.230314,74.1505158 C197.19547,77.3038259 198.585714,80.5407597 201.128397,83.2794356 L207.539547,89.8308294 L257.714634,19.4884949 C263.669338,11.1661952 257.293031,0 246.597909,0" id="Fill-3" fill="#E5F0F9" mask="url(#mask-2)"></path>
                        </g>
                        <path d="M218.447735,21.3101916 L218.447735,75.3476481 C218.445993,76.6934669 217.631533,77.9060105 216.38676,78.4173345 C214.175958,79.3485192 211.801394,79.8310976 209.402439,79.836324 C197.05662,79.836324 186.914634,67.1385889 185.682056,50.7971254 C185.525261,49.0549652 184.047909,47.7309233 182.29878,47.7648955 C169.128049,47.7648955 158.450214,37.0880662 158.450214,23.9173345 C158.446864,22.8833624 158.511324,21.8502613 158.644599,20.825 C158.872822,19.1925958 160.275261,17.9817944 161.923345,17.9938982 L215.124564,17.9938982 C216.955575,17.9896341 218.44338,19.4713415 218.447735,21.303223 L218.447735,21.3101916 Z" id="Fill-6" fill="#23366A"></path>
                        <path d="M215.325784,110.74216 L120.060976,109.995645 C119.280488,109.9277 118.543554,109.608014 117.962544,109.083624 C116.841463,108.247387 105.824913,100.83101 105.370209,100.695993 C104.452962,100.420732 103.458188,100.619338 102.718641,101.226481 C100.18554,102.795296 94.7343206,106.977352 92.195122,108.538328 C91.238676,109.135889 90.2682927,109.995645 89.0801394,109.995645 L63.9102787,109.995645 C62.3222997,109.995645 61.0348322,108.708188 61.0348322,107.119338 L61.0348322,107.112369 L61.0348322,21.511324 C61.0304878,19.924216 62.3144599,18.6332753 63.902439,18.6289199 L63.9102787,18.6289199 L87.4067944,18.6289199 C88.0243902,18.6297909 88.6263066,18.4337979 89.1245645,18.0688153 L104.279617,6.82055749 C105.502613,5.91114983 107.222125,6.11498258 108.200348,7.28397213 L116.818815,17.6132404 C117.374564,18.2752613 118.195993,18.6533101 119.059233,18.6437282 L215.325784,18.6437282 C216.912021,18.6437282 218.200348,19.9259582 218.209059,21.511324 L218.209059,107.858885 C218.209059,109.45122 216.918118,110.74216 215.325784,110.74216" id="Fill-8" fill="#23366A"></path>
                        <path d="M215.519774,109.083806 L121.203571,109.083806 C119.954443,109.083806 118.775871,108.50453 118.013676,107.515854 L110.440505,97.6491289 C109.077265,95.888676 106.544164,95.5663763 104.78284,96.9296167 C104.756707,96.9505226 104.729704,96.9705575 104.704443,96.9923345 L91.0589721,108.15 C90.3412021,108.739721 89.4413763,109.062021 88.5119338,109.062021 L65.6277875,109.062021 C63.4169861,109.065505 61.6208188,107.276307 61.6164634,105.065505 L61.6164634,105.057666 L61.6164634,21.2728223 C61.6164634,19.0620209 63.4091463,17.269338 65.6208188,17.269338 L65.6277875,17.269338 L88.3324913,17.269338 C89.1931185,17.269338 90.0302265,16.9949477 90.7227352,16.4853659 L104.749739,6.11864111 C106.457927,4.85644599 108.852526,5.1412892 110.216638,6.7684669 L117.812456,15.8355401 C118.575523,16.7458188 119.7027,17.2710801 120.889983,17.269338 L215.519774,17.269338 C217.73493,17.2658537 219.533711,19.0576655 219.538066,21.2728223 L219.538066,105.080314 C219.533711,107.29547 217.73493,109.088153 215.519774,109.083806" id="Fill-10" fill="#75B72F"></path>
                        <path d="M181.934669,108.740157 C181.893728,108.740157 181.852787,108.738415 181.811847,108.734059 C181.196864,108.666986 180.752613,108.11385 180.819686,107.498868 C181.650697,99.8412021 187.396341,95.090331 192.069686,92.4535714 C196.200348,90.0946864 199.439024,86.3533972 201.183798,81.9204704 C205.849303,70.2218641 202.133275,67.3551394 195.978223,62.6068815 C192.070557,59.5912021 187.206446,55.8385889 183.720383,48.7523519 C183.614111,48.5310976 183.513066,48.3194251 183.418118,48.1086237 C174.033972,28.0598432 192.577526,18.2445122 192.765679,18.1478223 C193.316202,17.8664634 193.99216,18.0807491 194.273519,18.6321429 C194.55662,19.1826655 194.339721,19.8577526 193.789199,20.1408537 C193.081882,20.5075784 176.993902,29.0990418 185.456446,47.1783101 C185.550523,47.3891115 185.643728,47.5807491 185.735192,47.7715157 C188.986934,54.3821429 193.428571,57.8089721 197.347561,60.8324913 C203.609756,65.6643728 208.55662,69.4805749 203.266551,82.7453833 C201.337108,87.6469512 197.752613,91.7889373 193.175958,94.4021777 C188.954704,96.7837108 183.775261,101.028484 183.046167,107.741028 C182.984321,108.31507 182.498258,108.740157 181.934669,108.740157" id="Fill-12" fill="#FEFEFE"></path>
                        <path d="M109.067596,56.7952091 C109.001394,56.7952091 108.935192,56.7925958 108.867247,56.7864983 C107.430836,56.6628049 105.239199,55.3788328 100.996167,46.4694251 C100.967422,46.4084495 100.943902,46.3431185 100.926481,46.2777875 C100.908188,46.2124564 99.1094077,39.7211672 94.9430314,38.8666376 C91.9378049,38.250784 88.0954704,40.7708188 83.8367596,46.1575784 C83.2496516,47.0138502 75.8393728,57.3082753 63.1146341,52.4641986 C62.537108,52.2438153 62.2470383,51.5966028 62.4674216,51.0182056 C62.6878049,50.4398084 63.3376307,50.1506098 63.9125436,50.370122 C75.4439024,54.7647213 81.9290941,44.9859756 81.9918118,44.8866725 C82.0101045,44.8561847 82.0318815,44.8283101 82.0527875,44.8004355 C86.9526132,38.5922474 91.438676,35.8553136 95.4012195,36.6732578 C100.636411,37.7525261 102.78101,44.6157666 103.061498,45.5922474 C107.297561,54.4650697 109.0223,54.5547909 109.066725,54.5547909 L109.067596,54.5547909 C109.058014,54.5539199 109.101568,54.5190767 109.159059,54.4371951 C109.733972,53.5582753 110.45,52.729007 111.266202,52.0051394 C113.48223,50.1601916 112.911672,48.9162892 111.773171,46.436324 C111.664286,46.1976481 111.553659,45.9537456 111.441289,45.7046167 C109.661672,41.6915505 110.217422,35.0182056 110.549303,31.0312718 C110.864634,27.3762195 111.771429,25.2342334 113.322822,24.479878 C114.053659,24.1244774 115.266202,23.9276132 116.90993,25.0033972 C117.988328,25.708101 118.681707,26.7377178 119.293206,27.6453833 C119.768815,28.3509582 120.218293,29.0173345 120.767944,29.4276132 L128.604181,35.2760453 C141.444774,42.4284843 152.524913,30.7307491 152.990941,30.2281359 C153.042334,30.1715157 153.10331,30.1192509 153.165157,30.0748258 C168.805401,19.0234321 183.145122,30.163676 183.287108,30.2777875 C183.771429,30.6628049 183.852439,31.3675087 183.466551,31.8518293 C183.082404,32.3352787 182.376829,32.4162892 181.89338,32.0312718 C181.342857,31.5957317 168.738328,21.8875436 154.544948,31.8439895 C153.378571,33.0391115 141.223519,44.935453 127.443902,37.1950348 C127.402091,37.1715157 127.36115,37.1445122 127.321951,37.1157666 L119.428223,31.2229094 C118.571951,30.5861498 117.994425,29.7272648 117.435192,28.8979965 C116.894251,28.0948606 116.382927,27.3361498 115.683449,26.8788328 C115.260976,26.6018293 114.682578,26.3126307 114.301916,26.4946864 C114.029268,26.6270906 113.114634,27.359669 112.781882,31.2202962 C112.467422,34.990331 111.941289,41.3065331 113.488328,44.7934669 C113.59547,45.033885 113.704355,45.2708188 113.810627,45.5025261 C115.001394,48.099216 116.234843,50.7856272 112.726132,53.7046167 C112.085889,54.2734321 111.500523,54.9511324 111.010976,55.6976481 C110.501394,56.4197735 109.823693,56.7952091 109.067596,56.7952091" id="Fill-14" fill="#FEFEFE"></path>
                        <path d="M169.086237,108.584059 C168.977352,108.584059 168.865854,108.567509 168.756098,108.533537 C168.164634,108.351481 167.833624,107.724303 168.015679,107.13284 C168.541812,105.427265 168.727352,103.662456 168.567073,101.887195 C167.859756,94.8976481 161.042683,90.6546167 157.041812,88.7486934 C154.080139,87.3279617 151.981707,86.1406794 149.851045,82.7216899 C146.526132,77.3706446 146.904181,71.8270906 150.864111,67.8906794 C152.752613,66.1006098 154.894599,64.6720383 157.249129,63.6276132 C159.63676,62.4995645 160.505226,61.9908537 161.187282,59.7347561 C161.772648,57.6232578 161.952962,55.4229094 161.713415,53.2182056 C160.892857,44.3105401 152.840592,39.0448606 145.705575,37.9141986 C145.094077,37.8175087 144.6777,37.244338 144.77439,36.6319686 C144.87108,36.0213415 145.450348,35.603223 146.055749,35.7016551 C154.019164,36.9629791 163.013066,42.9124564 163.94338,52.9952091 C164.210801,55.4647213 164.008711,57.9481707 163.33885,60.3584495 C162.374564,63.5527003 160.829268,64.4141986 158.182056,65.6650697 C156.037456,66.6162892 154.108885,67.9020035 152.425087,69.4978223 C149.277003,72.6284843 149.018293,77.136324 151.754355,81.537892 C153.506969,84.3514808 155.078397,85.320993 158.008711,86.7277875 C162.431185,88.8349303 169.977352,93.5797038 170.797909,101.67378 C170.986063,103.753049 170.769164,105.807927 170.156794,107.793118 C170.008711,108.274826 169.565331,108.584059 169.086237,108.584059" id="Fill-16" fill="#FEFEFE"></path>
                        <path d="M69.1255226,102.141115 C67.2527003,102.141115 65.2265679,101.99216 63.0340592,101.662892 C62.422561,101.570557 62.0000871,101 62.0924216,100.388502 C62.183885,99.7761324 62.7544425,99.3536585 63.3668118,99.4468641 C85.0305749,102.700348 88.7657666,87.6315331 88.9138502,86.9878049 C89.9408537,82.5357143 93.3267422,78.9764808 98.2082753,77.2203833 C99.1359756,76.8902439 100.104617,76.8414634 100.959146,76.7987805 C101.695209,76.7621951 102.390331,76.7264808 102.915592,76.5261324 C103.594164,76.2674216 103.676916,75.8484321 103.407753,74.0339721 L103.364199,73.7360627 C102.852003,70.0923345 103.223955,67.4268293 104.465244,65.8118467 C105.224826,64.8240418 106.275348,64.2430314 107.588066,64.0853659 C110.083711,63.7778746 113.627265,64.6489547 115.282317,66.8667247 C116.256185,68.1724739 116.40601,69.7804878 115.703049,71.3954704 C112.116812,79.6036585 120.757056,87.466899 120.845035,87.5461672 C121.693467,88.2212544 122.595906,89.0182927 123.468728,89.7891986 C125.164721,91.2865854 126.919077,92.8344948 128.731794,93.8972125 C130.827613,95.1106272 134.533188,94.934669 139.440854,93.3841463 C141.971341,92.6132404 144.189983,91.1350174 145.869425,89.1071429 C147.558449,87.0121951 148.683014,83.2961672 148.917334,80.7134146 C148.973084,80.097561 149.523606,79.6454704 150.133362,79.6986063 C150.750087,79.7543554 151.204791,80.2996516 151.149042,80.9155052 C150.892944,83.7439024 149.675174,87.9573171 147.603746,90.5252613 C145.635105,92.9033101 143.045383,94.6280488 140.104617,95.5243902 C134.511411,97.2909408 130.301481,97.3963415 127.602875,95.8327526 C125.598519,94.6585366 123.762282,93.0365854 121.98615,91.4686411 C121.094164,90.6811847 120.250958,89.9372822 119.399042,89.2552265 C119.250087,89.1245645 116.851132,86.9590592 114.933014,83.6132404 C112.330226,79.0705575 111.885976,74.5357143 113.648171,70.4991289 C114.033188,69.6184669 113.979181,68.8675958 113.487021,68.206446 C112.427787,66.7883275 109.723084,66.0810105 107.859843,66.3092334 C107.144686,66.3954704 106.63162,66.6716028 106.241376,67.1777003 C105.649913,67.9477352 105.054094,69.6567944 105.58284,73.4216028 L105.62378,73.7047038 C105.858972,75.283101 106.212631,77.6672474 103.714373,78.619338 C102.85723,78.9468641 101.950436,78.9921603 101.072387,79.0365854 C100.303223,79.075784 99.5776132,79.1123693 98.9635017,79.3301394 C94.8162892,80.8214286 91.9486934,83.7961672 91.0985192,87.489547 C91.0628049,87.6454704 87.5610627,102.141115 69.1255226,102.141115" id="Fill-18" fill="#FEFEFE"></path>
                        <path d="M78.4964286,51.0141115 C78.3675087,51.0141115 78.2351045,50.9914634 78.1070557,50.943554 C77.5277875,50.7283972 77.2316202,50.084669 77.4459059,49.5054007 C77.4702962,49.4365854 79.8979965,42.6648084 76.620122,36.6482578 C74.3047909,32.3965157 69.7063589,29.4740418 62.9546167,27.9601045 C62.3518293,27.824216 61.9720383,27.2249129 62.1070557,26.6221254 C62.2420732,26.0184669 62.8405052,25.6412892 63.4459059,25.7736934 C70.8657666,27.4374564 75.9650697,30.7432056 78.6000871,35.5994774 C82.3587979,42.5228223 79.663676,49.9696864 79.5469512,50.2832753 C79.3797038,50.7353659 78.9511324,51.0141115 78.4964286,51.0141115" id="Fill-20" fill="#FEFEFE"></path>
                        <path d="M108.878746,65.9810976 C108.62439,65.9810976 108.368293,65.8948606 108.158362,65.7180314 C105.122648,63.1622822 103.833449,60.7511324 104.327352,58.5525261 C105.072997,55.2406794 109.597387,54.0141986 109.789024,53.963676 C110.389199,53.8051394 111.000697,54.1640244 111.157491,54.7624564 C111.315157,55.3600174 110.958885,55.9715157 110.361324,56.1300523 C109.415331,56.3826655 106.880488,57.4000871 106.512892,59.0481707 C106.223693,60.3460801 107.292509,62.0603659 109.600871,64.0037456 C110.074739,64.4027003 110.134843,65.1091463 109.73676,65.5821429 C109.514634,65.8452091 109.198432,65.9810976 108.878746,65.9810976" id="Fill-22" fill="#FEFEFE"></path>
                        <path d="M122.263153,52.7868467 C117.834582,52.7868467 114.169077,51.3643728 113.933885,51.2711672 C113.358972,51.0438153 113.078484,50.3931185 113.305836,49.8182056 C113.534059,49.2432927 114.183885,48.9610627 114.759669,49.1875436 C114.838937,49.2197735 122.819774,52.2990418 128.812805,49.0342334 C132.037544,47.2755226 134.158624,43.953223 135.116812,39.1579268 C135.238763,38.550784 135.827613,38.1579268 136.435627,38.279007 C137.041899,38.4000871 137.434756,38.9898084 137.313676,39.5969512 C136.218728,45.0795296 133.714373,48.9183798 129.872909,51.008101 C127.405139,52.3495645 124.716115,52.7868467 122.263153,52.7868467" id="Fill-24" fill="#FEFEFE"></path>
                        <path d="M202.22561,83.4584495 L202.207317,83.4584495 L177.971254,83.0847561 C177.673345,83.0795296 177.389373,82.9567073 177.182056,82.7424216 L159.420732,64.3243031 C158.991289,63.8783101 159.005226,63.1692509 159.45122,62.7398084 C159.89547,62.3112369 160.60453,62.3234321 161.034843,62.7694251 L178.471254,80.8513066 L202.243902,81.2180314 C202.861498,81.2276132 203.355401,81.736324 203.345956,82.3547909 C203.336237,82.9680314 202.837108,83.4584495 202.22561,83.4584495" id="Fill-26" fill="#FEFEFE"></path>
                        <path d="M177.47378,78.5139313 C175.608798,78.510453 174.09399,80.0182927 174.089628,81.8824042 C174.08615,83.7465157 175.59399,85.2621951 177.458101,85.2656888 C179.323084,85.2700348 180.837892,83.761324 180.842247,81.8972125 L180.842247,81.8824042 C180.842247,80.021777 179.334408,78.5139313 177.47378,78.5139313 M177.47378,81.5017422 C177.688066,81.4973868 177.864895,81.6681185 177.869251,81.8824042 C177.873606,82.0966899 177.702875,82.2743902 177.488589,82.2778746 C177.274303,82.28223 177.096603,82.1114983 177.093118,81.8972125 L177.093118,81.8824042 C177.093118,81.6716028 177.26385,81.5017422 177.47378,81.5017422" id="Fill-28" fill="#FEFEFE"></path>
                        <path d="M165.486237,69.6036585 C165.19007,69.6036585 164.894774,69.4869338 164.67439,69.2552265 C164.247561,68.8074913 164.265854,68.097561 164.713589,67.6716028 C165.462718,66.9590592 166.271951,66.3196864 167.055052,65.7012195 C168.265854,64.7430314 169.410453,63.8388502 170.309408,62.7125436 C171.269338,61.5365854 171.258885,60.1027875 171.244948,58.4425087 C171.242334,58.0060976 171.23885,57.5635889 171.252787,57.119338 L171.603833,44.6332753 C171.597735,44.5 171.479268,39.7508711 174.503659,37.9790941 C176.480139,36.8214286 179.17439,37.2543554 182.512369,39.2691638 C183.041115,39.5888502 183.211847,40.2778746 182.891289,40.8074913 C182.569861,41.3379791 181.880836,41.5069686 181.353833,41.1881533 C179.582056,40.1175958 177.151742,39.0278746 175.639547,39.9102787 C174.082056,40.8179443 173.815505,43.6254355 173.84338,44.6315331 L173.491463,57.184669 C173.479268,57.6027875 173.483624,58.0156794 173.486237,58.4250871 C173.501045,60.3440767 173.515854,62.3275261 172.052439,64.1210801 C171.001045,65.4372822 169.701394,66.4651568 168.444425,67.4590592 C167.667422,68.0731707 166.93223,68.6541812 166.258885,69.2952962 C166.041115,69.5008711 165.76324,69.6036585 165.486237,69.6036585" id="Fill-30" fill="#FEFEFE"></path>
                        <path d="M193.11324,59.7376307 C192.635017,59.7376307 192.191638,59.4292683 192.042683,58.9484321 C191.85453,58.339547 187.506098,43.9710801 194.25784,38.3987805 C198.772648,34.6722997 206.977352,35.9449477 218.640244,42.1836237 C219.186411,42.4754355 219.391115,43.154007 219.099303,43.6993031 C218.808362,44.2454704 218.128049,44.4510453 217.582753,44.1592334 C206.952091,38.4719512 199.37892,37.0773519 195.684669,40.1270035 C190.077526,44.7533101 194.141986,58.1513937 194.183798,58.2855401 C194.365854,58.8770035 194.036585,59.5041812 193.445122,59.687108 C193.334495,59.7210801 193.222997,59.7376307 193.11324,59.7376307" id="Fill-32" fill="#FEFEFE"></path>
                        <path d="M63.1989547,75.847561 C62.6423345,75.847561 62.1606272,75.4337979 62.0891986,74.8675958 C62.0116725,74.2526132 62.4463415,73.6925087 63.060453,73.6158537 C64.6754355,73.412892 66.1240418,73.2491289 67.5743902,73.0853659 C69.0020906,72.924216 70.430662,72.7621951 72.0238676,72.5627178 L78.9236934,71.6890244 C79.2590592,71.6463415 79.5804878,71.6114983 79.8888502,71.5775261 C81.5674216,71.3954704 82.6754355,71.2743902 83.9010453,70.1907666 C85.2146341,68.9825784 86.4750871,67.6594077 87.6283972,66.2726481 C91.5081882,61.7299652 93.6945993,57.630662 94.3191638,53.7343206 C94.3557491,52.9198606 94.6850174,48.3144599 97.5883275,46.9033101 C99.2947735,46.0731707 101.394077,46.5574913 103.821777,48.3405923 C104.320035,48.7073171 104.428049,49.4085366 104.061324,49.9067944 C103.69547,50.4059233 102.994251,50.5130662 102.495122,50.1472125 C101.323519,49.2857143 99.6885017,48.3736934 98.5682927,48.9181185 C97.0343206,49.6637631 96.5900697,52.8310105 96.5552265,53.8815331 C96.5543554,53.9268293 96.5491289,53.9721254 96.5430314,54.0174216 C95.865331,58.3536585 93.5108014,62.8353659 89.3418118,67.71777 C88.1336237,69.1689895 86.8043554,70.565331 85.4019164,71.8554007 C83.6275261,73.4250871 81.9289199,73.6097561 80.1310105,73.804878 C79.8348432,73.837108 79.5264808,73.8710801 79.2050523,73.9120209 L72.3034843,74.7857143 C70.6998258,74.9869338 69.2625436,75.1498258 67.8261324,75.3118467 C66.3844948,75.4747387 64.9454704,75.6367596 63.3400697,75.8388502 C63.2921603,75.8449477 63.245993,75.847561 63.1989547,75.847561" id="Fill-34" fill="#FEFEFE"></path>
                        <path d="M166.799652,95.9163763 C166.542683,95.9163763 166.284843,95.8283972 166.074042,95.6489547 C165.602787,95.2473868 165.547038,94.5409408 165.947735,94.0696864 L176.31446,81.8954704 C176.715157,81.4250871 177.422474,81.3675958 177.892857,81.7691638 C178.364111,82.1698606 178.420732,82.8771777 178.020035,83.3484321 L167.652439,95.5226481 C167.432056,95.78223 167.116725,95.9163763 166.799652,95.9163763" id="Fill-36" fill="#FEFEFE"></path>
                        <path d="M212.853746,108.576394 C212.719599,108.576394 212.58284,108.552875 212.451307,108.501481 L186.796254,98.6347561 C186.568031,98.5476481 186.375523,98.3873693 186.245732,98.1791812 L176.520993,82.4718641 C176.195209,81.9466028 176.358101,81.2558362 176.883362,80.9300523 C177.409495,80.6042683 178.100261,80.7662892 178.426045,81.2924216 L187.952178,96.6791812 L213.255314,106.410017 C213.83284,106.632143 214.121167,107.280226 213.899042,107.857753 C213.72831,108.303746 213.304094,108.576394 212.853746,108.576394" id="Fill-38" fill="#FEFEFE"></path>
                        <path d="M149.689373,94.0789199 C147.465505,93.9099303 145.288676,94.7810105 143.796516,96.438676 C142.868815,97.5118467 141.544774,98.1616725 140.129268,98.2391986 C139.726829,98.2618467 139.328746,98.3289199 138.941986,98.4404181 C136.229443,99.4308362 134.833101,102.431707 135.822648,105.144251 C136.813066,107.856794 139.813937,109.253136 142.526481,108.263589 C142.6223,108.228746 142.717247,108.191289 142.811324,108.150348 C143.908014,107.56324 145.212892,107.505749 146.358362,107.993554 C147.420209,108.449129 148.576132,108.639024 149.726829,108.545819 C153.705052,108.259233 156.698084,104.801916 156.411498,100.823693 C156.153659,97.243554 153.306098,94.3968641 149.726829,94.1390244 L149.689373,94.0789199 Z" id="Fill-40" fill="#23366A"></path>
                        <polygon id="Fill-42" fill="#23366A" points="118.045557 44.1309233 120.122213 45.431446 118.183188 48.5263937 116.106533 47.2267422"></polygon>
                        <polygon id="Fill-44" fill="#23366A" points="119.558885 53.0671603 119.639895 55.2840592 116.855052 55.3859756 116.774913 53.1690767"></polygon>
                        <polygon id="Fill-46" fill="#23366A" points="124.046951 53.0578397 124.160192 56.1327526 121.37622 56.234669 121.262979 53.1597561"></polygon>
                        <polygon id="Fill-48" fill="#23366A" points="114.570557 36.6740418 114.683798 39.7489547 113.15331 39.8055749 113.04007 36.7297909"></polygon>
                        <polygon id="Fill-50" fill="#23366A" points="114.574826 32.1926829 114.688066 35.2675958 113.157578 35.324216 113.045209 32.2484321"></polygon>
                        <path d="M93.8900697,27.2928571 C93.8900697,23.2458188 90.6087108,19.9662021 86.5625436,19.9662021 C84.4188153,19.9662021 82.383101,20.9052265 80.991115,22.5350174 C80.2829268,23.3660279 79.7724739,24.3468641 79.4980836,25.4034843 C79.2358885,26.4034843 79.6400697,27.8303136 78.8325784,28.584669 C77.2942509,30.0114983 75.8900697,30.7432056 75.8900697,33.2301394 C75.9353659,35.5768293 77.5033101,37.6203833 79.7585366,38.2719512 C81.1182927,38.660453 81.9998258,38.0925087 83.2393728,38.0184669 C84.9797909,37.943554 86.2864111,39.4365854 88.0416376,39.4365854 C90.9292683,39.4313589 93.2646341,37.0855401 93.2585366,34.1979094 C93.2576655,33.6665505 93.1766551,33.139547 93.0163763,32.6325784 C92.8473868,32.2797909 92.7480836,31.8965157 92.7245645,31.5054007 C92.7994774,30.0637631 93.8900697,28.8834495 93.8900697,27.2928571" id="Fill-52" fill="#3B8637"></path>
                        <polygon id="Fill-54" fill="#23366A" points="129.220732 31.0830139 127.403659 33.5673345 125.155401 31.9218641 126.971603 29.4384146"></polygon>
                        <polygon id="Fill-56" fill="#23366A" points="114.315418 22.3500871 113.208275 23.8631533 111.773606 22.8135017 112.880749 21.3004355"></polygon>
                        <path d="M138.053136,67.2362369 C138.980836,67.2362369 139.733449,67.9888502 139.733449,68.9165505 C139.733449,69.845122 138.980836,70.5968641 138.053136,70.5968641 C137.125436,70.5968641 136.371951,69.845122 136.371951,68.9165505 C136.371951,67.9888502 137.125436,67.2362369 138.053136,67.2362369" id="Fill-58" fill="#75B72F"></path>
                        <path d="M130.584321,65.7425087 C131.512021,65.7425087 132.264634,66.495122 132.264634,67.4228223 C132.264634,68.3513937 131.512021,69.1031359 130.584321,69.1031359 C129.65662,69.1031359 128.903136,68.3513937 128.903136,67.4228223 C128.903136,66.495122 129.65662,65.7425087 130.584321,65.7425087" id="Fill-60" fill="#75B72F"></path>
                        <path d="M129.090592,73.211324 C130.018293,73.211324 130.770906,73.9639373 130.770906,74.8916376 C130.770906,75.8202091 130.018293,76.5719512 129.090592,76.5719512 C128.162892,76.5719512 127.409408,75.8202091 127.409408,74.8916376 C127.409408,73.9639373 128.162892,73.211324 129.090592,73.211324" id="Fill-62" fill="#75B72F"></path>
                        <path d="M75.4119338,38.0703833 C75.5364983,37.4885017 75.599216,36.8952962 75.599216,36.3003484 C75.599216,32.8491289 73.5521777,30.0486063 71.0199477,30.0486063 C68.3692509,30.0486063 67.1148955,33.1182927 65.4851045,34.7019164 C63.5460801,36.7367596 62.5025261,39.4649826 62.587892,42.2750871 C62.587892,47.3918118 65.6279617,51.5364111 69.3770906,51.5364111 C73.1262195,51.5364111 76.1584849,47.3918118 76.1584849,42.2750871 C76.1619338,40.8404181 75.9084495,39.4162021 75.4119338,38.0703833" id="Fill-64" fill="#3B8637"></path>
                        <path d="M76.9652439,80.6053136 C77.8929443,80.6053136 78.6464286,81.3579268 78.6464286,82.2856272 C78.6464286,83.2141986 77.8929443,83.9659408 76.9652439,83.9659408 C76.0375436,83.9659408 75.2849303,83.2141986 75.2849303,82.2856272 C75.2849303,81.3579268 76.0375436,80.6053136 76.9652439,80.6053136" id="Fill-66" fill="#75B72F"></path>
                        <path d="M82.7991289,79.3730836 C83.7268293,79.3730836 84.4794425,80.1256969 84.4794425,81.0533972 C84.4794425,81.9819686 83.7268293,82.7337108 82.7991289,82.7337108 C81.8705575,82.7337108 81.1179443,81.9819686 81.1179443,81.0533972 C81.1179443,80.1256969 81.8705575,79.3730836 82.7991289,79.3730836" id="Fill-68" fill="#75B72F"></path>
                        <path d="M132.391986,101.219425 C131.380662,101.276045 130.470383,100.609669 130.218641,99.6279617 C129.784843,98.5826655 129.732578,97.2455575 128.560976,96.7377178 C127.111498,96.1027003 125.714286,97.4101916 125.236063,98.6723868 C124.921603,99.6523519 124.811847,100.688066 124.915505,101.712456 C125.049652,103.89277 126.110627,106.627091 128.844077,105.842247 C129.590592,107.164547 130.905052,108.067857 132.406794,108.292596 C134.378049,108.219425 135.920732,106.566986 135.858014,104.594861 C135.871951,103.502526 135.331882,102.476394 134.423345,101.869251 C133.8223,101.463328 133.116725,101.237718 132.391986,101.219425" id="Fill-70" fill="#3B8637"></path>
                        <path d="M95.0920732,69.2229965 C96.0197735,69.2229965 96.7732578,69.9756098 96.7732578,70.9033101 C96.7732578,71.8318815 96.0197735,72.5836237 95.0920732,72.5836237 C94.1643728,72.5836237 93.4117596,71.8318815 93.4117596,70.9033101 C93.4117596,69.9756098 94.1643728,69.2229965 95.0920732,69.2229965" id="Fill-72" fill="#75B72F"></path>
                        <polygon id="Fill-74" fill="#FEFEFE" points="112.681272 54.3622822 116.214373 56.5748258 115.088066 58.3718641 111.555836 56.1593206"></polygon>
                        <polygon id="Fill-76" fill="#FEFEFE" points="110.251742 57.7071429 113.410279 59.6853659 112.19338 61.6287456 109.034843 59.6505226"></polygon>
                        <polygon id="Fill-78" fill="#FEFEFE" points="114.952526 62.0867596 115.064895 65.1616725 113.900261 65.2043554 113.787892 62.1294425"></polygon>
                        <polygon id="Fill-80" fill="#FEFEFE" points="109.726045 38.9320557 109.838415 42.0069686 108.674652 42.0505226 108.561411 38.9747387"></polygon>
                        <polygon id="Fill-82" fill="#FEFEFE" points="118.062544 62.0250871 118.175784 65.1 116.295122 65.1688153 116.181882 62.0939024"></polygon>
                        <polygon id="Fill-84" fill="#FEFEFE" points="164.975871 61.962108 167.535105 63.6694251 166.027265 65.9316202 163.46716 64.2243031"></polygon>
                        <mask id="mask-4" fill="white">
                            <use xlink:href="#path-3"></use>
                        </mask>
                        <g id="Clip-87"></g>
                        <polygon id="Fill-86" fill="#FEFEFE" mask="url(#mask-4)" points="183.567944 40.5949477 187.414634 40.5949477 187.414634 36.8083624 183.567944 36.8083624"></polygon>
                        <polygon id="Fill-88" fill="#FEFEFE" mask="url(#mask-4)" points="184.31446 36.1132404 188.16115 36.1132404 188.16115 32.3266551 184.31446 32.3266551"></polygon>
                        <polygon id="Fill-89" fill="#FEFEFE" mask="url(#mask-4)" points="187.302265 31.6324042 189.961672 31.6324042 189.961672 28.652439 187.302265 28.652439"></polygon>
                        <polygon id="Fill-90" fill="#FEFEFE" mask="url(#mask-4)" points="190.29007 27.8980836 192.949477 27.8980836 192.949477 24.9181185 190.29007 24.9181185"></polygon>
                        <polygon id="Fill-91" fill="#FEFEFE" mask="url(#mask-4)" points="193.277003 24.9102787 195.936411 24.9102787 195.936411 21.9303136 193.277003 21.9303136"></polygon>
                        <polygon id="Fill-92" fill="#FEFEFE" mask="url(#mask-4)" points="197.758711 28.1210801 201.769164 28.1210801 201.769164 22.6768293 197.758711 22.6768293"></polygon>
                        <polygon id="Fill-93" fill="#FEFEFE" mask="url(#mask-4)" points="206.721254 36.337108 210.731707 36.337108 210.731707 30.8928571 206.721254 30.8928571"></polygon>
                        <polygon id="Fill-94" fill="#FEFEFE" mask="url(#mask-4)" points="210.455575 29.6149826 214.466028 29.6149826 214.466028 24.1707317 210.455575 24.1707317"></polygon>
                        <polygon id="Fill-95" fill="#FEFEFE" mask="url(#mask-4)" points="157.398084 67.8317073 159.656794 65.741115 160.792683 66.969338 158.535714 69.0599303"></polygon>
                        <polygon id="Fill-96" fill="#FEFEFE" mask="url(#mask-4)" points="151.183188 79.3956446 153.441028 77.3050523 155.333885 79.3494774 153.075174 81.4400697"></polygon>
                        <polygon id="Fill-97" fill="#FEFEFE" mask="url(#mask-4)" points="133.89939 90.7188153 136.964721 90.4418118 137.215592 93.2162021 134.150261 93.4940767"></polygon>
                        <polygon id="Fill-98" fill="#FEFEFE" mask="url(#mask-4)" points="153.884059 83.1006969 156.141899 81.0101045 158.034756 83.0545296 155.776045 85.145122"></polygon>
                        <polygon id="Fill-99" fill="#FEFEFE" mask="url(#mask-4)" points="164.978397 90.1305749 167.237108 88.0399826 168.439199 89.3387631 166.181359 91.4293554"></polygon>
                        <polygon id="Fill-100" fill="#FEFEFE" mask="url(#mask-4)" points="162.737718 87.8945993 164.996429 85.804878 166.19939 87.1036585 163.940679 89.1933798"></polygon>
                        <polygon id="Fill-101" fill="#FEFEFE" mask="url(#mask-4)" points="159.755314 86.4004355 162.013153 84.3107143 163.216115 85.6094948 160.957404 87.7000871"></polygon>
                        <polygon id="Fill-102" fill="#FEFEFE" mask="url(#mask-4)" points="150.043293 89.385453 152.302003 87.2957317 153.504094 88.5945122 151.246254 90.6842334"></polygon>
                        <polygon id="Fill-103" fill="#FEFEFE" mask="url(#mask-4)" points="153.034233 90.8796167 155.292073 88.7890244 156.495035 90.0878049 154.236324 92.1783972"></polygon>
                        <polygon id="Fill-104" fill="#FEFEFE" mask="url(#mask-4)" points="156.017509 91.6239547 158.27622 89.5333624 159.47831 90.8321429 157.22047 92.9227352"></polygon>
                        <polygon id="Fill-105" fill="#FEFEFE" mask="url(#mask-4)" points="156.765244 94.616115 159.023955 92.5255226 160.226045 93.8243031 157.968206 95.9148955"></polygon>
                        <polygon id="Fill-106" fill="#FEFEFE" mask="url(#mask-4)" points="159.756969 95.3545296 162.015679 93.2639373 164.02439 95.434669 161.766551 97.5252613"></polygon>
                        <polygon id="Fill-107" fill="#FEFEFE" mask="url(#mask-4)" points="162.746254 98.3479965 165.004965 96.2582753 167.013676 98.4281359 164.755836 100.518728"></polygon>
                        <polygon id="Fill-108" fill="#FEFEFE" mask="url(#mask-4)" points="163.49399 102.082404 165.751829 99.9926829 167.76054 102.162544 165.503571 104.253136"></polygon>
                        <polygon id="Fill-109" fill="#FEFEFE" mask="url(#mask-4)" points="144.453571 79.0230836 147.518902 78.7460801 147.769774 81.5204704 144.704443 81.7974739"></polygon>
                        <polygon id="Fill-110" fill="#FEFEFE" mask="url(#mask-4)" points="133.251132 79.0170732 136.316463 78.7400697 136.567334 81.5144599 133.502003 81.7914634"></polygon>
                        <polygon id="Fill-111" fill="#FEFEFE" mask="url(#mask-4)" points="136.98554 78.2727352 140.05 77.9957317 140.301742 80.770122 137.236411 81.0471254"></polygon>
                        <polygon id="Fill-112" fill="#FEFEFE" mask="url(#mask-4)" points="140.720035 79.7674216 143.784495 79.4904181 144.035366 82.2648084 140.970906 82.5418118"></polygon>
                        <polygon id="Fill-113" fill="#FEFEFE" mask="url(#mask-4)" points="142.958972 83.5013937 146.024303 83.2243902 146.275174 85.9987805 143.209843 86.275784"></polygon>
                        <polygon id="Fill-114" fill="#FEFEFE" mask="url(#mask-4)" points="136.235279 86.4851045 139.299739 86.208101 139.55061 88.9824913 136.48615 89.2594948"></polygon>
                        <polygon id="Fill-115" fill="#FEFEFE" mask="url(#mask-4)" points="133.99547 82.7510453 137.060801 82.4740418 137.311672 85.2484321 134.246341 85.5254355"></polygon>
                        <polygon id="Fill-116" fill="#FEFEFE" mask="url(#mask-4)" points="143.709233 74.537892 146.774564 74.2608885 147.025436 77.0352787 143.960105 77.3122822"></polygon>
                        <polygon id="Fill-117" fill="#FEFEFE" mask="url(#mask-4)" points="129.518467 90.9710801 132.583798 90.6940767 132.834669 93.4684669 129.769338 93.7454704"></polygon>
                        <polygon id="Fill-118" fill="#FEFEFE" mask="url(#mask-4)" points="125.784059 87.9813589 128.84939 87.7043554 129.100261 90.4787456 126.03493 90.7557491"></polygon>
                        <polygon id="Fill-119" fill="#FEFEFE" mask="url(#mask-4)" points="122.386498 84.2448606 124.994512 85.8781359 123.515418 88.2387631 120.908275 86.6054878"></polygon>
                        <polygon id="Fill-120" fill="#FEFEFE" mask="url(#mask-4)" points="119.698345 80.6248258 122.314199 82.2554878 120.837718 84.6239547 118.221864 82.9924216"></polygon>
                        <polygon id="Fill-121" fill="#FEFEFE" mask="url(#mask-4)" points="164.701045 51.9076655 167.308188 53.5409408 165.829965 55.9015679 163.221951 54.2682927"></polygon>
                        <polygon id="Fill-122" fill="#FEFEFE" mask="url(#mask-4)" points="168.586063 69.1238676 170.843902 67.0332753 173.263763 69.6482578 171.005923 71.7379791"></polygon>
                        <polygon id="Fill-123" fill="#FEFEFE" mask="url(#mask-4)" points="171.590592 72.5839721 173.849303 70.4933798 175.417247 72.1867596 173.158537 74.2773519"></polygon>
                        <polygon id="Fill-124" fill="#FEFEFE" mask="url(#mask-4)" points="173.566725 74.870993 175.825436 72.7804007 177.39338 74.4737805 175.134669 76.5643728"></polygon>
                        <polygon id="Fill-125" fill="#FEFEFE" mask="url(#mask-4)" points="178.21385 77.5437282 179.504791 74.7510453 181.60061 75.7196864 180.307927 78.5123693"></polygon>
                        <polygon id="Fill-126" fill="#FEFEFE" mask="url(#mask-4)" points="188.818815 79.6637631 192.926829 79.6637631 192.926829 74.5627178 188.818815 74.5627178"></polygon>
                        <polygon id="Fill-127" fill="#FEFEFE" mask="url(#mask-4)" points="183.567944 80.4102787 186.204704 80.4102787 186.204704 77.1393728 183.567944 77.1393728"></polygon>
                        <polygon id="Fill-128" fill="#FEFEFE" mask="url(#mask-4)" points="187.302265 49.7883275 189.939024 49.7883275 189.939024 46.5174216 187.302265 46.5174216"></polygon>
                        <polygon id="Fill-129" fill="#FEFEFE" mask="url(#mask-4)" points="185.061847 45.075784 188.908537 45.075784 188.908537 41.2891986 185.061847 41.2891986"></polygon>
                        <polygon id="Fill-130" fill="#FEFEFE" mask="url(#mask-4)" points="194.02439 56.2787456 197.87108 56.2787456 197.87108 52.4921603 194.02439 52.4921603"></polygon>
                        <polygon id="Fill-131" fill="#FEFEFE" mask="url(#mask-4)" points="194.02439 51.0513937 196.683798 51.0513937 196.683798 48.0714286 194.02439 48.0714286"></polygon>
                        <polygon id="Fill-132" fill="#FEFEFE" mask="url(#mask-4)" points="194.770906 45.8231707 197.430314 45.8231707 197.430314 42.8432056 194.770906 42.8432056"></polygon>
                        <polygon id="Fill-133" fill="#FEFEFE" mask="url(#mask-4)" points="198.505226 42.8353659 201.164634 42.8353659 201.164634 39.8554007 198.505226 39.8554007"></polygon>
                        <polygon id="Fill-134" fill="#FEFEFE" mask="url(#mask-4)" points="202.240418 42.8353659 204.899826 42.8353659 204.899826 39.8554007 202.240418 39.8554007"></polygon>
                        <polygon id="Fill-135" fill="#FEFEFE" mask="url(#mask-4)" points="206.721254 43.5827526 209.380662 43.5827526 209.380662 40.6027875 206.721254 40.6027875"></polygon>
                        <polygon id="Fill-136" fill="#FEFEFE" mask="url(#mask-4)" points="210.455575 45.075784 213.114983 45.075784 213.114983 42.0958188 210.455575 42.0958188"></polygon>
                        <polygon id="Fill-137" fill="#FEFEFE" mask="url(#mask-4)" points="197.108014 59.4675958 198.726481 57.3578397 201.090592 59.1714286 199.472997 61.2811847"></polygon>
                        <polygon id="Fill-138" fill="#FEFEFE" mask="url(#mask-4)" points="200.094686 62.4554878 201.712282 60.3457317 204.077265 62.1593206 202.458798 64.2699477"></polygon>
                        <polygon id="Fill-139" fill="#FEFEFE" mask="url(#mask-4)" points="203.088153 65.4434669 204.705749 63.3337108 207.070732 65.1472997 205.453136 67.2579268"></polygon>
                        <polygon id="Fill-140" fill="#FEFEFE" mask="url(#mask-4)" points="205.658014 68.6436411 208.23554 67.990331 208.968118 70.8779617 206.391463 71.5321429"></polygon>
                        <polygon id="Fill-141" fill="#FEFEFE" mask="url(#mask-4)" points="206.199913 73.3529617 208.831446 73.7292683 208.409843 76.6796167 205.77831 76.3033101"></polygon>
                        <polygon id="Fill-142" fill="#FEFEFE" mask="url(#mask-4)" points="205.714111 76.8980836 209.942334 77.9703833 208.924913 81.9817073 204.69669 80.9085366"></polygon>
                        <polygon id="Fill-143" fill="#FEFEFE" mask="url(#mask-4)" points="204.173606 81.6294425 207.314721 82.4273519 206.580401 85.3228223 203.438415 84.5249129"></polygon>
                        <polygon id="Fill-144" fill="#FEFEFE" mask="url(#mask-4)" points="203.088153 84.7918118 205.299826 86.0688153 204.138676 88.0801394 201.927003 86.8031359"></polygon>
                        <polygon id="Fill-145" fill="#FEFEFE" mask="url(#mask-4)" points="201.595209 88.5262195 203.806882 89.803223 203.228484 90.8058362 201.015941 89.5288328"></polygon>
                        <polygon id="Fill-146" fill="#FEFEFE" mask="url(#mask-4)" points="200.850871 90.0216899 203.062544 91.2986934 202.484146 92.3013066 200.272474 91.0243031"></polygon>
                        <polygon id="Fill-147" fill="#FEFEFE" mask="url(#mask-4)" points="200.099739 90.7655923 202.311411 92.0425958 201.733014 93.0452091 199.52047 91.7682056"></polygon>
                        <polygon id="Fill-148" fill="#FEFEFE" mask="url(#mask-4)" points="199.355401 91.5171603 201.567944 92.7941638 200.988676 93.796777 198.777003 92.5197735"></polygon>
                        <polygon id="Fill-149" fill="#FEFEFE" mask="url(#mask-4)" points="198.611934 92.2610627 200.823606 93.5380662 200.245209 94.5406794 198.032666 93.263676"></polygon>
                        <polygon id="Fill-150" fill="#FEFEFE" mask="url(#mask-4)" points="212.695993 49.5574913 215.355401 49.5574913 215.355401 46.5775261 212.695993 46.5775261"></polygon>
                        <polygon id="Fill-151" fill="#FEFEFE" mask="url(#mask-4)" points="194.794425 79.6637631 198.902439 79.6637631 198.902439 76.5270035 194.794425 76.5270035"></polygon>
                        <polygon id="Fill-152" fill="#FEFEFE" mask="url(#mask-4)" points="185.566202 91.7213415 187.824042 89.6307491 189.716899 91.6751742 187.458188 93.7657666"></polygon>
                        <polygon id="Fill-153" fill="#FEFEFE" mask="url(#mask-4)" points="190.793467 89.4756098 193.051307 87.3858885 194.944164 89.4294425 192.685453 91.5200348"></polygon>
                        <polygon id="Fill-154" fill="#FEFEFE" mask="url(#mask-4)" points="193.787021 86.493554 196.044861 84.4029617 197.937718 86.4473868 195.679878 88.5379791"></polygon>
                        <polygon id="Fill-155" fill="#FEFEFE" mask="url(#mask-4)" points="193.948606 97.7393728 195.270906 94.9606272 197.786585 96.1583624 196.464286 98.9362369"></polygon>
                        <polygon id="Fill-156" fill="#FEFEFE" mask="url(#mask-4)" points="198.435017 99.9808362 199.758188 97.2020906 202.272997 98.3998258 200.950697 101.178571"></polygon>
                        <polygon id="Fill-157" fill="#FEFEFE" mask="url(#mask-4)" points="202.912021 100.723519 204.234321 97.9456446 206.304878 98.9299652 204.982578 101.708711"></polygon>
                        <polygon id="Fill-158" fill="#FEFEFE" mask="url(#mask-4)" points="206.652439 102.967509 207.974739 100.188763 210.045296 101.173955 208.722125 103.9527"></polygon>
                        <polygon id="Fill-159" fill="#FEFEFE" mask="url(#mask-4)" points="210.382578 104.457491 211.704878 101.678746 213.775436 102.663937 212.453136 105.442683"></polygon>
                        <polygon id="Fill-160" fill="#FEFEFE" mask="url(#mask-4)" points="187.230923 102.965418 188.554094 100.186672 190.62378 101.171864 189.301481 103.95061"></polygon>
                        <polygon id="Fill-161" fill="#FEFEFE" mask="url(#mask-4)" points="190.220122 103.710627 191.542422 100.931882 193.612979 101.917073 192.290679 104.695819"></polygon>
                        <polygon id="Fill-162" fill="#FEFEFE" mask="url(#mask-4)" points="180.280139 96.1648084 182.668641 94.2249129 184.113763 96.0045296 181.725261 97.9444251"></polygon>
                        <polygon id="Fill-163" fill="#FEFEFE" mask="url(#mask-4)" points="178.782927 93.1743031 181.171429 91.2344077 182.616551 93.0140244 180.228049 94.9539199"></polygon>
                        <polygon id="Fill-164" fill="#FEFEFE" mask="url(#mask-4)" points="176.542334 90.1910279 178.930836 88.2511324 180.375958 90.0307491 177.987456 91.9706446"></polygon>
                        <polygon id="Fill-165" fill="#FEFEFE" mask="url(#mask-4)" points="175.052787 87.9520906 177.441289 86.0121951 178.886411 87.7918118 176.497909 89.7317073"></polygon>
                        <polygon id="Fill-166" fill="#FEFEFE" mask="url(#mask-4)" points="173.983537 89.5172474 176.159495 91.6932056 174.538415 93.3142857 172.362456 91.1383275"></polygon>
                        <polygon id="Fill-167" fill="#FEFEFE" mask="url(#mask-4)" points="171.71054 91.7953833 173.886498 93.9713415 172.265418 95.5924216 170.08946 93.4164634"></polygon>
                        <polygon id="Fill-168" fill="#FEFEFE" mask="url(#mask-4)" points="173.021429 97.2668118 173.86115 100.226742 171.655575 100.853049 170.814983 97.8922474"></polygon>
                        <polygon id="Fill-169" fill="#FEFEFE" mask="url(#mask-4)" points="173.998868 102.247909 173.477962 105.28101 171.219251 104.89338 171.739286 101.860279"></polygon>
                        <polygon id="Fill-170" fill="#FEFEFE" mask="url(#mask-4)" points="182.325958 99.2824913 181.805052 102.314721 179.54547 101.927091 180.065505 98.8948606"></polygon>
                        <polygon id="Fill-171" fill="#FEFEFE" mask="url(#mask-4)" points="169.671516 93.70723 171.847474 95.8831882 170.653223 97.0765679 168.478136 94.9006098"></polygon>
                        <polygon id="Fill-172" fill="#FEFEFE" mask="url(#mask-4)" points="98.891115 32.1956446 99.0034843 35.2705575 97.4738676 35.3271777 97.3606272 32.2513937"></polygon>
                        <polygon id="Fill-173" fill="#FEFEFE" mask="url(#mask-4)" points="137.087631 33.0587108 137.211324 36.1362369 134.424739 36.2477352 134.301916 33.1702091"></polygon>
                        <polygon id="Fill-174" fill="#FEFEFE" mask="url(#mask-4)" points="133.002787 32.1493031 133.116028 35.224216 130.332056 35.3261324 130.218815 32.2512195"></polygon>
                        <polygon id="Fill-175" fill="#FEFEFE" mask="url(#mask-4)" points="186.34878 59.3858885 187.967247 57.2761324 190.331359 59.0897213 188.713763 61.1994774"></polygon>
                        <polygon id="Fill-176" fill="#FEFEFE" mask="url(#mask-4)" points="189.834495 63.5461672 192.81446 63.5461672 192.81446 60.8876307 189.834495 60.8876307"></polygon>
                        <polygon id="Fill-177" fill="#FEFEFE" mask="url(#mask-4)" points="193.568815 67.2804878 196.54878 67.2804878 196.54878 64.6219512 193.568815 64.6219512"></polygon>
                        <polygon id="Fill-178" fill="#FEFEFE" mask="url(#mask-4)" points="197.304007 71.0148084 200.283972 71.0148084 200.283972 68.3562718 197.304007 68.3562718"></polygon>
                        <polygon id="Fill-179" fill="#FEFEFE" mask="url(#mask-4)" points="167.428571 62.0522648 170.408537 62.0522648 170.408537 59.3937282 167.428571 59.3937282"></polygon>
                        <path d="M107.20723,5.08031359 C106.398868,5.08031359 105.612282,5.34250871 104.966812,5.82682927 L90.6558362,16.4479094 C90.0216899,16.9278746 89.2481707,17.1900697 88.4528746,17.1952962 L65.2995645,17.1952962 C63.2664634,17.215331 61.6227352,18.8581882 61.6024109,20.8921603 L61.6024109,105.588153 C61.577439,107.626481 63.2089721,109.298084 65.2464286,109.322504 L65.2995645,109.322504 L88.6392857,109.322504 C89.4946864,109.325958 90.3239547,109.029791 90.9842334,108.486237 L104.97378,96.9470383 C106.581794,95.6552265 108.931969,95.9130662 110.22378,97.5210801 L110.254268,97.5594077 L118.12622,107.829443 C118.825697,108.743206 119.911063,109.279791 121.060889,109.278049 L215.870993,109.278049 C217.93284,109.278049 219.605314,107.606446 219.605314,105.543728 L219.605314,20.8695122 C219.585279,18.8216028 217.918902,17.1726481 215.870993,17.1726481 L120.762979,17.1726481 C119.666289,17.1726481 118.625348,16.6857143 117.925,15.8425087 L110.045209,6.40958188 C109.343118,5.56724739 108.30392,5.08031359 107.20723,5.08031359 M107.20723,8.06802193 C107.41716,8.06637631 107.617509,8.15958188 107.752526,8.32160279 L115.631446,17.7771777 C116.90061,19.2998258 118.781272,20.1787456 120.762979,20.1752613 L215.870993,20.1752613 C216.269077,20.1743902 216.597474,20.487108 216.61838,20.8843206 L216.61838,105.581185 C216.61838,105.994077 216.283885,106.3277 215.870993,106.3277 L121.060889,106.3277 C120.843118,106.322474 120.638415,106.221429 120.501655,106.051568 L112.629704,95.7815331 C111.36838,94.1229965 109.402352,93.1526132 107.318728,93.160453 C105.775174,93.1560976 104.277787,93.6839721 103.076568,94.6543554 L89.0870209,106.118641 C88.9624564,106.223171 88.8030488,106.27892 88.6392857,106.275436 L65.3291812,106.275436 C64.9415505,106.280662 64.6227352,105.970557 64.6175087,105.582056 C64.6175087,105.564634 64.6175087,105.546341 64.6192509,105.52892 L64.6192509,20.8695122 C64.6384146,20.4862369 64.9450348,20.1787456 65.3291812,20.160453 L88.4824913,20.160453 C89.9154181,20.1578397 91.3108885,19.6970383 92.4633275,18.845122 L106.781272,8.21010453 C106.902352,8.11602787 107.053049,8.06550523 107.20723,8.06802193" id="Fill-180" fill="#FEFEFE" mask="url(#mask-4)"></path>
                        <path d="M145.782317,91.8013066 C145.546254,91.8013066 145.307578,91.7272648 145.106359,91.5730836 C142.247474,89.4006098 139.869425,86.5652439 138.229181,83.3727352 C137.94608,82.8222125 138.162979,82.1471254 138.713502,81.8648955 C139.262282,81.5835366 139.939983,81.7978223 140.221341,82.3483449 C141.710017,85.2455575 143.868554,87.8178571 146.460889,89.7891115 C146.95392,90.163676 147.049739,90.8657666 146.675174,91.3587979 C146.454791,91.6488676 146.120296,91.8013066 145.782317,91.8013066" id="Fill-181" fill="#FEFEFE" mask="url(#mask-4)"></path>
                        <path d="M111.904617,71.5529617 C111.904617,70.0590592 111.239983,68.8421603 110.410714,68.8421603 C109.582317,68.8421603 108.916812,70.0520906 108.916812,71.5529617 C108.916812,71.9170732 108.956882,72.2803136 109.037021,72.6365854 C108.92378,72.5756098 108.799216,72.5425087 108.670296,72.5390244 C107.580575,72.5390244 106.692073,74.7794425 106.692073,77.5956446 C106.692073,80.4109756 107.580575,82.6513937 108.670296,82.6513937 C109.760889,82.6513937 110.642422,80.4109756 110.642422,77.5956446 C110.658101,76.4501742 110.486498,75.3090592 110.134582,74.219338 C110.218206,74.2498258 110.307056,74.2646341 110.396777,74.2646341 C111.239983,74.2341463 111.904617,73.0468641 111.904617,71.5529617" id="Fill-182" fill="#3B8637" mask="url(#mask-4)"></path>
                        <path d="M114.563763,25.9930314 C114.563763,21.0034843 112.882578,16.8283972 110.604704,15.641115 C110.134321,13.1768293 108.879965,11.4067944 107.408711,11.4067944 C105.534146,11.4067944 104.010627,14.2517422 104.010627,17.7552265 C104.001916,18.9381533 104.190941,20.1141115 104.569861,21.2360627 C104.191812,22.7926829 104.002787,24.3902439 104.010627,25.9930314 C103.995819,27.8519164 104.24669,29.7029617 104.757143,31.4904181 C103.715331,33.0296167 103.191812,34.8614983 103.26324,36.7186411 C103.26324,40.2290941 104.757143,43.0670732 106.654355,43.0670732 C108.551568,43.0670732 110.052439,40.2290941 110.052439,36.7186411 L110.052439,36.5391986 C112.606446,35.7996516 114.563763,31.3632404 114.563763,25.9930314" id="Fill-183" fill="#3B8637" mask="url(#mask-4)"></path>
                        <path d="M119.806446,17.0304878 L119.806446,108.979094 C119.111324,108.716028 118.50331,108.263066 118.05122,107.672474 L110.478049,97.7839721 C109.126132,96.0243902 106.603484,95.6933798 104.843902,97.0452962 C104.809059,97.0722997 104.775087,97.0984321 104.741986,97.1263066 L101.754181,99.6132404 L101.754181,8.24738676 L104.824739,5.9695122 C106.530314,4.69947735 108.93101,4.98432056 110.291638,6.61933798 L117.887456,15.7160279 C118.380488,16.337108 119.049477,16.7952962 119.806446,17.0304878" id="Fill-184" fill="#FEFEFE" mask="url(#mask-4)"></path>
                        <path d="M91.58223,52.3135017 C91.5987805,52.2551394 91.6188153,52.1976481 91.6414634,52.141899 C92.1719512,50.7594948 93.2102787,50.3640244 92.8296167,48.512108 C92.3731707,46.500784 90.3722997,45.2394599 88.3609756,45.6959059 C87.6919861,45.8483449 87.0778746,46.1810976 86.5857143,46.6593206 C86.1179443,47.1462544 85.4681185,47.4162892 84.7930314,47.4067073 C83.1292683,47.4310976 81.6667247,48.5164634 81.1632404,50.1027003 C80.7599303,51.4093206 81.5587108,53.1723868 79.669338,53.6575784 C78.9158537,53.8004355 78.1362369,53.7202962 77.4289199,53.4258711 C75.6667247,52.8361498 73.843554,52.2385889 71.9994774,52.8439895 C68.3827526,54.0356272 66.4167247,57.9328397 67.6092334,61.5486934 C68.05,62.8875436 68.8914634,64.0591463 70.0195122,64.9058362 C70.5334495,65.3047909 70.7303136,65.9912021 70.5055749,66.6009582 C69.4750871,69.3648955 70.8801394,72.4398084 73.6440767,73.4702962 C74.3566202,73.7351045 75.1170732,73.8457317 75.8749129,73.7934669 C78.7947735,73.5748258 81.0151568,71.0800523 80.8940767,68.1549652 C80.8940767,68.3344077 82.9184669,67.4084495 83.1353659,67.250784 C85.0090592,65.9964286 85.2634146,64.7490418 87.5264808,64.0913763 C91.0665505,63.0608885 91.7912892,60.3570557 91.1493031,57.1009582 C91.0987805,56.8901568 91.0796167,56.6741289 91.0891986,56.4589721 C91.1519164,56.1793554 91.2520906,55.9110627 91.3879791,55.6593206 C91.8888502,54.4493902 91.3357143,53.2542683 91.58223,52.3135017" id="Fill-185" fill="#3B8637" mask="url(#mask-4)"></path>
                        <path d="M99.8498258,66.3247387 C99.8637631,65.0747387 99.178223,63.9214286 98.0728223,63.3369338 C95.3611498,62.0529617 92.3733449,65.2419861 93.830662,67.8709059 C92.374216,67.5642857 90.8559233,67.8839721 89.6477352,68.752439 C89.4247387,68.9458188 89.1729965,69.1017422 88.9012195,69.2149826 C88.5327526,69.2829268 88.1555749,69.2829268 87.7879791,69.2149826 C86.2418118,69.1679443 84.8054007,70.012892 84.0980836,71.3883275 C82.9029617,73.4423345 83.395993,72.7480836 81.1102787,72.7480836 C79.3001742,72.6984321 77.7932056,74.1261324 77.743554,75.9362369 C77.7426829,75.9684669 77.7418118,76.0015679 77.7418118,76.0337979 C77.7452962,76.2001742 77.7627178,76.3648084 77.7949477,76.5268293 L77.6973868,76.5268293 C72.3350174,76.5372822 67.9970383,80.8926829 68.005736,86.2550523 C68.0101045,88.3308362 68.6790941,90.35 69.9151568,92.0181185 C69.1869338,92.8926829 68.7853659,93.9937282 68.7792683,95.13223 C68.7792683,98.0146341 71.3263066,100.360453 74.4630662,100.360453 C76.8010453,100.41446 78.9325784,99.0303136 79.8332753,96.8726481 C80.0763066,96.1252613 80.6172474,95.5120209 81.3271777,95.1775261 C83.7574913,94.1662021 85.6364111,92.1583624 86.4804878,89.6644599 C86.9508711,88.4031359 86.9369338,86.8787456 87.4587108,85.6844948 C88.1163763,84.1905923 89.438676,84.1905923 90.6416376,83.1296167 C91.9926829,81.9127178 92.3663763,80.6200348 92.8071429,78.9170732 C93.0527875,77.9614983 94.4874564,77.9989547 95.2574913,77.5503484 C96.2078397,76.9815331 96.9560976,76.1270035 97.3933798,75.1078397 C98.1398955,73.2785714 96.9526132,72.1209059 97.1015679,70.4850174 C97.2209059,69.1775261 98.4761324,69.3125436 99.3419861,68.0721254 C99.6860627,67.5555749 99.8637631,66.9458188 99.8498258,66.3247387" id="Fill-186" fill="#3B8637" mask="url(#mask-4)"></path>
                        <path d="M215.62439,56.7496516 C215.627875,54.3837979 214.07561,52.2966899 211.807317,51.6189895 C211.795122,47.7374564 208.638328,44.6006969 204.756794,44.6128565 C200.875261,44.6250871 197.739373,47.7818815 197.750697,51.6634146 C197.709756,54.3890244 199.316899,56.8698606 201.822125,57.9447735 C204.279443,58.8707317 203.144425,60.1851916 203.69669,62.134669 C204.569512,64.9560976 207.563415,66.537108 210.384843,65.6642857 C212.650523,64.9648084 214.185366,62.8550523 214.153136,60.4839721 C215.111324,59.4787456 215.639199,58.1390244 215.62439,56.7496516" id="Fill-187" fill="#3B8637" mask="url(#mask-4)"></path>
                        <path d="M187.586498,63.0981707 C186.986324,62.4370209 186.427091,61.7384146 185.913153,61.0075784 C184.576916,59.1025261 184.569077,58.1835366 184.419251,55.9657666 C184.277265,53.8969512 183.672735,51.5215157 182.178833,49.9910279 C182.403571,49.2392857 182.561237,48.4692509 182.649216,47.6905052 C182.623955,46.6626307 182.219774,45.6809233 181.514199,44.9335366 C178.780749,42.2305749 177.541202,45.5537456 176.330401,47.3612369 C175.397474,48.7654181 173.820819,49.1835366 173.820819,51.2976481 C173.811237,52.5807491 174.459321,53.7793554 175.53946,54.4718641 C175.486324,54.4718641 175.486324,59.1025261 175.53946,59.394338 C175.590854,59.6617596 175.566463,59.937892 175.472387,60.1931185 C175.347822,60.405662 175.186672,60.5929443 174.994164,60.7453833 C173.955836,61.7105401 173.360889,63.0615854 173.350436,64.4797038 C173.350436,67.0415505 175.255488,69.2227352 177.928833,70.0737805 C178.564721,72.829878 181.424477,74.9065331 184.852178,74.9065331 C188.758972,74.9065331 191.91838,72.2253484 191.91838,68.9317944 C191.91838,66.9666376 190.909669,65.8690767 189.438415,64.7567073 C188.77378,64.2593206 188.153571,63.7044425 187.586498,63.0981707" id="Fill-188" fill="#3B8637" mask="url(#mask-4)"></path>
                        <path d="M175.434756,28.8461672 C174.751829,28.8679443 174.075871,28.9968641 173.433014,29.2268293 C171.475697,29.974216 171.326742,27.9271777 169.698693,27.8679443 C167.861585,27.8008711 167.883362,29.7425087 167.316289,30.8932056 C166.568902,32.3862369 165.464373,33.3121951 166.039286,35.2172474 C166.785801,37.5552265 168.399042,36.5839721 170.094164,36.4271777 C172.149042,36.2407666 173.403397,37.9733449 175.3973,37.9733449 C178.084582,38.0700348 180.345035,35.9768293 180.45392,33.2904181 C180.483537,30.1902439 177.995732,28.756446 175.434756,28.8461672" id="Fill-189" fill="#3B8637" mask="url(#mask-4)"></path>
                        <path d="M131.809321,80.7546167 C131.428659,79.7014808 131.338937,78.6117596 130.547125,77.6622822 C129.755314,76.713676 128.561063,75.1605401 127.110714,75.4819686 C125.841551,75.7650697 125.229181,77.2737805 125.229181,78.4689024 L125.229181,78.5141986 C124.731794,79.1370209 124.467857,79.9131533 124.482666,80.7101916 C124.482666,81.8896341 125.266638,82.5690767 125.431272,83.6300523 C125.6473,84.996777 125.057578,85.9610627 125.879007,87.2598432 C126.713502,88.540331 128.137718,89.312108 129.665592,89.3138502 C131.864199,89.300784 133.712631,87.6570557 133.982666,85.475 C134.198693,83.8243031 133.183014,83.062108 132.346777,81.8600174 C132.115941,81.5194251 131.934756,81.1474739 131.809321,80.7546167" id="Fill-190" fill="#3B8637" mask="url(#mask-4)"></path>
                        <path d="M170.355401,77.7747387 C169.803136,77.1022648 169.780488,75.810453 168.861498,75.212892 C168.594948,75.0630662 168.344077,74.8853659 168.114983,74.6824042 C167.689024,74.2120209 167.719512,73.4803136 167.412892,72.9202091 C166.852787,72.1423345 165.925087,71.7163763 164.970383,71.8 C162.506098,71.8 159.697735,71.5752613 159.697735,74.9289199 C159.697735,76.4228223 161.46777,78.4768293 162.133275,79.8662021 C162.535714,80.7102787 163.253484,81.3601045 163.58885,82.2634146 C163.970383,83.2642857 163.775261,84.2198606 164.574913,85.0865854 C165.662892,86.2137631 167.16899,86.8409408 168.735192,86.8191638 C172.006969,86.8191638 175.180314,83.83223 173.612369,80.4785714 C173.077526,79.3426829 172.082753,78.4890244 170.87892,78.1336237 C170.673345,78.0656794 170.49216,77.941115 170.355401,77.7747387" id="Fill-191" fill="#3B8637" mask="url(#mask-4)"></path>
                        <path d="M189.789721,83.3984321 C189.021429,83.0404181 188.193031,82.8304878 187.347213,82.7790941 C185.85331,82.7790941 182.51446,83.8914634 182.51446,85.7660279 C182.51446,87.4768293 184.136411,87.6109756 185.382927,88.0813589 C186.630314,88.5526132 187.870732,89.8069686 189.356794,89.8069686 C190.656446,89.8069686 192.591115,89.060453 193.045819,87.625784 C193.703484,85.5421603 191.366376,84.0857143 189.789721,83.3984321" id="Fill-192" fill="#3B8637" mask="url(#mask-4)"></path>
                        <path d="M153.184756,72.7629791 C154.954791,72.7629791 156.38946,73.9398084 156.38946,75.391899 C156.38946,76.8439895 154.954791,78.0208188 153.184756,78.0208188 C151.415592,78.0208188 149.980923,76.8439895 149.980923,75.391899 C149.980923,73.9398084 151.415592,72.7629791 153.184756,72.7629791" id="Fill-193" fill="#3B8637" mask="url(#mask-4)"></path>
                        <path d="M90.3946864,16.6647213 L90.3946864,108.598519 C89.8711672,108.939983 89.2753484,109.152526 88.6542683,109.217857 L88.6542683,17.3894599 C89.2849303,17.291899 89.8816202,17.0436411 90.3946864,16.6647213" id="Fill-194" fill="#1B1D37" mask="url(#mask-4)"></path>
                        <path d="M190.576568,70.1833624 C188.612282,70.1833624 187.023432,69.1511324 187.023432,67.8810976 C187.023432,66.6101916 188.612282,65.5779617 190.576568,65.5779617 C192.540854,65.5779617 194.127091,66.6067073 194.127091,67.8810976 C194.127091,69.1546167 192.537369,70.1833624 190.576568,70.1833624 M190.576568,60.9368467 C187.590505,60.9368467 184.903223,61.6964286 182.912805,62.9272648 L182.912805,73.3845819 C184.904965,75.2948606 187.03824,77.0518293 189.292596,78.6432927 C190.191551,79.2129791 191.337021,79.2129791 192.235105,78.6432927 C195.198519,76.4603659 201.644512,71.1755226 201.644512,68.1232578 C201.63493,64.1485192 196.685453,60.9368467 190.576568,60.9368467" id="Fill-195" fill="#1B1D37" mask="url(#mask-4)"></path>
                        <path d="M187.173955,67.8810105 C187.173955,66.6066202 188.759321,65.5778746 190.723606,65.5778746 C192.687892,65.5778746 194.276742,66.6101045 194.276742,67.8810105 C194.276742,69.1510453 192.687892,70.1832753 190.723606,70.1832753 C188.762805,70.1832753 187.173955,69.1545296 187.173955,67.8810105 M179.655662,68.1231707 C179.655662,71.1754355 186.102526,76.4602787 189.06507,78.6432056 C189.963153,79.212892 191.109495,79.212892 192.007578,78.6432056 C194.262805,77.0517422 196.395209,75.2947735 198.38824,73.3844948 L198.38824,62.9271777 C196.396951,61.6963415 193.709669,60.9367596 190.723606,60.9367596 C184.615592,60.9367596 179.666115,64.1484321 179.655662,68.1231707" id="Fill-196" fill="#1B1D37" mask="url(#mask-4)"></path>
                        <path d="M190.596951,63.6179443 C188.358275,63.6179443 186.542944,61.8026132 186.542944,59.5639373 C186.542944,57.3243902 188.358275,55.5090592 190.596951,55.5090592 C192.835627,55.5090592 194.650958,57.3243902 194.650958,59.5639373 C194.650958,61.8026132 192.835627,63.6179443 190.596951,63.6179443 L190.596951,63.6179443 Z M190.596951,47.3444251 C183.634408,47.3444251 177.988937,52.9890244 177.988937,59.952439 C177.988937,65.333101 185.643118,74.669338 189.133537,78.495122 C189.971516,79.4149826 191.396603,79.4811847 192.316463,78.6432056 C192.37831,78.5874564 192.436672,78.5273519 192.491551,78.4646341 C195.873084,74.6266551 203.231098,65.3200348 203.231098,59.952439 C203.231098,52.9890244 197.586498,47.3444251 190.623084,47.3444251 L190.596951,47.3444251 Z" id="Fill-197" fill="#23366A" mask="url(#mask-4)"></path>
                        <path d="M203.251481,59.7129791 C203.122561,65.1014808 195.865592,74.2748258 192.515418,78.0797038 C191.693118,79.0143728 190.270645,79.1067073 189.335105,78.2852787 C189.273258,78.2304007 189.214024,78.1711672 189.157404,78.1101916 C185.700958,74.320993 178.153049,65.1180314 178.016289,59.7129791 L178.016289,60.0448606 C178.016289,65.4263937 185.669599,74.7626307 189.160017,78.5875436 C189.997997,79.5074042 191.423084,79.5736063 192.343815,78.7356272 C192.404791,78.679878 192.463153,78.6206446 192.518031,78.5579268 C195.899564,74.7190767 203.257578,65.4124564 203.257578,60.0448606 C203.254965,59.929007 203.254965,59.8192509 203.251481,59.7129791" id="Fill-198" fill="#FEFEFE" mask="url(#mask-4)"></path>
                        <path d="M194.677613,59.4012195 C194.550436,61.634669 192.63493,63.341115 190.402352,63.2139373 C188.346603,63.0963415 186.70723,61.4560976 186.589634,59.4012195 L186.589634,59.6372822 C186.589634,61.8759582 188.404965,63.6912892 190.643641,63.6912892 C192.882317,63.6912892 194.697648,61.8759582 194.697648,59.6372822 C194.688066,59.5571429 194.684582,59.4804878 194.677613,59.4012195" id="Fill-199" fill="#FEFEFE" mask="url(#mask-4)"></path>
                        <path d="M37.136324,24.434669 L118.453397,1.12979094 C120.309669,0.597560976 122.246951,1.67160279 122.779181,3.52874564 L152.343641,106.684669 C152.875,108.541812 151.801829,110.478223 149.944686,111.011324 L68.6276132,134.316202 C66.7704704,134.847561 64.8331882,133.773519 64.3018293,131.917247 L34.7373693,28.761324 C34.2051394,26.9033101 35.2791812,24.966899 37.136324,24.434669" id="Fill-200" fill="#23366A" mask="url(#mask-4)"></path>
                        <path d="M35.6612369,23.8519164 L118.51838,0.105400697 C119.950436,-0.304878049 121.444338,0.522648084 121.853746,1.95470383 L151.859843,106.651568 C152.269251,108.082753 151.441725,109.576655 150.009669,109.986934 L67.1525261,133.733449 C65.7213415,134.143728 64.227439,133.315331 63.8171603,131.884146 L33.8119338,27.1872822 C33.4016551,25.7552265 34.2291812,24.2621951 35.6612369,23.8519164" id="Fill-201" fill="#FEFEFE" mask="url(#mask-4)"></path>
                        <polygon id="Fill-202" fill="#EAF0FA" mask="url(#mask-4)" points="55.8824042 24.1577526 116.472125 6.79277003 128.642857 49.2605401 68.0531359 66.6255226"></polygon>
                        <polygon id="Fill-203" fill="#D0CED0" mask="url(#mask-4)" points="78.6929443 105.082317 107.631098 96.7887631 113.442944 117.066638 84.5047909 125.360192"></polygon>
                        <polygon id="Fill-204" fill="#23366A" mask="url(#mask-4)" points="113.179704 116.939286 84.1979965 125.245906 97.5551394 116.576916"></polygon>
                        <polygon id="Fill-205" fill="#81BBE7" mask="url(#mask-4)" points="105.362108 111.282753 99.9335366 111.220906 97.6060105 103.098955 102.997997 102.90993"></polygon>
                        <polygon id="Fill-206" fill="#D0CED0" mask="url(#mask-4)" points="110.825087 95.8614983 139.76324 87.5679443 145.575087 107.845819 116.636934 116.138502"></polygon>
                        <polygon id="Fill-207" fill="#23366A" mask="url(#mask-4)" points="145.574739 107.845645 116.566028 116.182753 118.337805 108.75331 140.224564 102.457143"></polygon>
                        <polygon id="Fill-208" fill="#81BBE7" mask="url(#mask-4)" points="116.564547 96.880662 122.54277 95.1672474 125.797125 106.520035 119.818031 108.234321"></polygon>
                        <polygon id="Fill-209" fill="#582C83" mask="url(#mask-4)" points="37.7844948 28.8142857 49.1573171 25.5547038 52.4160279 36.9266551 41.0440767 40.1862369"></polygon>
                        <polygon id="Fill-210" fill="#DF247B" mask="url(#mask-4)" points="41.3666376 41.3109756 52.7385889 38.0522648 53.0887631 39.2752613 41.7168118 42.5339721"></polygon>
                        <polygon id="Fill-211" fill="#23366A" mask="url(#mask-4)" points="68.8924216 71.4708188 130.120645 53.9229094 130.470819 55.1459059 69.2425958 72.6938153"></polygon>
                        <polygon id="Fill-212" fill="#23366A" mask="url(#mask-4)" points="69.9439024 75.1393728 113.24878 62.728223 113.598084 63.9512195 70.2940767 76.3623693"></polygon>
                        <polygon id="Fill-213" fill="#23366A" mask="url(#mask-4)" points="70.9952962 78.8074042 132.223519 61.2594948 132.573693 62.4824913 71.3454704 80.0304007"></polygon>
                        <polygon id="Fill-214" fill="#23366A" mask="url(#mask-4)" points="72.0466899 82.4758711 133.274913 64.9279617 133.625087 66.1509582 72.3968641 83.6988676"></polygon>
                        <polygon id="Fill-215" fill="#23366A" mask="url(#mask-4)" points="73.0981707 86.1444251 134.326394 68.5965157 134.676568 69.8195122 73.4483449 87.3674216"></polygon>
                        <polygon id="Fill-216" fill="#23366A" mask="url(#mask-4)" points="74.1495645 89.812892 131.793293 73.2928571 132.143467 74.5149826 74.4997387 91.0358885"></polygon>
                        <polygon id="Fill-217" fill="#23366A" mask="url(#mask-4)" points="75.2009582 93.4813589 136.429181 75.9334495 136.779355 77.156446 75.5511324 94.7043554"></polygon>
                        <polygon id="Fill-218" fill="#23366A" mask="url(#mask-4)" points="76.252439 97.1498258 119.556446 84.738676 119.90662 85.9616725 76.6026132 98.3719512"></polygon>
                        <polygon id="Fill-219" fill="#23366A" mask="url(#mask-4)" points="77.3038328 100.817944 138.531185 83.2700348 138.881359 84.4930314 77.654007 102.040941"></polygon>
                        <polygon id="Fill-220" fill="#80BCE6" mask="url(#mask-4)" points="78.2574042 33.418554 100.525697 26.8654181 108.629355 54.4037456 86.3619338 60.9568815"></polygon>
                        <polygon id="Fill-221" fill="#233668" mask="url(#mask-4)" points="76.6224739 27.8632404 98.8907666 21.3101045 100.525784 26.8649826 78.2574913 33.4181185"></polygon>
                        <polygon id="Fill-222" fill="#80BCE6" mask="url(#mask-4)" points="98.7609756 28.0554878 81.5728223 33.1138502 86.4334495 17.546777"></polygon>
                        <polygon id="Fill-223" fill="#1B1D37" mask="url(#mask-4)" points="85.3068815 48.7824042 91.2415505 47.0358885 94.6788328 58.7162021 88.7432927 60.4627178"></polygon>
                        <polygon id="Fill-224" fill="#E31D1F" mask="url(#mask-4)" points="128.737544 49.0966899 68.4091463 66.6811847 68.2697735 66.206446 128.598171 48.6219512"></polygon>
                        <polygon id="Fill-225" fill="#FEFEFE" mask="url(#mask-4)" points="85.3034843 44.9139373 91.7608014 43.0132404 92.0264808 43.9156794 85.5691638 45.8163763"></polygon>
                        <polygon id="Fill-226" fill="#233668" mask="url(#mask-4)" points="83.4643728 35.8590592 88.4966028 34.3773519 91.1098432 43.2571429 86.0767422 44.7379791"></polygon>
                        <polygon id="Fill-227" fill="#80BCE6" mask="url(#mask-4)" points="88.8311847 43.9271777 88.356446 44.0674216 85.7013937 35.0456446 86.1761324 34.9062718"></polygon>
                        <polygon id="Fill-228" fill="#80BCE6" mask="url(#mask-4)" points="90.341115 38.8912892 84.3585366 40.6517422 84.2191638 40.1770035 90.2017422 38.4165505"></polygon>
                        <polygon id="Fill-229" fill="#FEFEFE" mask="url(#mask-4)" points="94.3247387 42.2590592 100.782056 40.3583624 101.047735 41.2608014 94.5904181 43.1614983"></polygon>
                        <polygon id="Fill-230" fill="#233668" mask="url(#mask-4)" points="92.4856272 33.2041812 97.5178571 31.7233449 100.131098 40.6022648 95.0979965 42.083101"></polygon>
                        <polygon id="Fill-231" fill="#80BCE6" mask="url(#mask-4)" points="97.852439 41.2727352 97.3777003 41.412108 94.7226481 32.3912021 95.1973868 32.2518293"></polygon>
                        <polygon id="Fill-232" fill="#80BCE6" mask="url(#mask-4)" points="99.3623693 36.236324 93.3797909 37.996777 93.2404181 37.5220383 99.2229965 35.7615854"></polygon>
                        <polygon id="Fill-233" fill="#FEFEFE" mask="url(#mask-4)" points="96.672561 55.4979094 103.129878 53.5980836 103.395557 54.4996516 96.9382404 56.4003484"></polygon>
                        <polygon id="Fill-234" fill="#233668" mask="url(#mask-4)" points="94.8334495 46.4430314 99.8665505 44.9621951 102.47892 53.841115 97.4466899 55.3219512"></polygon>
                        <polygon id="Fill-235" fill="#80BCE6" mask="url(#mask-4)" points="100.200348 54.5115854 99.7256098 54.6509582 97.0705575 45.6300523 97.5452962 45.4906794"></polygon>
                        <polygon id="Fill-236" fill="#80BCE6" mask="url(#mask-4)" points="101.711063 49.4752613 95.7276132 51.2357143 95.5882404 50.7609756 101.570819 49.0005226"></polygon>
                        <polygon id="Fill-237" fill="#80BCE6" mask="url(#mask-4)" points="82.7063589 62.0348432 82.229878 62.1707317 80.4607143 55.9843206 80.9371951 55.8484321"></polygon>
                        <polygon id="Fill-238" fill="#233668" mask="url(#mask-4)" points="76.936324 52.9480836 82.20723 51.397561 83.2969512 55.1005226 78.0260453 56.6510453"></polygon>
                        <polygon id="Fill-239" fill="#FEFEFE" mask="url(#mask-4)" points="86.1617596 49.4080139 90.862108 48.0247387 91.9100174 51.5857143 87.2087979 52.9689895"></polygon>
                        <path d="M89.1178571,59.1915505 L90.8748258,58.675 L89.3652439,53.5469512 L87.6091463,54.0635017 L89.1178571,59.1915505 Z M91.0594948,58.7751742 L89.0168118,59.3762195 L87.4244774,53.9633275 L89.4662892,53.3622822 L91.0594948,58.7751742 Z" id="Fill-240" fill="#FEFEFE" mask="url(#mask-4)"></path>
                        <path d="M91.7770035,58.408885 L93.5339721,57.8923345 L92.0243902,52.7642857 L90.2682927,53.2808362 L91.7770035,58.408885 Z M93.7186411,57.9925087 L91.6768293,58.593554 L90.0836237,53.180662 L92.1254355,52.5796167 L93.7186411,57.9925087 Z" id="Fill-241" fill="#FEFEFE" mask="url(#mask-4)"></path>
                    </g>
                </g>
            </g>
        </g>
    </g>
</svg>