<?xml version="1.0" encoding="UTF-8"?>
<svg width="260px" height="129px" viewBox="0 0 260 129" version="1.1" xmlns="http://www.w3.org/2000/svg" xmlns:xlink="http://www.w3.org/1999/xlink">
    <title>Group 139</title>
    <defs>
        <polygon id="path-1" points="1.16051187e-15 0 259.999964 0 259.999964 118.131352 1.16051187e-15 118.131352"></polygon>
        <polygon id="path-3" points="0 128.650697 260 128.650697 260 0 0 0"></polygon>
    </defs>
    <g id="Save-&amp;-Return-flow-sign-up" stroke="none" stroke-width="1" fill="none" fill-rule="evenodd">
        <g id="Mortgage-dashboard-mobile" transform="translate(-33.000000, -1653.000000)">
            <g id="Steps" transform="translate(17.000000, 599.000000)">
                <g id="Step3" transform="translate(0.000000, 1034.000000)">
                    <g id="Group-139" transform="translate(16.000000, 20.000000)">
                        <path d="M101.353833,64.8171603 L100.650871,64.6908537 C61.2022648,56.8781359 22.889547,82.5236063 15.0768293,121.972213 C15.0167247,122.277962 14.9574913,122.585453 14.9008711,122.892619 L180.166551,122.892619 C184.55331,122.931272 188.692683,120.858972 191.289373,117.323258 L206.555923,95.9408537 L199.927003,89.1847561 C197.11777,86.1159408 195.54547,82.4922474 195.573345,78.9042683 L196.001045,33.0053136 C195.949652,25.477439 189.904355,19.3641986 182.378223,19.227439 L153.508885,18.9607289 C146.094251,18.9251742 140.046341,24.8894599 139.976655,32.303223 L139.850348,46.1516551 C139.813763,47.3964286 139.37561,48.5959059 138.600348,49.5715157 C137.541986,50.8763937 135.92439,51.5985192 134.24669,51.5166376 L118.888676,51.3763937 C115.152613,51.3763937 110.841638,54.1011324 110.384321,58.6237805 C110.201394,60.4486934 109.765854,62.7030488 108.024564,64.009669 C106.697909,64.999216 104.822474,65.3154181 102.294599,64.9713415 L101.543728,64.8310976 L101.353833,64.8171603 Z" id="Fill-1" fill="#E5F0F9"></path>
                        <g id="Group-5" transform="translate(0.000036, 4.760808)">
                            <mask id="mask-2" fill="white">
                                <use xlink:href="#path-1"></use>
                            </mask>
                            <g id="Clip-4"></g>
                            <path d="M246.597961,0 L76.1362883,0 C71.6310619,-0.0446061632 67.3941281,2.14267607 64.8226995,5.8430245 L2.09883189,98.9179374 C-3.51876393,107.21846 2.80092248,118.005045 13.2225253,118.131352 C19.6685183,82.4553938 50.8592849,56.598251 87.1118981,56.8752545 C91.2233964,56.9153242 95.3235706,57.2916308 99.3732221,57.9989478 L99.2895984,57.8299583 L101.051794,58.3003416 C101.130191,58.3256029 101.209459,58.3438956 101.29047,58.3569618 L101.459459,58.3987736 C101.54047,58.4048712 101.619738,58.4188085 101.697264,58.4405855 C104.204233,58.9048712 105.910679,58.7358816 107.034372,57.9283904 C108.003884,57.2262998 108.516079,55.9336168 108.740818,53.7149757 C109.295696,48.2654984 114.442909,44.9371012 118.901968,44.978913 L134.260853,45.1191569 C135.434198,45.1914566 136.570086,44.6949409 137.315731,43.7855332 C137.860156,43.1026064 138.169389,42.2628851 138.200748,41.3909339 L138.334024,27.5425019 C138.399355,19.2088782 145.196393,12.4998189 153.530017,12.5425019 L182.399355,12.816021 C190.834024,12.9762998 197.606672,19.8290872 197.665905,28.2654984 L197.230365,74.1505158 C197.195522,77.3029548 198.585766,80.5407597 201.128449,83.2794356 L207.539598,89.8308294 L257.714686,19.4876238 C263.669389,11.1661952 257.293083,0 246.597961,0" id="Fill-3" fill="#E5F0F9" mask="url(#mask-2)"></path>
                        </g>
                        <path d="M127.329704,98.1172474 L26.6772648,98.1172474 C24.2844077,98.1172474 22.3445122,96.1773519 22.3445122,93.7844948 L22.2739547,12.6407666 C22.2739547,7.27578397 28.7635017,8.56759582 34.1284843,8.64512195 L127.392422,7.98484321 C129.760889,8.01881533 131.662464,9.94912892 131.662464,12.3175958 L131.662464,93.7775261 C131.666812,96.1703833 129.72953,98.1137631 127.336672,98.1172474 L127.329704,98.1172474 Z" id="Fill-6" fill="#23366A"></path>
                        <path d="M128.958711,97.0641115 L27.8358885,97.0641115 C25.3733449,97.0641115 23.3768293,95.0675958 23.3768293,92.6041812 L23.3768293,12.5702091 C23.3925087,10.2688153 25.2679443,8.41515679 27.5684669,8.42735192 L128.958711,7.72439024 C131.412544,7.72439024 133.405575,9.7087108 133.41777,12.1634146 L133.41777,92.6041812 C133.41777,95.0675958 131.421254,97.0641115 128.958711,97.0641115" id="Fill-8" fill="#FEFEFE"></path>
                        <polygon id="Fill-10" fill="#81BBE7" points="133.375348 16.7839721 23.327439 16.6716028 23.327439 15.9686411 133.375348 16.0818815"></polygon>
                        <path d="M32.899216,21.8679443 C31.1152439,21.8679443 29.6692509,23.3139373 29.6692509,25.0979094 C29.6692509,26.8818815 31.1152439,28.3287456 32.899216,28.3287456 C34.6831882,28.3287456 36.1291812,26.8818815 36.1291812,25.0979094 C36.1256969,23.3156794 34.681446,21.8714286 32.899216,21.8679443 M32.899216,29.0238676 C30.7276132,29.0238676 28.9662892,27.2634146 28.9662892,25.0909408 C28.9662892,22.919338 30.7276132,21.158885 32.899216,21.158885 C35.0708188,21.158885 36.8321429,22.919338 36.8321429,25.0909408 L36.8321429,25.0979094 C36.8277875,27.26777 35.0682056,29.0238676 32.899216,29.0238676" id="Fill-12" fill="#81BBE7"></path>
                        <path d="M32.899216,33.9817944 C34.877439,33.9817944 36.4802265,35.585453 36.4802265,37.5628049 C36.4802265,39.5410279 34.877439,41.1446864 32.899216,41.1446864 C30.920993,41.1446864 29.3182056,39.5410279 29.3182056,37.5628049 C29.3182056,35.585453 30.920993,33.9817944 32.899216,33.9817944" id="Fill-14" fill="#81BBE7"></path>
                        <path d="M32.899216,46.9871951 C34.877439,46.9871951 36.4802265,48.5908537 36.4802265,50.5682056 C36.4802265,52.5464286 34.877439,54.1500871 32.899216,54.1500871 C30.920993,54.1500871 29.3182056,52.5464286 29.3182056,50.5682056 C29.3182056,48.5908537 30.920993,46.9871951 32.899216,46.9871951" id="Fill-16" fill="#81BBE7"></path>
                        <path d="M32.899216,59.4447735 C34.877439,59.4447735 36.4802265,61.0484321 36.4802265,63.0266551 C36.4802265,65.004007 34.877439,66.6076655 32.899216,66.6076655 C30.920993,66.6076655 29.3182056,65.004007 29.3182056,63.0266551 C29.3182056,61.0484321 30.920993,59.4447735 32.899216,59.4447735" id="Fill-18" fill="#81BBE7"></path>
                        <path d="M32.899216,71.9095819 C34.877439,71.9095819 36.4802265,73.5132404 36.4802265,75.4914634 C36.4802265,77.4688153 34.877439,79.0724739 32.899216,79.0724739 C30.920993,79.0724739 29.3182056,77.4688153 29.3182056,75.4914634 C29.3182056,73.5132404 30.920993,71.9095819 32.899216,71.9095819" id="Fill-20" fill="#81BBE7"></path>
                        <path d="M32.899216,84.915331 C34.877439,84.915331 36.4802265,86.5181185 36.4802265,88.4963415 C36.4802265,90.4745645 34.877439,92.078223 32.899216,92.078223 C30.920993,92.078223 29.3182056,90.4745645 29.3182056,88.4963415 C29.3182056,86.5181185 30.920993,84.915331 32.899216,84.915331" id="Fill-22" fill="#81BBE7"></path>
                        <path d="M48.0818815,21.867938 C46.2979094,21.8644599 44.8484321,23.3069686 44.8440704,25.0909408 C44.8405923,26.875784 46.2839721,28.3252613 48.0670732,28.3287519 C49.8519164,28.33223 51.3005226,26.8897213 51.304878,25.104878 L51.304878,25.0979094 C51.304878,23.3174216 49.8632404,21.8714286 48.0818815,21.867938 M48.0818815,29.0238728 C45.9102787,29.0273519 44.1454704,27.2703833 44.1428491,25.0979094 C44.1385017,22.9263066 45.8954704,21.1623693 48.0670732,21.1588798 C50.239547,21.1554007 52.0034843,22.9123693 52.0069686,25.0839721 L52.0069686,25.0979094 C52.0034843,27.2642857 50.2473868,29.0195122 48.0818815,29.0238728" id="Fill-24" fill="#81BBE7"></path>
                        <path d="M48.0818815,33.9817944 C50.0601045,33.9817944 51.662892,35.585453 51.662892,37.5628049 C51.662892,39.5410279 50.0601045,41.1446864 48.0818815,41.1446864 C46.1036585,41.1446864 44.5008711,39.5410279 44.5008711,37.5628049 C44.5008711,35.585453 46.1036585,33.9817944 48.0818815,33.9817944" id="Fill-26" fill="#81BBE7"></path>
                        <path d="M48.0818815,46.9871951 C50.0601045,46.9871951 51.662892,48.5908537 51.662892,50.5682056 C51.662892,52.5464286 50.0601045,54.1500871 48.0818815,54.1500871 C46.1036585,54.1500871 44.5008711,52.5464286 44.5008711,50.5682056 C44.5008711,48.5908537 46.1036585,46.9871951 48.0818815,46.9871951" id="Fill-28" fill="#81BBE7"></path>
                        <path d="M48.0818815,59.4447735 C50.0601045,59.4447735 51.662892,61.0484321 51.662892,63.0266551 C51.662892,65.004007 50.0601045,66.6076655 48.0818815,66.6076655 C46.1036585,66.6076655 44.5008711,65.004007 44.5008711,63.0266551 C44.5008711,61.0484321 46.1036585,59.4447735 48.0818815,59.4447735" id="Fill-30" fill="#81BBE7"></path>
                        <path d="M48.0818815,71.9095819 C50.0601045,71.9095819 51.662892,73.5132404 51.662892,75.4914634 C51.662892,77.4688153 50.0601045,79.0724739 48.0818815,79.0724739 C46.1036585,79.0724739 44.5008711,77.4688153 44.5008711,75.4914634 C44.5008711,73.5132404 46.1036585,71.9095819 48.0818815,71.9095819" id="Fill-32" fill="#81BBE7"></path>
                        <path d="M48.0818815,84.915331 C50.0601045,84.915331 51.662892,86.5181185 51.662892,88.4963415 C51.662892,90.4745645 50.0601045,92.078223 48.0818815,92.078223 C46.1036585,92.078223 44.5008711,90.4745645 44.5008711,88.4963415 C44.5008711,86.5181185 46.1036585,84.915331 48.0818815,84.915331" id="Fill-34" fill="#81BBE7"></path>
                        <path d="M63.2568815,21.8679443 C61.4729094,21.8679443 60.0269164,23.3139373 60.0269164,25.0979094 C60.0269164,26.8818815 61.4729094,28.3287456 63.2568815,28.3287456 C65.0408537,28.3287456 66.4877178,26.8818815 66.4877178,25.0979094 C66.4877178,23.3139373 65.0417247,21.8679443 63.2568815,21.8679443 M63.2568815,29.0238676 C61.0852787,29.0238676 59.3239547,27.2634146 59.3239547,25.0909408 C59.3239547,22.919338 61.0852787,21.158885 63.2568815,21.158885 C65.4284843,21.158885 67.1898084,22.919338 67.1898084,25.0909408 L67.1898084,25.0979094 C67.186324,27.26777 65.4258711,29.0238676 63.2568815,29.0238676" id="Fill-36" fill="#81BBE7"></path>
                        <path d="M63.2568815,33.9817944 C65.2351045,33.9817944 66.837892,35.585453 66.837892,37.5628049 C66.837892,39.5410279 65.2351045,41.1446864 63.2568815,41.1446864 C61.2786585,41.1446864 59.6758711,39.5410279 59.6758711,37.5628049 C59.6758711,35.585453 61.2786585,33.9817944 63.2568815,33.9817944" id="Fill-38" fill="#81BBE7"></path>
                        <path d="M63.2568815,46.9871951 C65.2351045,46.9871951 66.837892,48.5908537 66.837892,50.5682056 C66.837892,52.5464286 65.2351045,54.1500871 63.2568815,54.1500871 C61.2786585,54.1500871 59.6758711,52.5464286 59.6758711,50.5682056 C59.6758711,48.5908537 61.2786585,46.9871951 63.2568815,46.9871951" id="Fill-40" fill="#81BBE7"></path>
                        <path d="M63.2568815,59.4447735 C65.2351045,59.4447735 66.837892,61.0484321 66.837892,63.0266551 C66.837892,65.004007 65.2351045,66.6076655 63.2568815,66.6076655 C61.2786585,66.6076655 59.6758711,65.004007 59.6758711,63.0266551 C59.6758711,61.0484321 61.2786585,59.4447735 63.2568815,59.4447735" id="Fill-42" fill="#81BBE7"></path>
                        <path d="M63.2568815,71.9095819 C65.2351045,71.9095819 66.837892,73.5132404 66.837892,75.4914634 C66.837892,77.4688153 65.2351045,79.0724739 63.2568815,79.0724739 C61.2786585,79.0724739 59.6758711,77.4688153 59.6758711,75.4914634 C59.6758711,73.5132404 61.2786585,71.9095819 63.2568815,71.9095819" id="Fill-44" fill="#81BBE7"></path>
                        <path d="M63.2568815,85.2662892 C61.4729094,85.2662892 60.0269164,86.7122822 60.0269164,88.4962544 C60.0269164,90.2802265 61.4729094,91.7270906 63.2568815,91.7270906 C65.0408537,91.7270906 66.4877178,90.2802265 66.4877178,88.4962544 C66.4877178,86.7122822 65.0417247,85.2662892 63.2568815,85.2662892 M63.2568815,92.4291812 C61.0852787,92.4291812 59.3239547,90.6687282 59.3239547,88.4962544 C59.3239547,86.3246516 61.0852787,84.5641986 63.2568815,84.5641986 C65.4284843,84.5641986 67.1898084,86.3246516 67.1898084,88.4962544 C67.1898084,90.6687282 65.4284843,92.4291812 63.2568815,92.4291812" id="Fill-46" fill="#81BBE7"></path>
                        <path d="M78.439547,21.8679443 C76.6555749,21.8679443 75.2095819,23.3139373 75.2095819,25.0979094 C75.2095819,26.8818815 76.6555749,28.3287456 78.439547,28.3287456 C80.2235192,28.3287456 81.6695122,26.8818815 81.6695122,25.0979094 C81.6695122,23.3139373 80.2235192,21.8679443 78.439547,21.8679443 M78.439547,29.0238676 C76.2679443,29.0238676 74.5066202,27.2634146 74.5066202,25.0909408 C74.5066202,22.919338 76.2679443,21.158885 78.439547,21.158885 C80.6111498,21.158885 82.3724739,22.919338 82.3724739,25.0909408 L82.3724739,25.0979094 C82.3681185,27.26777 80.6085366,29.0238676 78.439547,29.0238676" id="Fill-48" fill="#81BBE7"></path>
                        <path d="M78.439547,33.9817944 C80.41777,33.9817944 82.0205575,35.585453 82.0205575,37.5628049 C82.0205575,39.5410279 80.41777,41.1446864 78.439547,41.1446864 C76.461324,41.1446864 74.8585366,39.5410279 74.8585366,37.5628049 C74.8585366,35.585453 76.461324,33.9817944 78.439547,33.9817944" id="Fill-50" fill="#81BBE7"></path>
                        <path d="M78.439547,46.9871951 C80.41777,46.9871951 82.0205575,48.5908537 82.0205575,50.5682056 C82.0205575,52.5464286 80.41777,54.1500871 78.439547,54.1500871 C76.461324,54.1500871 74.8585366,52.5464286 74.8585366,50.5682056 C74.8585366,48.5908537 76.461324,46.9871951 78.439547,46.9871951" id="Fill-52" fill="#81BBE7"></path>
                        <path d="M78.439547,59.4447735 C80.41777,59.4447735 82.0205575,61.0484321 82.0205575,63.0266551 C82.0205575,65.004007 80.41777,66.6076655 78.439547,66.6076655 C76.461324,66.6076655 74.8585366,65.004007 74.8585366,63.0266551 C74.8585366,61.0484321 76.461324,59.4447735 78.439547,59.4447735" id="Fill-54" fill="#81BBE7"></path>
                        <path d="M78.439547,71.9095819 C80.41777,71.9095819 82.0205575,73.5132404 82.0205575,75.4914634 C82.0205575,77.4688153 80.41777,79.0724739 78.439547,79.0724739 C76.461324,79.0724739 74.8585366,77.4688153 74.8585366,75.4914634 C74.8585366,73.5132404 76.461324,71.9095819 78.439547,71.9095819" id="Fill-56" fill="#81BBE7"></path>
                        <path d="M78.439547,85.2662892 C76.6555749,85.2662892 75.2095819,86.7122822 75.2095819,88.4962544 C75.2095819,90.2802265 76.6555749,91.7270906 78.439547,91.7270906 C80.2235192,91.7270906 81.6695122,90.2802265 81.6695122,88.4962544 C81.6660279,86.7140244 80.221777,85.2697735 78.439547,85.2662892 M78.439547,92.4291812 C76.2679443,92.4291812 74.5066202,90.6687282 74.5066202,88.4962544 C74.5066202,86.3246516 76.2679443,84.5641986 78.439547,84.5641986 C80.6111498,84.5641986 82.3724739,86.3246516 82.3724739,88.4962544 C82.3724739,90.6687282 80.6111498,92.4291812 78.439547,92.4291812" id="Fill-58" fill="#81BBE7"></path>
                        <path d="M93.615331,21.8679443 C91.8304878,21.8679443 90.3844948,23.3139373 90.3844948,25.0979094 C90.3844948,26.8818815 91.8304878,28.3287456 93.615331,28.3287456 C95.3993031,28.3287456 96.8452962,26.8818815 96.8452962,25.0979094 C96.8452962,23.3139373 95.3993031,21.8679443 93.615331,21.8679443 M93.615331,29.0238676 C91.4428571,29.0238676 89.6824042,27.2634146 89.6824042,25.0909408 C89.6824042,22.919338 91.4428571,21.158885 93.615331,21.158885 C95.7869338,21.158885 97.5473868,22.919338 97.5473868,25.0909408 L97.5473868,25.0979094 C97.5439024,27.26777 95.7834495,29.0238676 93.615331,29.0238676" id="Fill-60" fill="#81BBE7"></path>
                        <path d="M93.615331,33.9817944 C95.593554,33.9817944 97.1963415,35.585453 97.1963415,37.5628049 C97.1963415,39.5410279 95.593554,41.1446864 93.615331,41.1446864 C91.637108,41.1446864 90.0334495,39.5410279 90.0334495,37.5628049 C90.0334495,35.585453 91.637108,33.9817944 93.615331,33.9817944" id="Fill-62" fill="#81BBE7"></path>
                        <path d="M93.615331,46.9871951 C95.593554,46.9871951 97.1963415,48.5908537 97.1963415,50.5682056 C97.1963415,52.5464286 95.593554,54.1500871 93.615331,54.1500871 C91.637108,54.1500871 90.0334495,52.5464286 90.0334495,50.5682056 C90.0334495,48.5908537 91.637108,46.9871951 93.615331,46.9871951" id="Fill-64" fill="#81BBE7"></path>
                        <path d="M93.615331,59.4447735 C95.593554,59.4447735 97.1963415,61.0484321 97.1963415,63.0266551 C97.1963415,65.004007 95.593554,66.6076655 93.615331,66.6076655 C91.637108,66.6076655 90.0334495,65.004007 90.0334495,63.0266551 C90.0334495,61.0484321 91.637108,59.4447735 93.615331,59.4447735" id="Fill-66" fill="#81BBE7"></path>
                        <path d="M93.615331,71.9095819 C95.593554,71.9095819 97.1963415,73.5132404 97.1963415,75.4914634 C97.1963415,77.4688153 95.593554,79.0724739 93.615331,79.0724739 C91.637108,79.0724739 90.0334495,77.4688153 90.0334495,75.4914634 C90.0334495,73.5132404 91.637108,71.9095819 93.615331,71.9095819" id="Fill-68" fill="#81BBE7"></path>
                        <path d="M93.615331,85.2662892 C91.8304878,85.2662892 90.3844948,86.7122822 90.3844948,88.4962544 C90.3844948,90.2802265 91.8304878,91.7270906 93.615331,91.7270906 C95.3993031,91.7270906 96.8452962,90.2802265 96.8452962,88.4962544 C96.8452962,86.7122822 95.3993031,85.2662892 93.615331,85.2662892 M93.615331,92.4291812 C91.4428571,92.4291812 89.6824042,90.6687282 89.6824042,88.4962544 C89.6824042,86.3246516 91.4428571,84.5641986 93.615331,84.5641986 C95.7869338,84.5641986 97.5473868,86.3246516 97.5473868,88.4962544 C97.5473868,90.6687282 95.7869338,92.4291812 93.615331,92.4291812" id="Fill-70" fill="#81BBE7"></path>
                        <path d="M108.797125,21.8679443 C107.013153,21.8679443 105.56716,23.3139373 105.56716,25.0979094 C105.56716,26.8818815 107.013153,28.3287456 108.797125,28.3287456 C110.581098,28.3287456 112.027962,26.8818815 112.027962,25.0979094 C112.027962,23.3139373 110.581098,21.8679443 108.797125,21.8679443 M108.797125,29.0238676 C106.625523,29.0238676 104.864199,27.2634146 104.864199,25.0909408 C104.864199,22.919338 106.625523,21.158885 108.797125,21.158885 C110.968728,21.158885 112.730052,22.919338 112.730052,25.0909408 L112.730052,25.0979094 C112.726568,27.26777 110.966115,29.0238676 108.797125,29.0238676" id="Fill-72" fill="#81BBE7"></path>
                        <path d="M108.797125,33.9817944 C110.775348,33.9817944 112.378136,35.585453 112.378136,37.5628049 C112.378136,39.5410279 110.775348,41.1446864 108.797125,41.1446864 C106.818902,41.1446864 105.216115,39.5410279 105.216115,37.5628049 C105.216115,35.585453 106.818902,33.9817944 108.797125,33.9817944" id="Fill-74" fill="#81BBE7"></path>
                        <path d="M108.797125,46.9871951 C110.775348,46.9871951 112.378136,48.5908537 112.378136,50.5682056 C112.378136,52.5464286 110.775348,54.1500871 108.797125,54.1500871 C106.818902,54.1500871 105.216115,52.5464286 105.216115,50.5682056 C105.216115,48.5908537 106.818902,46.9871951 108.797125,46.9871951" id="Fill-76" fill="#81BBE7"></path>
                        <path d="M108.797125,59.4447735 C110.775348,59.4447735 112.378136,61.0484321 112.378136,63.0266551 C112.378136,65.004007 110.775348,66.6076655 108.797125,66.6076655 C106.818902,66.6076655 105.216115,65.004007 105.216115,63.0266551 C105.216115,61.0484321 106.818902,59.4447735 108.797125,59.4447735" id="Fill-78" fill="#81BBE7"></path>
                        <path d="M108.797125,71.9095819 C110.775348,71.9095819 112.378136,73.5132404 112.378136,75.4914634 C112.378136,77.4688153 110.775348,79.0724739 108.797125,79.0724739 C106.818902,79.0724739 105.216115,77.4688153 105.216115,75.4914634 C105.216115,73.5132404 106.818902,71.9095819 108.797125,71.9095819" id="Fill-80" fill="#81BBE7"></path>
                        <path d="M108.797125,85.2662892 C107.013153,85.2662892 105.56716,86.7122822 105.56716,88.4962544 C105.56716,90.2802265 107.013153,91.7270906 108.797125,91.7270906 C110.581098,91.7270906 112.027962,90.2802265 112.027962,88.4962544 C112.023606,86.7140244 110.580226,85.2697735 108.797125,85.2662892 M108.797125,92.4291812 C106.625523,92.4291812 104.864199,90.6687282 104.864199,88.4962544 C104.864199,86.3246516 106.625523,84.5641986 108.797125,84.5641986 C110.968728,84.5641986 112.730052,86.3246516 112.730052,88.4962544 C112.730052,90.6687282 110.968728,92.4291812 108.797125,92.4291812" id="Fill-82" fill="#81BBE7"></path>
                        <path d="M123.979791,21.5170732 C125.958014,21.5170732 127.560801,23.1207317 127.560801,25.0980836 C127.560801,27.0763066 125.958014,28.6799652 123.979791,28.6799652 C122.001568,28.6799652 120.39878,27.0763066 120.39878,25.0980836 C120.39878,23.1207317 122.001568,21.5170732 123.979791,21.5170732" id="Fill-84" fill="#81BBE7"></path>
                        <path d="M123.979791,33.9817944 C125.958014,33.9817944 127.560801,35.585453 127.560801,37.5628049 C127.560801,39.5410279 125.958014,41.1446864 123.979791,41.1446864 C122.001568,41.1446864 120.39878,39.5410279 120.39878,37.5628049 C120.39878,35.585453 122.001568,33.9817944 123.979791,33.9817944" id="Fill-86" fill="#81BBE7"></path>
                        <path d="M123.979791,46.9871951 C125.958014,46.9871951 127.560801,48.5908537 127.560801,50.5682056 C127.560801,52.5464286 125.958014,54.1500871 123.979791,54.1500871 C122.001568,54.1500871 120.39878,52.5464286 120.39878,50.5682056 C120.39878,48.5908537 122.001568,46.9871951 123.979791,46.9871951" id="Fill-88" fill="#81BBE7"></path>
                        <path d="M123.979791,59.4447735 C125.958014,59.4447735 127.560801,61.0484321 127.560801,63.0266551 C127.560801,65.004007 125.958014,66.6076655 123.979791,66.6076655 C122.001568,66.6076655 120.39878,65.004007 120.39878,63.0266551 C120.39878,61.0484321 122.001568,59.4447735 123.979791,59.4447735" id="Fill-90" fill="#81BBE7"></path>
                        <path d="M123.979791,71.9095819 C125.958014,71.9095819 127.560801,73.5132404 127.560801,75.4914634 C127.560801,77.4688153 125.958014,79.0724739 123.979791,79.0724739 C122.001568,79.0724739 120.39878,77.4688153 120.39878,75.4914634 C120.39878,73.5132404 122.001568,71.9095819 123.979791,71.9095819" id="Fill-92" fill="#81BBE7"></path>
                        <path d="M123.979791,85.2662829 C122.195819,85.2628049 120.746341,86.7053136 120.74198,88.4892857 C120.738502,90.2741289 122.181882,91.7227352 123.964983,91.7270969 C125.749826,91.7305749 127.199303,90.2880662 127.202787,88.503223 L127.202787,88.4962544 C127.199303,86.7175087 125.759408,85.2741289 123.979791,85.2662829 M123.979791,92.4291893 C121.808188,92.4335366 120.04338,90.6756969 120.040758,88.503223 C120.036411,86.3316202 121.79338,84.5676829 123.964983,84.5641905 C126.138328,84.5598432 127.901394,86.3176829 127.905749,88.4892857 L127.905749,88.4962544 C127.905749,90.666115 126.14878,92.4256969 123.979791,92.4291893" id="Fill-94" fill="#81BBE7"></path>
                        <path d="M78.3901568,32.9074042 C75.8422474,32.9074042 73.7769164,34.9727352 73.7769164,37.5206446 C73.7769164,40.0694251 75.8422474,42.1347561 78.3901568,42.1347561 C80.9389373,42.1347561 83.0043222,40.0694251 83.0043222,37.5206446 C83.0164634,34.9692509 80.9563589,32.8908537 78.4049652,32.8795296 C78.3997387,32.8795296 78.3953833,32.8786585 78.3901568,32.8786585 L78.3901568,32.9074042 Z M78.3901568,43.5389373 C75.0669861,43.5389373 72.3727352,40.8446864 72.3727352,37.5206446 C72.3727352,34.1966028 75.0669861,31.5023519 78.3901568,31.5023519 C81.7133275,31.5023519 84.4084495,34.1966028 84.4084495,37.5206446 C84.4084495,40.8446864 81.7133275,43.5389373 78.3901568,43.5389373 L78.3901568,43.5389373 Z" id="Fill-96" fill="#D93833"></path>
                        <mask id="mask-4" fill="white">
                            <use xlink:href="#path-3"></use>
                        </mask>
                        <g id="Clip-99"></g>
                        <polygon id="Fill-98" fill="#004A8E" mask="url(#mask-4)" points="29.3954704 13.4973868 41.9163763 13.4973868 41.9163763 12.0932056 29.3954704 12.0932056"></polygon>
                        <path d="M149.127178,0.210888502 L215.319686,0.210888502 C218.279617,0.210888502 220.678571,2.60984321 220.678571,5.56890244 L220.678571,123.29277 C220.678571,126.251829 218.279617,128.650784 215.319686,128.650784 L149.127178,128.650784 C146.168118,128.650784 143.769164,126.251829 143.769164,123.29277 L143.769164,5.56890244 C143.769164,2.60984321 146.168118,0.210888502 149.127178,0.210888502" id="Fill-100" fill="#23366A" mask="url(#mask-4)"></path>
                        <path d="M151.254617,0.000348432056 L215.63615,0.000348432056 C218.735453,0.000348432056 221.247648,2.51254355 221.247648,5.61097561 L221.247648,122.084843 C221.247648,125.183275 218.735453,127.69547 215.63615,127.69547 L151.254617,127.69547 C148.155314,127.69547 145.64399,125.183275 145.64399,122.084843 L145.64399,5.61097561 C145.64399,2.51254355 148.155314,0.000348432056 151.254617,0.000348432056" id="Fill-101" fill="#FEFEFE" mask="url(#mask-4)"></path>
                        <path d="M221.254094,5.35827526 L221.254094,10.9340592 L145.643467,10.9340592 L145.643467,5.35827526 C145.655662,2.41489547 148.030226,0.0272648084 150.973606,0.000242163677 L215.867334,0.000242163677 C218.835105,-0.00757839721 221.246254,2.39137631 221.254094,5.35827526" id="Fill-102" fill="#004A8E" mask="url(#mask-4)"></path>
                        <path d="M183.902265,49.2836237 L218.80993,49.2836237 C223.774216,49.2836237 227.799477,53.3080139 227.799477,58.2722997 L227.799477,58.2862369 L227.799477,66.7130662 C227.799477,71.6773519 223.774216,75.7017422 218.80993,75.7017422 L174.919677,75.7017422 L174.919677,58.2862369 C174.912718,53.3219512 178.93101,49.2914634 183.894425,49.2836237 L183.902265,49.2836237 Z" id="Fill-103" fill="#203668" mask="url(#mask-4)"></path>
                        <path d="M183.234495,47.9420732 L218.143031,47.9420732 C223.107317,47.9420732 227.132578,51.9664634 227.132578,56.9307491 L227.132578,65.4002613 C227.132578,70.364547 223.107317,74.3880662 218.143031,74.3880662 L174.24669,74.3880662 L174.24669,56.9307491 C174.24669,51.9664634 178.27108,47.9420732 183.234495,47.9420732" id="Fill-104" fill="#004A8E" mask="url(#mask-4)"></path>
                        <path d="M204.140418,16.8962544 L219.99669,16.8962544 C224.732753,16.8962544 228.571603,20.7351045 228.571603,25.4702962 C228.571603,30.2063589 224.732753,34.0452091 219.99669,34.0452091 L195.565505,34.0452091 L195.565505,25.4702962 C195.565505,20.7351045 199.404355,16.8962544 204.140418,16.8962544" id="Fill-105" fill="#203668" mask="url(#mask-4)"></path>
                        <path d="M203.473519,15.5547909 L219.329791,15.5547909 C224.065854,15.5547909 227.904704,19.3936411 227.904704,24.1297038 C227.904704,28.8648955 224.065854,32.7037456 219.329791,32.7037456 L194.898606,32.7037456 L194.898606,24.1297038 C194.898606,19.3936411 198.737456,15.5547909 203.473519,15.5547909" id="Fill-106" fill="#004A8E" mask="url(#mask-4)"></path>
                        <path d="M175.854181,46.3691638 L151.388153,46.3691638 C146.423868,46.3691638 142.399477,42.3447735 142.399477,37.3804878 L142.399477,35.7655052 C142.415157,30.8116725 146.435192,26.8047038 151.388153,26.8047038 L166.83676,26.8047038 C171.801916,26.8047038 175.826307,30.8290941 175.826307,35.7933798 L175.826307,46.3691638 L175.854181,46.3691638 Z" id="Fill-107" fill="#23366A" mask="url(#mask-4)"></path>
                        <path d="M151.675697,45.0349303 L176.556359,45.0349303 L176.556359,34.0166376 C176.552875,29.2805749 172.711411,25.4425958 167.975348,25.4425958 L151.675697,25.4425958 C146.940505,25.4425958 143.101655,29.281446 143.101655,34.0166376 L143.101655,36.4608885 C143.101655,41.1960801 146.940505,45.0349303 151.675697,45.0349303" id="Fill-108" fill="#81BBE7" mask="url(#mask-4)"></path>
                        <path d="M191.275871,110.666289 L149.619077,110.666289 C144.654791,110.666289 140.62953,106.641899 140.62953,101.677613 L140.62953,89.9929443 C140.62953,85.0277875 144.654791,81.0033972 149.619077,81.0033972 L182.287195,81.0033972 C187.251481,81.0033972 191.275871,85.0277875 191.275871,89.9929443 L191.275871,110.666289 Z" id="Fill-109" fill="#203668" mask="url(#mask-4)"></path>
                        <path d="M149.87831,109.325177 L191.949739,109.325177 L191.949739,88.25723 C191.949739,83.5220383 188.110889,79.6831858 183.374826,79.6831858 L183.367857,79.6831858 L149.87831,79.6831858 C145.146603,79.6797038 141.307753,83.5124564 141.304268,88.2432927 L141.304268,88.25723 L141.304268,100.76507 C141.307753,105.495906 145.146603,109.328659 149.87831,109.325177" id="Fill-110" fill="#81BBE7" mask="url(#mask-4)"></path>
                        <polygon id="Fill-111" fill="#FEFEFE" mask="url(#mask-4)" points="201.204704 22.9076655 220.924216 22.9076655 220.924216 21.5662021 201.204704 21.5662021"></polygon>
                        <polygon id="Fill-112" fill="#FEFEFE" mask="url(#mask-4)" points="201.204704 26.9311847 214.216899 26.9311847 214.216899 25.5897213 201.204704 25.5897213"></polygon>
                        <polygon id="Fill-113" fill="#FEFEFE" mask="url(#mask-4)" points="182.441638 56.4111498 215.559233 56.4111498 215.559233 55.0696864 182.441638 55.0696864"></polygon>
                        <polygon id="Fill-114" fill="#FEFEFE" mask="url(#mask-4)" points="182.441638 60.4355401 220.25 60.4355401 220.25 59.0940767 182.441638 59.0940767"></polygon>
                        <polygon id="Fill-115" fill="#FEFEFE" mask="url(#mask-4)" points="182.441638 64.4590592 220.25 64.4590592 220.25 63.1175958 182.441638 63.1175958"></polygon>
                        <polygon id="Fill-116" fill="#FEFEFE" mask="url(#mask-4)" points="182.441638 68.4756098 200.144599 68.4756098 200.144599 67.1341463 182.441638 67.1341463"></polygon>
                        <polygon id="Fill-117" fill="#FEFEFE" mask="url(#mask-4)" points="149.611498 37.6541812 155.925087 37.6541812 155.925087 36.3127178 149.611498 36.3127178"></polygon>
                        <polygon id="Fill-118" fill="#FEFEFE" mask="url(#mask-4)" points="149.611498 34.9721254 169.33101 34.9721254 169.33101 33.630662 149.611498 33.630662"></polygon>
                        <polygon id="Fill-119" fill="#FEFEFE" mask="url(#mask-4)" points="149.084495 88.8266551 165.138502 88.8266551 165.138502 87.4851916 149.084495 87.4851916"></polygon>
                        <polygon id="Fill-120" fill="#FEFEFE" mask="url(#mask-4)" points="149.084495 92.8510453 182.848432 92.8510453 182.848432 91.5095819 149.084495 91.5095819"></polygon>
                        <polygon id="Fill-121" fill="#FEFEFE" mask="url(#mask-4)" points="149.084495 96.8675958 182.848432 96.8675958 182.848432 95.5261324 149.084495 95.5261324"></polygon>
                        <polygon id="Fill-122" fill="#FEFEFE" mask="url(#mask-4)" points="150.20122 6.34843206 163.213415 6.34843206 163.213415 5.00696864 150.20122 5.00696864"></polygon>
                        <polygon id="Fill-123" fill="#FEFEFE" mask="url(#mask-4)" points="149.084495 100.891115 176.141986 100.891115 176.141986 99.5496516 149.084495 99.5496516"></polygon>
                        <polygon id="Fill-124" fill="#D0CED0" mask="url(#mask-4)" points="150.629791 122.485192 184.393728 122.485192 184.393728 121.143728 150.629791 121.143728"></polygon>
                        <polygon id="Fill-125" fill="#81BBE7" mask="url(#mask-4)" points="145.889373 117.042683 221.141986 117.042683 221.141986 116.705575 145.889373 116.705575"></polygon>
                        <polygon id="Fill-126" fill="#D0CED0" mask="url(#mask-4)" points="215.495993 124.598868 212.441115 122.555314 216.471603 119.929007"></polygon>
                        <path d="M207.743031,120.314895 C208.902439,120.314895 209.842334,121.255662 209.842334,122.41507 C209.842334,123.574477 208.902439,124.514373 207.743031,124.514373 C206.583624,124.514373 205.643728,123.574477 205.643728,122.41507 C205.643728,121.255662 206.583624,120.314895 207.743031,120.314895" id="Fill-127" fill="#D0CED0" mask="url(#mask-4)"></path>
                        <path d="M93.5166376,64.5219512 C109.181272,64.5219512 121.880749,75.9409408 121.880749,90.0271777 C121.880749,104.113415 109.181272,115.533275 93.5166376,115.533275 C77.8520035,115.533275 65.1525261,104.113415 65.1525261,90.0271777 C65.1525261,75.9409408 77.8520035,64.5219512 93.5166376,64.5219512" id="Fill-128" fill="#203668" mask="url(#mask-4)"></path>
                        <path d="M96.0941638,65.0770035 C82.259669,65.0735192 71.041899,76.2843206 71.0375423,90.1188153 C71.0331882,103.952439 82.2457317,115.17108 96.0793554,115.174566 C109.91385,115.17892 121.13162,103.967247 121.135976,90.1327526 L121.135976,90.125784 C121.12378,76.2982578 109.92169,65.0891986 96.0941638,65.0700348 L96.0941638,65.0770035 Z M96.0941638,116.571778 C81.4844077,116.576132 69.6377178,104.73554 69.6333612,90.125784 C69.629007,75.5160279 81.4695993,63.669338 96.0793554,63.6649818 C110.689983,63.6614983 122.535801,75.5020906 122.540157,90.1118467 L122.540157,90.125784 C122.520993,104.723345 110.691725,116.552613 96.0941638,116.571778 L96.0941638,116.571778 Z" id="Fill-129" fill="#80BCE5" mask="url(#mask-4)"></path>
                        <path d="M95.8406794,66.2216028 C108.895557,66.2216028 119.47831,76.8043554 119.47831,89.8592334 C119.47831,102.914111 108.895557,113.495993 95.8406794,113.495993 C82.7866725,113.495993 72.2030488,102.914111 72.2030488,89.8592334 C72.2030488,76.8043554 82.7866725,66.2216028 95.8406794,66.2216028" id="Fill-130" fill="#FEFEFE" mask="url(#mask-4)"></path>
                        <path d="M117.076655,90.0134146 C117.10453,87.2581882 116.584495,84.5247387 115.545296,81.9733449 C114.525261,79.3888502 113.016551,77.0256098 111.101045,75.0134146 C102.720383,66.1005226 88.7369338,65.5621951 79.6968641,73.8060976 C77.4599303,75.8618467 75.6672474,78.354878 74.4294425,81.1301394 C71.9198606,86.7834495 71.9198606,93.2355401 74.4294425,98.8897213 C75.6611498,101.664983 77.4494774,104.157143 79.6820557,106.214634 C84.1350174,110.228571 89.9939024,112.318293 95.9808362,112.028223 C101.740418,111.747735 107.160279,109.2277 111.086237,105.006446 C113.001742,102.994251 114.512195,100.63101 115.53223,98.0473868 C116.562718,95.495993 117.075784,92.7651568 117.041812,90.0134146 L117.076655,90.0134146 Z M120.074913,90.0134146 C120.0723,96.3696864 117.513937,102.458537 112.97561,106.908885 C110.733449,109.11446 108.080139,110.858362 105.166376,112.043031 C96.206446,115.702439 85.9268293,113.685017 79.0156794,106.908885 C69.6820557,97.7433798 69.5470383,82.745993 78.7134146,73.4123693 C78.8127178,73.311324 78.912892,73.2102787 79.0156794,73.1109756 C88.4477352,63.8635889 103.543554,63.8635889 112.97561,73.1109756 C117.515679,77.5630662 120.074042,83.6545296 120.074913,90.0134146 L120.074913,90.0134146 Z" id="Fill-131" fill="#EAF0FA" mask="url(#mask-4)"></path>
                        <path d="M95.8126307,73.4688153 C95.425,73.4688153 95.1105401,73.1543554 95.1105401,72.7667247 L95.1105401,70.0202091 C95.1105401,69.6325784 95.425,69.3181185 95.8126307,69.3181185 C96.2002613,69.3181185 96.5155923,69.6325784 96.5155923,70.0202091 L96.5155923,72.7667247 C96.5155923,73.1543554 96.2002613,73.4688153 95.8126307,73.4688153" id="Fill-132" fill="#1B1D37" mask="url(#mask-4)"></path>
                        <path d="M96.936324,110.820645 C96.5486934,110.820645 96.2342334,110.506185 96.2342334,110.118554 L96.2342334,107.365941 C96.2342334,106.977439 96.5486934,106.66385 96.936324,106.66385 C97.3239547,106.66385 97.6392857,106.977439 97.6392857,107.365941 L97.6392857,110.118554 C97.6392857,110.506185 97.3239547,110.820645 96.936324,110.820645" id="Fill-133" fill="#1B1D37" mask="url(#mask-4)"></path>
                        <path d="M79.3454704,91.5862369 L76.5362369,91.5862369 C76.1486063,91.5862369 75.8341463,91.271777 75.8341463,90.8841463 C75.8341463,90.4965157 76.1486063,90.1820557 76.5362369,90.1820557 L79.3454704,90.1820557 C79.733101,90.1820557 80.047561,90.4965157 80.047561,90.8841463 C80.047561,91.271777 79.733101,91.5862369 79.3454704,91.5862369" id="Fill-134" fill="#1B1D37" mask="url(#mask-4)"></path>
                        <path d="M116.662369,90.4629791 L113.909756,90.4629791 C113.522125,90.4629791 113.207666,90.1485192 113.207666,89.7608885 C113.207666,89.3732578 113.522125,89.0587979 113.909756,89.0587979 L116.662369,89.0587979 C117.05,89.0587979 117.365331,89.3732578 117.365331,89.7608885 C117.365331,90.1485192 117.05,90.4629791 116.662369,90.4629791" id="Fill-135" fill="#1B1D37" mask="url(#mask-4)"></path>
                        <polygon id="Fill-136" fill="#1B1D37" mask="url(#mask-4)" points="81.1999129 102.008188 95.0614111 88.1022648 96.5535714 89.5900697 82.6920732 103.495993"></polygon>
                        <polygon id="Fill-137" fill="#1B1D37" mask="url(#mask-4)" points="90.3173345 102.505836 95.191899 88.6321429 96.5168118 89.0981707 91.6422474 102.971864"></polygon>
                        <polygon id="Fill-138" fill="#E31D1F" mask="url(#mask-4)" points="94.5579268 89.8160279 107.845383 76.5285714 108.341899 77.024216 95.0535714 90.3125436"></polygon>
                    </g>
                </g>
            </g>
        </g>
    </g>
</svg>